<svg width="16" height="17" viewBox="0 0 16 17" fill="none" xmlns="http://www.w3.org/2000/svg">
<path d="M8.125 7.625H4.375" stroke="#46444E" stroke-width="1.2" stroke-linecap="round" stroke-linejoin="round"/>
<path d="M13.7501 8.85622V10.1438C13.7501 10.4875 13.4751 10.7687 13.1251 10.7812H11.9001C11.2251 10.7812 10.6064 10.2875 10.5501 9.61249C10.5126 9.21874 10.6626 8.84998 10.9251 8.59373C11.1564 8.35623 11.4751 8.21875 11.8251 8.21875H13.1251C13.4751 8.23125 13.7501 8.51247 13.7501 8.85622Z" stroke="#46444E" stroke-width="1.2" stroke-linecap="round" stroke-linejoin="round"/>
<path d="M10.925 8.59374C10.6625 8.84999 10.5125 9.21875 10.55 9.6125C10.6063 10.2875 11.225 10.7812 11.9 10.7812H13.125V11.6875C13.125 13.5625 11.875 14.8125 10 14.8125H4.375C2.5 14.8125 1.25 13.5625 1.25 11.6875V7.3125C1.25 5.6125 2.275 4.425 3.86875 4.225C4.03125 4.2 4.2 4.1875 4.375 4.1875H10C10.1625 4.1875 10.3188 4.19374 10.4688 4.21874C12.0812 4.40624 13.125 5.6 13.125 7.3125V8.21876H11.825C11.475 8.21876 11.1562 8.35624 10.925 8.59374Z" stroke="#46444E" stroke-width="1.2" stroke-linecap="round" stroke-linejoin="round"/>
<circle cx="12.5" cy="3.5" r="2.75" fill="#EC645E" stroke="#D0D5FB" stroke-width="1.5"/>
</svg>
