<svg width="20" height="20" viewBox="0 0 20 20" fill="none" xmlns="http://www.w3.org/2000/svg">
<path d="M12.825 4.34199L13.9999 6.69199C14.1583 7.01699 14.5833 7.32532 14.9416 7.39198L17.0666 7.74198C18.425 7.96698 18.7416 8.95032 17.7666 9.93365L16.1083 11.592C15.8333 11.867 15.675 12.4087 15.7666 12.8003L16.2416 14.8503C16.6166 16.467 15.75 17.1003 14.325 16.2503L12.3333 15.067C11.9749 14.8503 11.375 14.8503 11.0166 15.067L9.02495 16.2503C7.59995 17.092 6.73329 16.467 7.10829 14.8503L7.5833 12.8003C7.67496 12.417 7.51663 11.8753 7.24163 11.592L5.5833 9.93365C4.6083 8.95865 4.92497 7.97531 6.2833 7.74198L8.40829 7.39198C8.76662 7.33365 9.19163 7.01699 9.34996 6.69199L10.525 4.34199C11.15 3.06699 12.1833 3.06699 12.825 4.34199Z" stroke="#6371F1" stroke-width="1.5" stroke-linecap="round" stroke-linejoin="round"/>
<path d="M6.6665 4.1665H1.6665" stroke="#6371F1" stroke-width="1.5" stroke-linecap="round" stroke-linejoin="round"/>
<path d="M4.1665 15.8335H1.6665" stroke="#6371F1" stroke-width="1.5" stroke-linecap="round" stroke-linejoin="round"/>
<path d="M2.49984 10H1.6665" stroke="#6371F1" stroke-width="1.5" stroke-linecap="round" stroke-linejoin="round"/>
</svg>
