<svg width="275" height="240" viewBox="0 0 275 240" fill="none" xmlns="http://www.w3.org/2000/svg">
<path d="M175.479 0H98.3361C93.6132 0 89.7646 3.85714 89.7646 8.57142V51.4285C89.7646 56.1428 93.6132 60 98.3361 60H175.479C180.193 60 184.05 56.1428 184.05 51.4285V8.57142C184.05 3.85714 180.193 0 175.479 0Z" fill="#E6E9ED"/>
<path d="M119.765 30C126.88 30 132.622 35.7429 132.622 42.8571H106.908C106.908 35.7429 112.694 30 119.765 30Z" fill="#5D9CEC"/>
<path d="M119.768 15C124.503 15 128.339 18.8357 128.339 23.5714C128.339 28.3157 124.503 32.1428 119.768 32.1428C115.023 32.1428 111.196 28.3157 111.196 23.5714C111.196 18.8357 115.023 15 119.768 15Z" fill="#EAC6BB"/>
<path d="M175.565 111.428V124.41L162.708 115.714C162.708 115.714 154.093 120 139.136 120C124.179 120 111.279 115.714 111.279 115.714L98.4219 124.41V111.428C98.4219 92.4854 113.765 77.1426 132.708 77.1426H158.422V94.2854C167.889 94.2854 175.565 101.953 175.565 111.428V111.428Z" fill="#965353"/>
<path d="M158.42 107.143C160.781 107.143 162.705 109.058 162.705 111.428V115.714L175.562 124.41V111.428C175.562 101.953 167.887 94.2854 158.42 94.2854V77.1426H145.562V94.2854C145.562 101.383 151.31 107.143 158.42 107.143V107.143Z" fill="#844747"/>
<path d="M175.565 124.41V141.467C175.565 156.591 166.818 169.71 154.136 176.014C148.989 178.585 143.16 180.038 136.993 180.038C130.826 180.038 124.989 178.581 119.85 176.014C107.16 169.71 98.4219 156.595 98.4219 141.467V124.41L111.279 115.714C111.279 115.714 124.179 120 139.136 120C154.093 120 162.708 115.714 162.708 115.714L175.565 124.41Z" fill="#EAC6BB"/>
<path d="M162.705 115.714H162.688V141.471C162.688 156.595 153.95 169.714 141.268 176.018C137.964 177.668 134.347 178.795 130.562 179.442C132.654 179.794 134.788 180.047 136.991 180.047C143.158 180.047 148.987 178.59 154.134 176.022C166.815 169.718 175.562 156.604 175.562 141.475V124.418L162.705 115.714Z" fill="#D3B1A9"/>
<path d="M136.907 192.857L128.379 197.143L119.722 188.615H119.846V176.015C124.985 178.586 130.822 180.039 136.989 180.039C143.156 180.039 148.985 178.582 154.132 176.015V188.61L145.479 197.143L136.95 192.857H136.907Z" fill="#87BCF4"/>
<path d="M42.7085 156.471V158.614C42.7085 175.195 56.1184 188.614 72.7084 188.614H119.727L128.384 197.143L136.913 192.857H136.956L145.484 197.143L154.141 188.614H201.284C217.866 188.614 231.284 175.195 231.284 158.614V156.471C231.284 150.553 236.08 145.757 241.998 145.757C247.908 145.757 252.713 150.553 252.713 156.471V158.614C252.713 187.024 229.746 210.043 201.284 210.043H175.57V240H98.427V210.043H72.7127C44.2942 210.043 21.2842 187.024 21.2842 158.614V156.471C21.2842 150.553 26.0799 145.757 31.9985 145.757C37.9042 145.757 42.7085 150.553 42.7085 156.471V156.471Z" fill="#5D9CEC"/>
<path d="M42.7389 102.882C41.6418 102.882 40.5446 102.462 39.7089 101.626C38.0332 99.9508 38.0332 97.2422 39.7089 95.5665L48.2804 86.9951C49.9561 85.3194 52.6646 85.3194 54.3404 86.9951C56.0161 88.6708 56.0161 91.3793 54.3404 93.0551L45.7689 101.626C44.9332 102.462 43.8361 102.882 42.7389 102.882V102.882Z" fill="#AC92EC"/>
<path d="M51.3104 111.454C50.2132 111.454 49.1161 111.034 48.2804 110.199L39.7089 101.627C38.0332 99.9516 38.0332 97.243 39.7089 95.5673C41.3846 93.8916 44.0932 93.8916 45.7689 95.5673L54.3404 104.139C56.0161 105.814 56.0161 108.523 54.3404 110.199C53.5046 111.034 52.4075 111.454 51.3104 111.454V111.454Z" fill="#AC92EC"/>
<path d="M42.7389 120.026C41.6418 120.026 40.5446 119.606 39.7089 118.77C38.0332 117.094 38.0332 114.386 39.7089 112.71L48.2804 104.139C49.9561 102.463 52.6646 102.463 54.3404 104.139C56.0161 105.814 56.0161 108.523 54.3404 110.199L45.7689 118.77C44.9332 119.606 43.8361 120.026 42.7389 120.026V120.026Z" fill="#AC92EC"/>
<path d="M51.3104 128.597C50.2132 128.597 49.1161 128.177 48.2804 127.341L39.7089 118.77C38.0332 117.094 38.0332 114.386 39.7089 112.71C41.3846 111.034 44.0932 111.034 45.7689 112.71L54.3404 121.281C56.0161 122.957 56.0161 125.666 54.3404 127.341C53.5046 128.177 52.4075 128.597 51.3104 128.597V128.597Z" fill="#AC92EC"/>
<path d="M4.30285 72.8742C1.93286 72.8742 0 70.9584 0 68.5884C0 66.2184 1.89 64.3027 4.26 64.3027H4.30285C6.67285 64.3027 8.58857 66.2184 8.58857 68.5884C8.58857 70.9584 6.66857 72.8742 4.30285 72.8742Z" fill="#FFCE54"/>
<path d="M42.8817 25.7482C40.5117 25.7482 38.5703 23.8325 38.5703 21.4625C38.5703 19.0925 40.4689 17.1768 42.8303 17.1768H42.8817C45.2432 17.1768 47.1674 19.0925 47.1674 21.4625C47.1674 23.8325 45.2389 25.7482 42.8817 25.7482Z" fill="#ED5565"/>
<path d="M257.17 21.4454C254.8 21.4454 252.867 19.5297 252.867 17.1597C252.867 14.7897 254.757 12.874 257.127 12.874H257.17C259.54 12.874 261.456 14.7897 261.456 17.1597C261.456 19.5297 259.536 21.4454 257.17 21.4454Z" fill="#EC87C0"/>
<path d="M269.932 115.723C267.562 115.723 265.629 113.807 265.629 111.437C265.629 109.067 267.519 107.151 269.889 107.151H269.932C272.302 107.151 274.217 109.067 274.217 111.437C274.217 113.807 272.302 115.723 269.932 115.723Z" fill="#AC92EC"/>
<path d="M137.084 214.312C134.714 214.312 132.772 212.396 132.772 210.026C132.772 207.656 134.671 205.74 137.032 205.74H137.084C139.445 205.74 141.37 207.656 141.37 210.026C141.37 212.396 139.445 214.312 137.084 214.312Z" fill="#87BCF4"/>
<path d="M137.084 231.42C134.714 231.42 132.772 229.504 132.772 227.134C132.772 224.764 134.671 222.849 137.032 222.849H137.084C139.445 222.849 141.37 224.764 141.37 227.134C141.37 229.504 139.445 231.42 137.084 231.42Z" fill="#87BCF4"/>
<path d="M227.025 85.7231C224.655 85.7231 222.739 83.8073 222.739 81.4373V64.2945C222.739 61.9245 224.655 60.0088 227.025 60.0088C229.395 60.0088 231.311 61.9245 231.311 64.2945V81.4373C231.311 83.8073 229.395 85.7231 227.025 85.7231Z" fill="#FC6E51"/>
<path d="M231.31 77.1515H222.739C220.369 77.1515 218.453 75.2358 218.453 72.8658C218.453 70.4958 220.369 68.5801 222.739 68.5801H231.31C233.68 68.5801 235.596 70.4958 235.596 72.8658C235.596 75.2358 233.68 77.1515 231.31 77.1515Z" fill="#FC6E51"/>
<path d="M166.951 30.0079H145.522C143.152 30.0079 141.236 28.0922 141.236 25.7222C141.236 23.3522 143.152 21.4365 145.522 21.4365H166.951C169.321 21.4365 171.236 23.3522 171.236 25.7222C171.236 28.0922 169.321 30.0079 166.951 30.0079Z" fill="#CCD1D9"/>
<path d="M158.388 42.8654H145.522C143.152 42.8654 141.236 40.9497 141.236 38.5797C141.236 36.2097 143.152 34.2939 145.522 34.2939H158.388C160.758 34.2939 162.673 36.2097 162.673 38.5797C162.673 40.9497 160.758 42.8654 158.388 42.8654Z" fill="#CCD1D9"/>
</svg>
