<svg width="30" height="30" viewBox="0 0 30 30" fill="none" xmlns="http://www.w3.org/2000/svg">
<path d="M15 2.5V11.25L17.5 8.75" stroke="#9B99A3" stroke-width="2" stroke-linecap="round" stroke-linejoin="round"/>
<path d="M15 11.25L12.5 8.75" stroke="#9B99A3" stroke-width="2" stroke-linecap="round" stroke-linejoin="round"/>
<path d="M2.4751 16.25H7.9876C8.4626 16.25 8.8876 16.5125 9.1001 16.9375L10.5626 19.8625C10.9876 20.7125 11.8501 21.25 12.8001 21.25H17.2126C18.1626 21.25 19.0251 20.7125 19.4501 19.8625L20.9126 16.9375C21.1251 16.5125 21.5626 16.25 22.0251 16.25H27.4751" stroke="#9B99A3" stroke-width="2" stroke-linecap="round" stroke-linejoin="round"/>
<path d="M8.75 5.16235C4.325 5.81235 2.5 8.41235 2.5 13.7499V18.7499C2.5 24.9999 5 27.4999 11.25 27.4999H18.75C25 27.4999 27.5 24.9999 27.5 18.7499V13.7499C27.5 8.41235 25.675 5.81235 21.25 5.16235" stroke="#9B99A3" stroke-width="2" stroke-linecap="round" stroke-linejoin="round"/>
</svg>
