<svg width="30" height="30" viewBox="0 0 30 30" fill="none" xmlns="http://www.w3.org/2000/svg">
<path d="M21.25 23.0377H16.25L10.6875 26.7376C9.86248 27.2876 8.75 26.7002 8.75 25.7002V23.0377C5 23.0377 2.5 20.5377 2.5 16.7877V9.2876C2.5 5.5376 5 3.0376 8.75 3.0376H21.25C25 3.0376 27.5 5.5376 27.5 9.2876V16.7877C27.5 20.5377 25 23.0377 21.25 23.0377Z" stroke="#B8B7BE" stroke-width="2" stroke-miterlimit="10" stroke-linecap="round" stroke-linejoin="round"/>
<path d="M15 14.2V13.9375C15 13.0875 15.525 12.6375 16.05 12.275C16.5625 11.925 17.075 11.475 17.075 10.65C17.075 9.49999 16.15 8.57495 15 8.57495C13.85 8.57495 12.925 9.49999 12.925 10.65" stroke="#B8B7BE" stroke-width="2" stroke-linecap="round" stroke-linejoin="round"/>
<path d="M14.9944 17.1875H15.0056" stroke="#B8B7BE" stroke-width="2" stroke-linecap="round" stroke-linejoin="round"/>
</svg>
