<svg width="15" height="15" viewBox="0 0 15 15" fill="none" xmlns="http://www.w3.org/2000/svg">
<path d="M13.125 4.20703C13.1125 4.20703 13.0938 4.20703 13.075 4.20703C9.76879 3.87578 6.46879 3.75078 3.20004 4.08203L1.92504 4.20703C1.66254 4.23203 1.43129 4.04453 1.40629 3.78203C1.38129 3.51953 1.56879 3.29453 1.82504 3.26953L3.10004 3.14453C6.42504 2.80703 9.79379 2.93828 13.1688 3.26953C13.425 3.29453 13.6125 3.52578 13.5875 3.78203C13.5688 4.02578 13.3625 4.20703 13.125 4.20703Z" fill="#B8B7BE"/>
<path d="M5.31248 3.575C5.28748 3.575 5.26248 3.575 5.23123 3.56875C4.98123 3.525 4.80623 3.28125 4.84998 3.03125L4.98748 2.2125C5.08748 1.6125 5.22498 0.78125 6.68123 0.78125H8.31873C9.78123 0.78125 9.91873 1.64375 10.0125 2.21875L10.15 3.03125C10.1937 3.2875 10.0187 3.53125 9.76873 3.56875C9.51248 3.6125 9.26873 3.4375 9.23123 3.1875L9.09373 2.375C9.00623 1.83125 8.98748 1.725 8.32498 1.725H6.68748C6.02498 1.725 6.01248 1.8125 5.91873 2.36875L5.77498 3.18125C5.73748 3.4125 5.53748 3.575 5.31248 3.575Z" fill="#B8B7BE"/>
<path d="M9.50625 14.2187H5.49375C3.3125 14.2187 3.225 13.0125 3.15625 12.0375L2.75 5.74374C2.73125 5.48749 2.93125 5.26249 3.1875 5.24374C3.45 5.23124 3.66875 5.42499 3.6875 5.68124L4.09375 11.975C4.1625 12.925 4.1875 13.2812 5.49375 13.2812H9.50625C10.8187 13.2812 10.8437 12.925 10.9062 11.975L11.3125 5.68124C11.3312 5.42499 11.5562 5.23124 11.8125 5.24374C12.0687 5.26249 12.2687 5.48124 12.25 5.74374L11.8437 12.0375C11.775 13.0125 11.6875 14.2187 9.50625 14.2187Z" fill="#B8B7BE"/>
<path d="M8.53755 10.7812H6.4563C6.20005 10.7812 5.98755 10.5688 5.98755 10.3125C5.98755 10.0563 6.20005 9.84375 6.4563 9.84375H8.53755C8.7938 9.84375 9.0063 10.0563 9.0063 10.3125C9.0063 10.5688 8.7938 10.7812 8.53755 10.7812Z" fill="#B8B7BE"/>
<path d="M9.0625 8.28125H5.9375C5.68125 8.28125 5.46875 8.06875 5.46875 7.8125C5.46875 7.55625 5.68125 7.34375 5.9375 7.34375H9.0625C9.31875 7.34375 9.53125 7.55625 9.53125 7.8125C9.53125 8.06875 9.31875 8.28125 9.0625 8.28125Z" fill="#B8B7BE"/>
</svg>
