<svg width="270" height="240" viewBox="0 0 270 240" fill="none" xmlns="http://www.w3.org/2000/svg">
<path d="M256.841 4.21094H12.6305C7.99895 4.21094 4.20947 8.00041 4.20947 12.632V176.842H4.42H265.262V12.632C265.262 8.00041 261.473 4.21094 256.841 4.21094Z" fill="#E6E9ED"/>
<path d="M189.471 235.79V240.001H79.9976V235.79C79.9976 231.121 83.7449 227.369 88.4186 227.369H96.8397H172.629H181.05C185.724 227.369 189.471 231.121 189.471 235.79Z" fill="#656D78"/>
<path d="M84.2095 117.895H96.841V130.526H84.2095V117.895Z" fill="white"/>
<path d="M265.262 185.264C265.262 189.895 261.473 193.685 256.841 193.685H164.209H105.262H12.6305C7.99895 193.685 4.20947 189.895 4.20947 185.264V176.843H4.42H265.262V185.264Z" fill="#656D78"/>
<path d="M164.21 193.685L172.631 227.369H96.8418L105.263 193.685H164.21Z" fill="#545C66"/>
<path d="M202.104 117.896H214.736V130.527H202.104V117.896Z" fill="white"/>
<path d="M147.367 117.895H159.999V130.526H147.367V117.895Z" fill="white"/>
<path d="M29.4722 117.896H42.1037V130.527H29.4722V117.896Z" fill="white"/>
<path d="M134.736 37.8945C139.367 37.8945 143.157 41.684 143.157 46.3156C143.157 50.9514 139.367 54.7366 134.736 54.7366C130.104 54.7366 126.314 50.9514 126.314 46.3156C126.314 41.684 130.104 37.8945 134.736 37.8945Z" fill="#656D78"/>
<path d="M256.842 197.895H12.6316C5.66737 197.895 0 192.227 0 185.263V12.6316C0 5.66737 5.66737 0 12.6316 0H256.842C263.806 0 269.474 5.66737 269.474 12.6316V185.263C269.474 192.227 263.806 197.895 256.842 197.895ZM12.6316 8.42105C10.3074 8.42105 8.42105 10.3074 8.42105 12.6316V185.263C8.42105 187.587 10.3074 189.474 12.6316 189.474H256.842C259.166 189.474 261.053 187.587 261.053 185.263V12.6316C261.053 10.3074 259.166 8.42105 256.842 8.42105H12.6316Z" fill="#656D78"/>
<path d="M126.315 50.5294H109.473C107.144 50.5294 105.262 48.6431 105.262 46.3189C105.262 43.9905 107.144 42.1084 109.473 42.1084H126.315C128.643 42.1084 130.525 43.9905 130.525 46.3189C130.525 48.6431 128.643 50.5294 126.315 50.5294Z" fill="#545C66"/>
<path d="M159.999 50.5294H143.157C140.829 50.5294 138.947 48.6431 138.947 46.3189C138.947 43.9905 140.829 42.1084 143.157 42.1084H159.999C162.328 42.1084 164.21 43.9905 164.21 46.3189C164.21 48.6431 162.328 50.5294 159.999 50.5294Z" fill="#545C66"/>
<path d="M134.737 75.7892C132.409 75.7892 130.527 73.9071 130.527 71.5787V54.7408C130.527 52.4124 132.409 50.5303 134.737 50.5303C137.066 50.5303 138.948 52.4124 138.948 54.7408V71.5787C138.948 73.9071 137.066 75.7892 134.737 75.7892Z" fill="#545C66"/>
<path d="M134.736 75.7889C118.487 75.7889 105.262 62.5678 105.262 46.3194C105.262 30.0668 118.487 16.8457 134.736 16.8457C150.984 16.8457 164.21 30.0668 164.21 46.3194C164.21 62.5678 150.984 75.7889 134.736 75.7889ZM134.736 25.2668C123.127 25.2668 113.683 34.711 113.683 46.3194C113.683 57.9278 123.127 67.3678 134.736 67.3678C146.344 67.3678 155.789 57.9278 155.789 46.3194C155.789 34.711 146.344 25.2668 134.736 25.2668V25.2668Z" fill="#656D78"/>
<path d="M134.738 58.9474C127.774 58.9474 122.106 53.2843 122.106 46.3201C122.106 39.3558 127.774 33.6885 134.738 33.6885C141.702 33.6885 147.37 39.3558 147.37 46.3201C147.37 53.2843 141.702 58.9474 134.738 58.9474ZM134.738 42.1095C132.414 42.1095 130.527 43.9958 130.527 46.3201C130.527 48.6401 132.414 50.5306 134.738 50.5306C137.062 50.5306 138.949 48.6401 138.949 46.3201C138.949 43.9958 137.062 42.1095 134.738 42.1095Z" fill="#656D78"/>
<path d="M88.4302 42.1056H29.4786C27.1502 42.1056 25.2681 40.2193 25.2681 37.8951C25.2681 35.5667 27.1502 33.6846 29.4786 33.6846H88.4302C90.7586 33.6846 92.6407 35.5667 92.6407 37.8951C92.6407 40.2193 90.7586 42.1056 88.4302 42.1056Z" fill="#CCD1D9"/>
<path d="M71.5837 54.7375H46.3248C43.9964 54.7375 42.1143 52.8511 42.1143 50.5269C42.1143 48.1985 43.9964 46.3164 46.3248 46.3164H71.5837C73.9121 46.3164 75.7942 48.1985 75.7942 50.5269C75.7942 52.8511 73.9121 54.7375 71.5837 54.7375Z" fill="#CCD1D9"/>
<path d="M122.148 92.632H29.4786C27.1502 92.632 25.2681 90.7457 25.2681 88.4215C25.2681 86.093 27.1502 84.2109 29.4786 84.2109H122.148C124.476 84.2109 126.359 86.093 126.359 88.4215C126.359 90.7457 124.476 92.632 122.148 92.632Z" fill="#CCD1D9"/>
<path d="M240.001 151.57H29.4786C27.1502 151.57 25.2681 149.688 25.2681 147.36C25.2681 145.032 27.1502 143.149 29.4786 143.149H240.001C242.329 143.149 244.211 145.032 244.211 147.36C244.211 149.688 242.329 151.57 240.001 151.57Z" fill="white"/>
<path d="M75.8058 105.264H29.4732C27.1448 105.264 25.2627 103.378 25.2627 101.053C25.2627 98.7249 27.1448 96.8428 29.4732 96.8428H75.8058C78.1343 96.8428 80.0164 98.7249 80.0164 101.053C80.0164 103.378 78.1343 105.264 75.8058 105.264Z" fill="#CCD1D9"/>
<path d="M240.009 92.632H147.339C145.011 92.632 143.129 90.7457 143.129 88.4215C143.129 86.093 145.011 84.2109 147.339 84.2109H240.009C242.337 84.2109 244.219 86.093 244.219 88.4215C244.219 90.7457 242.337 92.632 240.009 92.632Z" fill="#CCD1D9"/>
<path d="M122.148 168.421H29.4786C27.1502 168.421 25.2681 166.539 25.2681 164.211C25.2681 161.882 27.1502 160 29.4786 160H122.148C124.476 160 126.359 161.882 126.359 164.211C126.359 166.539 124.476 168.421 122.148 168.421Z" fill="#CCD1D9"/>
<path d="M240.009 168.421H147.339C145.011 168.421 143.129 166.539 143.129 164.211C143.129 161.882 145.011 160 147.339 160H240.009C242.337 160 244.219 161.882 244.219 164.211C244.219 166.539 242.337 168.421 240.009 168.421Z" fill="#CCD1D9"/>
<path d="M193.669 105.263H147.336C145.008 105.263 143.125 103.377 143.125 101.052C143.125 98.7239 145.008 96.8418 147.336 96.8418H193.669C195.997 96.8418 197.879 98.7239 197.879 101.052C197.879 103.377 195.997 105.263 193.669 105.263Z" fill="#CCD1D9"/>
<path d="M239.991 42.1056H181.04C178.711 42.1056 176.829 40.2193 176.829 37.8951C176.829 35.5667 178.711 33.6846 181.04 33.6846H239.991C242.32 33.6846 244.202 35.5667 244.202 37.8951C244.202 40.2193 242.32 42.1056 239.991 42.1056Z" fill="#CCD1D9"/>
<path d="M223.149 54.7375H197.89C195.561 54.7375 193.679 52.8511 193.679 50.5269C193.679 48.1985 195.561 46.3164 197.89 46.3164H223.149C225.477 46.3164 227.359 48.1985 227.359 50.5269C227.359 52.8511 225.477 54.7375 223.149 54.7375Z" fill="#CCD1D9"/>
<path d="M42.0936 134.737H29.462C27.1336 134.737 25.2515 132.854 25.2515 130.526V117.903C25.2515 115.574 27.1336 113.692 29.462 113.692H42.0936C44.422 113.692 46.3041 115.574 46.3041 117.903V130.526C46.3041 132.854 44.422 134.737 42.0936 134.737ZM33.6725 126.316H37.883V122.113H33.6725V126.316Z" fill="white"/>
<path d="M67.3439 122.113H54.7208C52.3924 122.113 50.5103 120.227 50.5103 117.903C50.5103 115.574 52.3924 113.692 54.7208 113.692H67.3439C69.6724 113.692 71.5545 115.574 71.5545 117.903C71.5545 120.227 69.6724 122.113 67.3439 122.113Z" fill="#CCD1D9"/>
<path d="M58.7503 134.736H54.7208C52.3924 134.736 50.5103 132.854 50.5103 130.526C50.5103 128.198 52.3924 126.315 54.7208 126.315H58.7503C61.0787 126.315 62.9608 128.198 62.9608 130.526C62.9608 132.854 61.0787 134.736 58.7503 134.736Z" fill="#CCD1D9"/>
<path d="M96.8382 134.737H84.2066C81.8782 134.737 79.9961 132.854 79.9961 130.526V117.903C79.9961 115.574 81.8782 113.692 84.2066 113.692H96.8382C99.1666 113.692 101.049 115.574 101.049 117.903V130.526C101.049 132.854 99.1666 134.737 96.8382 134.737ZM88.4171 126.316H92.6277V122.113H88.4171V126.316Z" fill="white"/>
<path d="M122.087 122.113H109.464C107.136 122.113 105.253 120.227 105.253 117.903C105.253 115.574 107.136 113.692 109.464 113.692H122.087C124.416 113.692 126.298 115.574 126.298 117.903C126.298 120.227 124.416 122.113 122.087 122.113Z" fill="#CCD1D9"/>
<path d="M113.493 134.736H109.464C107.136 134.736 105.253 132.854 105.253 130.526C105.253 128.198 107.136 126.315 109.464 126.315H113.493C115.822 126.315 117.704 128.198 117.704 130.526C117.704 132.854 115.822 134.736 113.493 134.736Z" fill="#CCD1D9"/>
<path d="M160 134.737H147.368C145.04 134.737 143.158 132.854 143.158 130.526V117.903C143.158 115.574 145.04 113.692 147.368 113.692H160C162.328 113.692 164.21 115.574 164.21 117.903V130.526C164.21 132.854 162.328 134.737 160 134.737ZM151.579 126.316H155.789V122.113H151.579V126.316Z" fill="white"/>
<path d="M185.25 122.113H172.627C170.299 122.113 168.417 120.227 168.417 117.903C168.417 115.574 170.299 113.692 172.627 113.692H185.25C187.579 113.692 189.461 115.574 189.461 117.903C189.461 120.227 187.579 122.113 185.25 122.113Z" fill="#CCD1D9"/>
<path d="M176.657 134.736H172.627C170.299 134.736 168.417 132.854 168.417 130.526C168.417 128.198 170.299 126.315 172.627 126.315H176.657C178.985 126.315 180.867 128.198 180.867 130.526C180.867 132.854 178.985 134.736 176.657 134.736Z" fill="#CCD1D9"/>
<path d="M214.742 134.737H202.111C199.782 134.737 197.9 132.854 197.9 130.526V117.903C197.9 115.574 199.782 113.692 202.111 113.692H214.742C217.071 113.692 218.953 115.574 218.953 117.903V130.526C218.953 132.854 217.071 134.737 214.742 134.737ZM206.321 126.316H210.532V122.113H206.321V126.316Z" fill="white"/>
<path d="M239.995 122.113H227.372C225.043 122.113 223.161 120.227 223.161 117.903C223.161 115.574 225.043 113.692 227.372 113.692H239.995C242.323 113.692 244.205 115.574 244.205 117.903C244.205 120.227 242.323 122.113 239.995 122.113Z" fill="#CCD1D9"/>
<path d="M231.401 134.736H227.372C225.043 134.736 223.161 132.854 223.161 130.526C223.161 128.198 225.043 126.315 227.372 126.315H231.401C233.73 126.315 235.612 128.198 235.612 130.526C235.612 132.854 233.73 134.736 231.401 134.736Z" fill="#CCD1D9"/>
<path d="M134.864 191.579C132.535 191.579 130.632 189.697 130.632 187.369C130.632 185.04 132.493 183.158 134.818 183.158H134.864C137.188 183.158 139.074 185.04 139.074 187.369C139.074 189.697 137.188 191.579 134.864 191.579V191.579Z" fill="#545C66"/>
</svg>
