<svg width="15" height="15" viewBox="0 0 15 15" fill="none" xmlns="http://www.w3.org/2000/svg">
<path d="M9.69375 1.76855H5.30625C3.75 1.76855 3.40625 2.54355 3.20625 3.49355L2.5 6.8748H12.5L11.7938 3.49355C11.5938 2.54355 11.25 1.76855 9.69375 1.76855Z" stroke="#6371F1" stroke-width="1.2" stroke-linecap="round" stroke-linejoin="round"/>
<path d="M13.7437 12.3875C13.8125 13.1187 13.225 13.75 12.475 13.75H11.3C10.625 13.75 10.5312 13.4625 10.4125 13.1062L10.2875 12.7313C10.1125 12.2188 9.99996 11.875 9.09996 11.875H5.89996C4.99996 11.875 4.86871 12.2625 4.71246 12.7313L4.58746 13.1062C4.46871 13.4625 4.37496 13.75 3.69996 13.75H2.52496C1.77496 13.75 1.18746 13.1187 1.25621 12.3875L1.60621 8.58125C1.69371 7.64375 1.87496 6.875 3.51246 6.875H11.4875C13.125 6.875 13.3062 7.64375 13.3937 8.58125L13.7437 12.3875Z" stroke="#6371F1" stroke-width="1.2" stroke-linecap="round" stroke-linejoin="round"/>
<path d="M2.5 5H1.875" stroke="#6371F1" stroke-width="1.2" stroke-linecap="round" stroke-linejoin="round"/>
<path d="M13.125 5H12.5" stroke="#6371F1" stroke-width="1.2" stroke-linecap="round" stroke-linejoin="round"/>
<path d="M7.5 1.875V3.125" stroke="#6371F1" stroke-width="1.2" stroke-linecap="round" stroke-linejoin="round"/>
<path d="M6.5625 3.125H8.4375" stroke="#6371F1" stroke-width="1.2" stroke-linecap="round" stroke-linejoin="round"/>
<path d="M3.75 9.375H5.625" stroke="#6371F1" stroke-width="1.2" stroke-linecap="round" stroke-linejoin="round"/>
<path d="M9.375 9.375H11.25" stroke="#6371F1" stroke-width="1.2" stroke-linecap="round" stroke-linejoin="round"/>
</svg>
