<svg width="126" height="151" viewBox="0 0 126 151" fill="none" xmlns="http://www.w3.org/2000/svg">
<path d="M75.149 5.5567H75.067C73.3207 5.5567 71.597 5.12211 70.0792 4.25882C58.1931 -2.50137 40.6433 -1.71482 32.6805 10.2533C29.379 15.2155 29.0509 22.789 32.864 27.231C33.5405 28.019 33.8913 29.0358 33.9143 30.074L34.2906 47.0046H91.6153L92.1502 22.9395C92.3622 13.4025 84.6887 5.5567 75.149 5.5567V5.5567Z" fill="#8C818F"/>
<path d="M75.1497 5.55668H75.0676C73.3214 5.55668 71.598 5.1221 70.0799 4.25881C62.6717 0.0452686 53.064 -1.23497 44.9478 1.29492C51.1984 0.960015 57.6904 2.42755 63.0372 5.3882C64.555 6.22856 66.2786 6.65167 68.0249 6.65167H68.1069C77.6466 6.65167 85.3198 14.2901 85.1078 23.5755L84.5729 47.0046H91.6157L92.1506 22.9395C92.3629 13.4024 84.6894 5.55668 75.1497 5.55668V5.55668Z" fill="#766D78"/>
<path d="M78.0333 54.8552C77.1224 48.9674 72.0544 44.623 66.0966 44.623H59.8469C53.8888 44.623 48.8208 48.9674 47.9102 54.8552C47.0363 60.5039 43.6613 65.4314 38.7645 68.3797C31.7032 72.6309 26.9795 80.3696 26.9795 89.2127V145.567H98.9643V89.2127C98.9643 80.3696 94.2409 72.6312 87.1793 68.3797C82.2821 65.4314 78.9069 60.5039 78.0333 54.8552Z" fill="#C5BEC6"/>
<path d="M87.1794 68.3797C82.2825 65.4317 78.9073 60.5039 78.0337 54.8552C77.1228 48.9674 72.0548 44.623 66.097 44.623H59.8473C59.1783 44.623 58.5218 44.6807 57.8799 44.7862C62.9549 45.621 67.0406 49.6284 67.8492 54.8552C68.7231 60.5039 72.098 65.4314 76.9949 68.3797C84.0562 72.6309 88.7798 80.3696 88.7798 89.2127V145.567H98.9644V89.2127C98.9644 80.3696 94.241 72.6309 87.1794 68.3797Z" fill="#A59DA7"/>
<path d="M108.725 122.468L94.854 88.3228C92.5147 82.5638 86.9186 78.7969 80.7026 78.7969H45.2392C39.0233 78.7969 33.4272 82.5638 31.0879 88.3228L17.2173 122.468L27.4615 126.63L38.3999 112.354V142.724H87.5416V112.354L98.4801 126.63L108.725 122.468Z" fill="#80B6FC"/>
<path d="M94.8551 88.3228C92.5158 82.5638 86.9197 78.7969 80.7038 78.7969H73.21C79.4259 78.7969 85.022 82.5638 87.3613 88.3225L101.232 122.468L96.7026 124.308L98.4815 126.63L108.726 122.468L94.8551 88.3228Z" fill="#62A4FB"/>
<path d="M81.1445 118.227L101.048 128.152C103.781 129.515 107.101 128.405 108.464 125.671C109.827 122.939 108.717 119.618 105.984 118.256L86.0796 108.33L81.1445 118.227Z" fill="#62A4FB"/>
<path d="M44.7977 118.227L24.8938 128.152C22.161 129.515 18.8408 128.405 17.4779 125.671C16.115 122.939 17.2256 119.618 19.9587 118.256L39.8626 108.33L44.7977 118.227Z" fill="#62A4FB"/>
<path d="M62.9703 97.8799C48.3455 97.8799 36.4888 109.737 36.4888 124.361C36.4888 129.852 38.1592 134.956 41.0205 139.185H53.7334C48.793 136.096 45.5007 130.605 45.5007 124.361C45.5007 114.728 53.3376 106.892 62.9705 106.892C72.6035 106.892 80.4404 114.728 80.4404 124.361C80.4404 130.605 77.1478 136.096 72.2077 139.185H84.9206C87.7819 134.956 89.4523 129.852 89.4523 124.361C89.4517 109.737 77.595 97.8799 62.9703 97.8799V97.8799Z" fill="#C77E67"/>
<path d="M53.688 49.7383V77.6197C53.688 79.56 54.5378 81.403 56.0129 82.6633L57.7583 84.154C60.7596 86.7177 65.1798 86.7177 68.181 84.154L69.9264 82.6633C71.4019 81.403 72.2514 79.56 72.2514 77.6197V49.7383H53.688Z" fill="#FFCDBE"/>
<path d="M72.2528 73.871V49.7383H53.6895V73.8713C59.4914 75.8225 66.4509 75.8225 72.2528 73.871V73.871Z" fill="#EBAE9D"/>
<path d="M89.2381 53.3711H36.6723C33.4368 53.3711 30.814 50.7483 30.814 47.5127C30.814 44.2771 33.4368 41.6543 36.6723 41.6543H89.2381C92.4736 41.6543 95.0964 44.2771 95.0964 47.5127C95.0964 50.748 92.4736 53.3711 89.2381 53.3711Z" fill="#EBAE9D"/>
<path d="M82.4837 58.5571C76.3025 71.7273 49.6061 71.7273 43.4249 58.5571C41.1211 53.6446 41.2081 42.2722 43.189 32.7772C43.6089 30.7639 45.2517 29.2226 47.2958 28.9956C56.5333 27.97 65.4896 24.4021 72.8893 18.7752C73.9546 17.9651 75.4307 17.9733 76.4698 18.8169C76.5283 18.8646 76.5863 18.9125 76.6433 18.961C83.5861 24.8597 86.2789 50.469 82.4837 58.5571V58.5571Z" fill="#FFCDBE"/>
<path d="M54.0998 46.6231C52.8816 46.6231 51.8945 45.636 51.8945 44.4179V43.8039C51.8945 42.5857 52.8816 41.5986 54.0998 41.5986C55.318 41.5986 56.3051 42.5857 56.3051 43.8039V44.4179C56.3051 45.6357 55.318 46.6231 54.0998 46.6231Z" fill="#766D78"/>
<path d="M71.8117 46.6231C70.5935 46.6231 69.6064 45.636 69.6064 44.4179V43.8039C69.6064 42.5857 70.5935 41.5986 71.8117 41.5986C73.0299 41.5986 74.017 42.5857 74.017 43.8039V44.4179C74.017 45.6357 73.0296 46.6231 71.8117 46.6231Z" fill="#766D78"/>
<path d="M62.9532 58.5733C61.1896 58.5733 59.426 58.1925 57.9543 57.431C56.8726 56.8711 56.4497 55.5403 57.0093 54.4589C57.5691 53.3771 58.8997 52.954 59.9814 53.5138C61.6757 54.3906 64.2305 54.3906 65.9248 53.5138C67.0065 52.954 68.3367 53.3771 68.8969 54.4589C69.4564 55.5406 69.0336 56.8711 67.9518 57.431C66.4805 58.1925 64.7169 58.5733 62.9532 58.5733Z" fill="#766D78"/>
<path d="M96.0593 135.905C93.6194 135.905 91.2271 135.169 89.242 133.75C83.9035 129.934 77.4559 127.824 70.7639 127.824H55.1785C48.4866 127.824 42.0389 129.934 36.7004 133.75C34.7154 135.169 32.3231 135.905 29.8832 135.905H10.4006C4.65665 135.905 0 140.562 0 146.306V148.938C0 149.827 0.720388 150.547 1.60926 150.547H124.333C125.221 150.547 125.942 149.827 125.942 148.938V146.306C125.942 140.562 121.285 135.905 115.541 135.905H96.0593Z" fill="#8C818F"/>
<path d="M124.333 143.314H1.60926C1.20908 143.314 0.847706 143.163 0.566313 142.921C0.20112 143.982 0 145.12 0 146.305V148.937C0 149.826 0.720388 150.546 1.60926 150.546H124.333C125.221 150.546 125.942 149.826 125.942 148.937V146.305C125.942 145.12 125.741 143.982 125.376 142.921C125.094 143.163 124.733 143.314 124.333 143.314V143.314Z" fill="#766D78"/>
<path d="M89.9491 112.454L81.6217 103.041C80.6169 101.905 78.8818 101.799 77.746 102.803L76.3258 104.06C73.3466 106.695 73.0679 111.246 75.7033 114.226L78.1259 116.964C80.7613 119.943 85.3127 120.222 88.2916 117.587L89.7118 116.33C90.8476 115.326 90.9538 113.59 89.9491 112.454V112.454Z" fill="#FFCDBE"/>
<path d="M35.9929 112.454L44.3203 103.041C45.3251 101.905 47.0602 101.799 48.196 102.803L49.6162 104.06C52.5954 106.695 52.8742 111.246 50.2387 114.226L47.8161 116.964C45.1807 119.943 40.6293 120.222 37.6504 117.587L36.2302 116.33C35.0944 115.326 34.9882 113.59 35.9929 112.454Z" fill="#FFCDBE"/>
</svg>
