<svg width="210" height="240" viewBox="0 0 210 240" fill="none" xmlns="http://www.w3.org/2000/svg">
<path d="M209.032 236.129C209.032 238.258 207.29 240 205.161 240H3.87096C1.74193 240 0 238.258 0 236.129V151.007C0 148.878 1.74193 147.136 3.87096 147.136H205.161C207.29 147.136 209.032 148.878 209.032 151.007V236.129Z" fill="#ED5565"/>
<path d="M58.065 58.0645C58.065 79.7031 72.8521 97.8967 92.9037 103.045C96.6198 104.013 100.491 104.516 104.517 104.516C108.542 104.516 112.452 104.013 116.168 103.045C136.181 97.8967 150.968 79.7031 150.968 58.0645C150.968 55.8193 150.813 53.6516 150.504 51.4838C149.652 45.4838 147.682 39.8709 144.736 34.8387C136.723 20.9806 121.704 11.6129 104.517 11.6129C87.3295 11.6129 72.3102 20.9806 64.2973 34.8387C61.3515 39.8709 59.3773 45.4838 58.5296 51.4838C58.2199 53.6516 58.065 55.8193 58.065 58.0645ZM46.4521 58.0645C46.4521 26.0129 72.465 0 104.517 0C136.568 0 162.581 26.0129 162.581 58.0645C162.581 90.1547 136.568 116.129 104.517 116.129C72.465 116.129 46.4521 90.1547 46.4521 58.0645Z" fill="#656D78"/>
<path d="M104.516 46.4512C110.942 46.4512 116.129 51.677 116.129 58.0641C116.129 64.4899 110.942 69.677 104.516 69.677C98.0904 69.677 92.9033 64.4899 92.9033 58.0641C92.9033 51.677 98.0904 46.4512 104.516 46.4512Z" fill="#AAB2BD"/>
<path d="M104.518 46.4518C98.0925 46.4518 92.9054 51.6776 92.9054 58.0647C92.9054 64.4905 98.0925 69.6775 104.518 69.6775C110.944 69.6775 116.131 64.4905 116.131 58.0647C116.131 51.6776 110.944 46.4518 104.518 46.4518ZM64.299 34.8389H144.738C147.683 39.8711 149.658 45.484 150.505 51.484C130.647 60.3485 116.716 80.013 116.17 103.045C112.454 104.013 108.544 104.516 104.518 104.516C100.492 104.516 96.6215 104.013 92.9054 103.045C92.3248 80.013 78.3893 60.3485 58.5312 51.484C59.3829 45.484 61.3571 39.8711 64.299 34.8389V34.8389Z" fill="#545C66"/>
<path d="M120.001 224.516C111.447 224.516 104.518 231.445 104.518 240V147.135C104.518 138.58 111.447 131.651 120.001 131.651H197.421V147.135V224.516H120.001Z" fill="#E6E9ED"/>
<path d="M89.0345 131.651C97.5893 131.651 104.518 138.58 104.518 147.135V240C104.518 231.445 97.5893 224.516 89.0345 224.516H11.6152V147.135V131.651H89.0345Z" fill="#F5F7FA"/>
<path d="M65.8093 150.999H30.9784C28.8377 150.999 27.1074 149.268 27.1074 147.128C27.1074 144.987 28.8377 143.257 30.9784 143.257H65.8093C67.95 143.257 69.6803 144.987 69.6803 147.128C69.6803 149.268 67.95 150.999 65.8093 150.999Z" fill="#CCD1D9"/>
<path d="M54.2003 181.982H30.9784C28.8377 181.982 27.1074 180.252 27.1074 178.111C27.1074 175.971 28.8377 174.24 30.9784 174.24H54.2003C56.3409 174.24 58.0713 175.971 58.0713 178.111C58.0713 180.252 56.3409 181.982 54.2003 181.982Z" fill="#CCD1D9"/>
<path d="M85.1615 181.982H69.6854C67.5448 181.982 65.8145 180.252 65.8145 178.111C65.8145 175.971 67.5448 174.24 69.6854 174.24H85.1615C87.3022 174.24 89.0325 175.971 89.0325 178.111C89.0325 180.252 87.3022 181.982 85.1615 181.982Z" fill="#CCD1D9"/>
<path d="M85.1608 166.49H46.4628C44.3221 166.49 42.5918 164.76 42.5918 162.619C42.5918 160.478 44.3221 158.748 46.4628 158.748H85.1608C87.3014 158.748 89.0317 160.478 89.0317 162.619C89.0317 164.76 87.3014 166.49 85.1608 166.49Z" fill="#CCD1D9"/>
<path d="M34.8493 166.49H30.9784C28.8377 166.49 27.1074 164.76 27.1074 162.619C27.1074 160.478 28.8377 158.748 30.9784 158.748H34.8493C36.99 158.748 38.7203 160.478 38.7203 162.619C38.7203 164.76 36.99 166.49 34.8493 166.49Z" fill="#CCD1D9"/>
<path d="M85.1617 150.999H77.4198C75.2791 150.999 73.5488 149.268 73.5488 147.128C73.5488 144.987 75.2791 143.257 77.4198 143.257H85.1617C87.3024 143.257 89.0327 144.987 89.0327 147.128C89.0327 149.268 87.3024 150.999 85.1617 150.999Z" fill="#CCD1D9"/>
<path d="M65.8054 197.473H30.9784C28.8377 197.473 27.1074 195.743 27.1074 193.602C27.1074 191.462 28.8377 189.731 30.9784 189.731H65.8054C67.9461 189.731 69.6764 191.462 69.6764 193.602C69.6764 195.743 67.9461 197.473 65.8054 197.473Z" fill="#CCD1D9"/>
<path d="M85.1636 197.473H77.4178C75.2772 197.473 73.5469 195.743 73.5469 193.602C73.5469 191.462 75.2772 189.731 77.4178 189.731H85.1636C87.3043 189.731 89.0346 191.462 89.0346 193.602C89.0346 195.743 87.3043 197.473 85.1636 197.473Z" fill="#CCD1D9"/>
<path d="M42.5874 212.966H30.9784C28.8377 212.966 27.1074 211.235 27.1074 209.095C27.1074 206.954 28.8377 205.224 30.9784 205.224H42.5874C44.7281 205.224 46.4584 206.954 46.4584 209.095C46.4584 211.235 44.7281 212.966 42.5874 212.966Z" fill="#CCD1D9"/>
<path d="M85.159 212.966H54.1952C52.0545 212.966 50.3242 211.235 50.3242 209.095C50.3242 206.954 52.0545 205.224 54.1952 205.224H85.159C87.2997 205.224 89.03 206.954 89.03 209.095C89.03 211.235 87.2997 212.966 85.159 212.966Z" fill="#CCD1D9"/>
<path d="M178.121 150.968H143.29C141.149 150.968 139.419 149.237 139.419 147.097C139.419 144.956 141.149 143.226 143.29 143.226H178.121C180.261 143.226 181.992 144.956 181.992 147.097C181.992 149.237 180.258 150.968 178.121 150.968Z" fill="#CCD1D9"/>
<path d="M178.119 181.951H151.022C148.882 181.951 147.151 180.221 147.151 178.08C147.151 175.939 148.882 174.209 151.022 174.209H178.119C180.26 174.209 181.99 175.939 181.99 178.08C181.99 180.221 180.256 181.951 178.119 181.951Z" fill="#CCD1D9"/>
<path d="M139.412 181.951H123.935C121.795 181.951 120.064 180.221 120.064 178.08C120.064 175.939 121.795 174.209 123.935 174.209H139.412C141.552 174.209 143.282 175.939 143.282 178.08C143.282 180.221 141.548 181.951 139.412 181.951Z" fill="#CCD1D9"/>
<path d="M162.633 166.459H123.935C121.795 166.459 120.064 164.728 120.064 162.588C120.064 160.447 121.795 158.717 123.935 158.717H162.633C164.774 158.717 166.504 160.447 166.504 162.588C166.504 164.728 164.77 166.459 162.633 166.459Z" fill="#CCD1D9"/>
<path d="M178.118 166.459H174.247C172.106 166.459 170.376 164.728 170.376 162.588C170.376 160.447 172.106 158.717 174.247 158.717H178.118C180.259 158.717 181.989 160.447 181.989 162.588C181.989 164.728 180.255 166.459 178.118 166.459Z" fill="#CCD1D9"/>
<path d="M131.677 150.968H123.935C121.795 150.968 120.064 149.237 120.064 147.097C120.064 144.956 121.795 143.226 123.935 143.226H131.677C133.818 143.226 135.548 144.956 135.548 147.097C135.548 149.237 133.814 150.968 131.677 150.968Z" fill="#CCD1D9"/>
<path d="M178.116 197.442H139.414C137.273 197.442 135.543 195.712 135.543 193.571C135.543 191.431 137.273 189.7 139.414 189.7H178.116C180.256 189.7 181.987 191.431 181.987 193.571C181.987 195.712 180.253 197.442 178.116 197.442Z" fill="#CCD1D9"/>
<path d="M127.806 197.442H123.935C121.795 197.442 120.064 195.712 120.064 193.571C120.064 191.431 121.795 189.7 123.935 189.7H127.806C129.947 189.7 131.677 191.431 131.677 193.571C131.677 195.712 129.943 197.442 127.806 197.442Z" fill="#CCD1D9"/>
<path d="M178.118 212.934H162.634C160.493 212.934 158.763 211.204 158.763 209.063C158.763 206.923 160.493 205.192 162.634 205.192H178.118C180.258 205.192 181.988 206.923 181.988 209.063C181.988 211.204 180.254 212.934 178.118 212.934Z" fill="#CCD1D9"/>
<path d="M151.024 212.934H123.935C121.795 212.934 120.064 211.204 120.064 209.063C120.064 206.923 121.795 205.192 123.935 205.192H151.024C153.165 205.192 154.895 206.923 154.895 209.063C154.895 211.204 153.161 212.934 151.024 212.934Z" fill="#CCD1D9"/>
</svg>
