<svg width="45" height="45" viewBox="0 0 45 45" fill="none" xmlns="http://www.w3.org/2000/svg">
<path d="M22.5 45C34.9264 45 45 34.9264 45 22.5C45 10.0736 34.9264 0 22.5 0C10.0736 0 0 10.0736 0 22.5C0 34.9264 10.0736 45 22.5 45Z" fill="#FFC56E"/>
<path d="M45 22.5C45 20.7342 44.796 19.016 44.4113 17.3674L40.5615 13.5176L4.43848 23.335L9.52146 28.4766L9.18615 33.4424L20.6693 44.9256C21.2732 44.9742 21.8836 45 22.5 45C34.9264 45 45 34.9264 45 22.5Z" fill="#F2A846"/>
<path d="M14.8047 22.3286V33.4426H9.18654V22.3286H14.8047Z" fill="#324A5E"/>
<path d="M35.8145 22.3286V33.4426H30.1963V22.3286H35.8145Z" fill="#213949"/>
<path d="M4.43848 13.5176H40.5615V23.335H4.43848V13.5176Z" fill="#FF637B"/>
<path d="M22.5 13.5176H40.5615V23.335H22.5V13.5176Z" fill="#E03B5A"/>
<path d="M16.2396 13.5176L12.7161 23.335H7.77051L11.2932 13.5176H16.2396Z" fill="white"/>
<path d="M26.7348 13.5176L23.2121 23.335H18.2656L21.7883 13.5176H26.7348Z" fill="white"/>
<path d="M26.7346 13.5176L23.2119 23.335H22.5V13.5176H26.7346Z" fill="#FFF5CA"/>
<path d="M37.2299 13.5176L33.7072 23.335H28.7607L32.2843 13.5176H37.2299Z" fill="#FFF5CA"/>
</svg>
