<svg width="205" height="202" viewBox="0 0 205 202" fill="none" xmlns="http://www.w3.org/2000/svg">
<path d="M201.692 0H76.0477C74.2291 0 72.7412 1.4879 72.7412 3.30644V47.0143V62.8223V82.661V87.6206V95.8867C72.7412 97.7053 74.2291 99.1932 76.0477 99.1932H201.692C203.511 99.1932 204.999 97.7053 204.999 95.8867V3.30644C204.999 1.4879 203.511 0 201.692 0Z" fill="#E6E9ED"/>
<path d="M59.5148 24.7977V29.3275C53.8277 21.9211 50.389 20.5654 46.2891 21.4251L52.9019 8.00098C57.0019 12.3985 59.5148 18.3171 59.5148 24.7977Z" fill="#F6BB42"/>
<path d="M59.5148 29.3282V36.3709C59.5148 45.5958 54.1253 53.5644 46.289 57.2378C43.2801 58.6893 39.9076 59.4862 36.3697 59.4862C32.8318 59.4862 29.4592 58.6927 26.4504 57.2378C18.6141 53.5644 13.2246 45.5958 13.2246 36.3709V26.9145C32.435 29.1298 40.106 22.7153 46.289 21.4258C50.389 20.5661 53.8277 21.9217 59.5148 29.3282V29.3282Z" fill="#EAC6BB"/>
<path d="M49.5879 21.3262V36.3705C49.5879 45.5954 44.1984 53.564 36.3621 57.2374C34.7982 57.9946 33.135 58.5567 31.4058 58.9402C33.0094 59.2907 34.6692 59.4858 36.372 59.4858C39.9099 59.4858 43.2825 58.6922 46.2914 57.2374C54.1276 53.5673 59.5171 45.5954 59.5171 36.3705V29.3278C55.3973 23.9581 52.4546 21.7957 49.5879 21.3262V21.3262Z" fill="#D3B1A9"/>
<path d="M13.2268 26.9144C12.1688 26.7822 11.0777 26.6499 9.92041 26.4515V24.7983C9.92041 11.1096 21.03 0 34.7187 0C41.9267 0 48.4074 3.07499 52.9041 8.00158L46.2912 21.4257C40.1082 22.7152 32.4373 29.1297 13.2268 26.9144V26.9144Z" fill="#FFCE54"/>
<path d="M46.2898 57.2674V66.1287L42.9834 69.4351L36.3705 66.1287L29.7576 69.4351L26.4512 66.1287V57.2674V57.2344C29.46 58.6859 32.8326 59.4828 36.3705 59.4828C39.9084 59.4828 43.2809 58.6892 46.2898 57.2344V57.2674Z" fill="#87BCF4"/>
<path d="M76.0481 66.1289C81.5368 66.1289 85.9674 61.6982 85.9674 56.2096C85.9674 52.5725 88.9432 49.5967 92.5803 49.5967C96.2174 49.5967 99.1932 52.5725 99.1932 56.2096C99.1932 69.0055 88.844 79.3546 76.0481 79.3546H72.7417H59.5159V99.1933H13.2258H0V79.3546C0 72.0474 5.91853 66.1289 13.2258 66.1289H26.4515L29.758 69.4353L36.3708 66.1289L42.9837 69.4353L46.2901 66.1289H72.7417H76.0481Z" fill="#5D9CEC"/>
<path d="M185.162 172.993V181.851H165.324V172.993V172.96C168.333 174.411 171.705 175.208 175.243 175.208C178.814 175.208 182.154 174.415 185.162 172.96V172.993Z" fill="#CCD1D9"/>
<path d="M188.468 115.726V125.645C193.957 125.645 198.387 130.076 198.387 135.564V152.096C198.387 152.096 191.774 165.322 175.242 165.322C158.71 165.322 152.097 152.096 152.097 152.096V135.564C152.097 124.587 160.958 115.726 171.936 115.726H188.468Z" fill="#965353"/>
<path d="M205 201.693H145.484V191.77C145.484 186.281 149.915 181.851 155.403 181.851H165.323H185.161H195.08C200.569 181.851 205 186.281 205 191.77V201.693Z" fill="#E6E9ED"/>
<path d="M175.242 175.208C171.704 175.208 168.332 174.415 165.323 172.96C157.487 169.29 152.097 161.318 152.097 152.093C152.097 152.093 158.71 165.319 175.242 165.319C191.774 165.319 198.387 152.093 198.387 152.093C198.387 161.318 192.998 169.286 185.162 172.96C182.153 174.415 178.813 175.208 175.242 175.208Z" fill="#EAC6BB"/>
<path d="M132.256 142.309V175.241H112.418H92.5789H72.7402V142.309C72.7402 125.876 86.0652 112.551 102.498 112.551C118.931 112.551 132.256 125.876 132.256 142.309Z" fill="#FC6E51"/>
<path d="M102.498 112.551C100.802 112.551 99.1519 112.726 97.5317 113C111.597 115.368 122.327 127.569 122.327 142.309V175.241H132.256V142.309C132.256 125.876 118.931 112.551 102.498 112.551V112.551Z" fill="#E9573F"/>
<path d="M112.419 175.241V181.851L102.499 185.157L92.5801 181.851V175.241H112.419Z" fill="#EAC6BB"/>
<path d="M132.256 191.77V201.693H72.7402V191.77C72.7402 186.281 77.1709 181.851 82.6596 181.851H92.5789L102.498 185.157L112.418 181.851H122.337C127.826 181.851 132.256 186.281 132.256 191.77Z" fill="#A0D468"/>
<path d="M59.5159 191.77V201.693H0V191.77C0 186.281 4.43063 181.851 9.91932 181.851H19.8386H39.6773H49.5966C55.0853 181.851 59.5159 186.281 59.5159 191.77Z" fill="#E6E9ED"/>
<path d="M49.5967 181.851H39.6774H39.6675C45.1562 181.851 49.5868 186.281 49.5868 191.77V201.693H59.516V191.77C59.516 186.281 55.0854 181.851 49.5967 181.851Z" fill="#CCD1D9"/>
<path d="M122.349 181.851H112.43H112.42C117.909 181.851 122.339 186.281 122.339 191.77V201.693H132.268V191.77C132.268 186.281 127.838 181.851 122.349 181.851Z" fill="#8CC152"/>
<path d="M195.081 181.851H185.161H185.151C190.64 181.851 195.071 186.281 195.071 191.77V201.693H205V191.77C205 186.281 200.569 181.851 195.081 181.851Z" fill="#CCD1D9"/>
<path d="M39.6785 172.993V181.851H19.8398V172.993V172.96C22.8487 174.411 26.2213 175.208 29.7592 175.208C33.3301 175.208 36.6696 174.415 39.6785 172.96V172.993Z" fill="#CCD1D9"/>
<path d="M29.7598 175.209C26.2219 175.209 22.8494 174.415 19.8405 172.96C12.0042 169.29 6.61475 161.322 6.61475 152.097C6.61475 152.097 13.2276 165.322 29.7598 165.322C46.292 165.322 52.9049 152.097 52.9049 152.097C52.9049 161.322 47.5154 169.29 39.6791 172.964C36.6703 174.415 33.3308 175.209 29.7598 175.209Z" fill="#EAC6BB"/>
<path d="M52.9049 138.871V152.096C52.9049 152.096 46.292 165.322 29.7598 165.322C13.2276 165.322 6.61475 152.096 6.61475 152.096V138.871C6.61475 126.075 16.9639 115.726 29.7598 115.726C42.5557 115.726 52.9049 126.075 52.9049 138.871Z" fill="#656D78"/>
<path d="M39.9702 163.394C37.6293 167.547 34.0881 170.926 29.7467 172.963C28.1828 173.72 26.5263 174.286 24.8003 174.669C24.8697 174.682 24.9458 174.689 25.0152 174.702C25.7459 174.858 26.4833 174.987 27.2371 175.069C28.0637 175.158 28.9036 175.208 29.7566 175.208C33.3276 175.208 36.6671 174.415 39.676 172.96C47.5122 169.29 52.9017 161.318 52.9017 152.093C52.9017 152.096 49.0662 159.731 39.9702 163.394V163.394Z" fill="#D3B1A9"/>
<path d="M185.454 163.395C183.113 167.548 179.572 170.927 175.231 172.964C173.667 173.721 172.01 174.286 170.284 174.67C170.354 174.683 170.43 174.69 170.499 174.703C171.23 174.858 171.967 174.987 172.721 175.07C173.548 175.159 174.387 175.212 175.241 175.212C178.811 175.212 182.151 174.418 185.16 172.964C192.996 169.293 198.386 161.322 198.386 152.097C198.386 152.097 194.55 159.731 185.454 163.395V163.395Z" fill="#D3B1A9"/>
<path d="M29.7588 115.726C28.909 115.726 28.0692 115.778 27.2426 115.868C27.226 115.868 27.2095 115.874 27.193 115.874C26.3796 115.967 25.5827 116.099 24.7925 116.271C35.1945 118.543 42.9746 127.781 42.9746 138.871V152.096C42.9746 156.21 41.8537 160.045 39.9723 163.395C49.0684 159.731 52.9038 152.096 52.9038 152.096V138.871C52.9038 126.075 42.5547 115.726 29.7588 115.726Z" fill="#545C66"/>
<path d="M185.463 163.394C194.559 159.73 198.394 152.096 198.394 152.096H188.465C188.465 156.209 187.344 160.044 185.463 163.394Z" fill="#844747"/>
<path d="M188.469 125.645V115.726H178.549V125.645C178.549 131.12 182.99 135.564 188.469 135.564V152.096H198.388V135.564C198.388 130.076 193.957 125.645 188.469 125.645Z" fill="#844747"/>
<path d="M152.096 85.9674H125.645C123.816 85.9674 122.338 84.4894 122.338 82.6609C122.338 80.8325 123.816 79.3545 125.645 79.3545H152.096C153.925 79.3545 155.403 80.8325 155.403 82.6609C155.403 84.4894 153.925 85.9674 152.096 85.9674Z" fill="#CCD1D9"/>
<path d="M165.322 76.0484H112.419C110.59 76.0484 109.112 74.5704 109.112 72.742C109.112 70.9135 110.59 69.4355 112.419 69.4355H165.322C167.15 69.4355 168.628 70.9135 168.628 72.742C168.628 74.5704 167.15 76.0484 165.322 76.0484Z" fill="#CCD1D9"/>
<path d="M128.955 46.29C130.773 46.29 132.261 47.7746 132.261 49.5965V56.2094C132.261 58.0279 130.773 59.5158 128.955 59.5158H119.032C117.213 59.5158 115.726 58.0279 115.726 56.2094V49.5965C115.726 47.7746 117.213 46.29 119.032 46.29H128.955Z" fill="#656D78"/>
<path d="M162.017 56.2094C162.017 58.0279 160.529 59.5158 158.711 59.5158H148.788C146.969 59.5158 145.481 58.0279 145.481 56.2094V49.5965C145.481 47.7746 146.969 46.29 148.788 46.29H158.711C160.529 46.29 162.017 47.7746 162.017 49.5965V56.2094Z" fill="#656D78"/>
<path d="M158.71 23.1451V36.3709H119.033V23.1451C119.033 19.508 122.009 16.5322 125.646 16.5322H152.097C155.734 16.5322 158.71 19.508 158.71 23.1451Z" fill="#5D9CEC"/>
<path d="M162.016 36.3711V49.5969H148.79H128.951H115.726V36.3711H119.032H158.709H162.016Z" fill="#ED5565"/>
<path d="M158.722 26.4513C156.893 26.4513 155.415 24.9701 155.415 23.1449C155.415 21.3231 153.934 19.8385 152.109 19.8385H125.647C123.822 19.8385 122.341 21.3231 122.341 23.1449C122.341 24.9701 120.863 26.4513 119.034 26.4513C117.206 26.4513 115.728 24.9701 115.728 23.1449C115.728 17.6761 120.178 13.2256 125.647 13.2256H152.109C157.578 13.2256 162.028 17.6761 162.028 23.1449C162.028 24.9701 160.55 26.4513 158.722 26.4513Z" fill="#DA4453"/>
<path d="M119.034 39.6841C117.206 39.6841 115.728 38.2061 115.728 36.3777V23.1453C115.728 21.3202 117.206 19.8389 119.034 19.8389C120.863 19.8389 122.341 21.3202 122.341 23.1453V36.3777C122.341 38.2061 120.863 39.6841 119.034 39.6841V39.6841Z" fill="#DA4453"/>
<path d="M158.721 39.6841C156.893 39.6841 155.415 38.2061 155.415 36.3777V23.1453C155.415 21.3202 156.893 19.8389 158.721 19.8389C160.549 19.8389 162.027 21.3202 162.027 23.1453V36.3777C162.027 38.2061 160.549 39.6841 158.721 39.6841V39.6841Z" fill="#DA4453"/>
<path d="M125.746 46.2965C123.918 46.2965 122.423 44.8185 122.423 42.99C122.423 41.1616 123.885 39.6836 125.71 39.6836H125.746C127.571 39.6836 129.053 41.1616 129.053 42.99C129.053 44.8185 127.571 46.2965 125.746 46.2965Z" fill="#E6E9ED"/>
<path d="M152.21 46.2965C150.381 46.2965 148.887 44.8185 148.887 42.99C148.887 41.1616 150.348 39.6836 152.173 39.6836H152.21C154.035 39.6836 155.516 41.1616 155.516 42.99C155.516 44.8185 154.035 46.2965 152.21 46.2965Z" fill="#E6E9ED"/>
<path d="M162.025 52.9099H115.728C113.9 52.9099 112.422 51.4319 112.422 49.6035V36.3777C112.422 34.5493 113.9 33.0713 115.728 33.0713H162.025C163.854 33.0713 165.332 34.5493 165.332 36.3777V49.6035C165.332 51.4319 163.854 52.9099 162.025 52.9099ZM119.035 46.297H158.719V39.6842H119.035V46.297Z" fill="#ED5565"/>
<path d="M16.533 79.3545C14.7045 79.3545 13.2266 80.8325 13.2266 82.6609V99.1931H16.533V79.3545Z" fill="#4A89DC"/>
</svg>
