<svg width="15" height="15" viewBox="0 0 15 15" fill="none" xmlns="http://www.w3.org/2000/svg">
<path d="M8.05626 3.6748H3.19374C2.12499 3.6748 1.25 4.5498 1.25 5.61855V12.7186C1.25 13.6248 1.9 14.0123 2.69375 13.5685L5.14999 12.1998C5.41249 12.056 5.8375 12.056 6.09375 12.1998L8.55 13.5685C9.34375 14.0123 9.99374 13.6248 9.99374 12.7186V5.61855C9.99999 4.5498 9.12501 3.6748 8.05626 3.6748Z" stroke="white" stroke-width="1.5" stroke-linecap="round" stroke-linejoin="round"/>
<path d="M10 5.61855V12.7186C10 13.6248 9.35 14.006 8.55625 13.5685L6.10001 12.1998C5.83751 12.056 5.41249 12.056 5.14999 12.1998L2.69375 13.5685C1.9 14.006 1.25 13.6248 1.25 12.7186V5.61855C1.25 4.5498 2.12499 3.6748 3.19374 3.6748H8.05626C9.12501 3.6748 10 4.5498 10 5.61855Z" stroke="white" stroke-width="1.5" stroke-linecap="round" stroke-linejoin="round"/>
<path d="M13.75 3.19374V10.2938C13.75 11.2 13.1 11.5812 12.3063 11.1437L10 9.85624V5.61874C10 4.54999 9.12501 3.675 8.05626 3.675H5V3.19374C5 2.12499 5.87499 1.25 6.94374 1.25H11.8063C12.875 1.25 13.75 2.12499 13.75 3.19374Z" stroke="white" stroke-width="1.5" stroke-linecap="round" stroke-linejoin="round"/>
</svg>
