<svg width="62" height="62" viewBox="0 0 62 62" fill="none" xmlns="http://www.w3.org/2000/svg">
<path d="M56.8337 43.245V12.0642C56.8337 8.96421 54.302 6.66504 51.2278 6.92337H51.0728C45.6478 7.38837 37.407 10.1525 32.8087 13.0459L32.3695 13.33C31.6203 13.795 30.3803 13.795 29.6312 13.33L28.9853 12.9425C24.387 10.075 16.172 7.33671 10.747 6.89754C7.67283 6.63921 5.16699 8.96421 5.16699 12.0384V43.245C5.16699 45.725 7.18199 48.05 9.66199 48.36L10.4112 48.4634C16.017 49.2125 24.6712 52.0542 29.6312 54.7667L29.7345 54.8184C30.432 55.2059 31.5428 55.2059 32.2145 54.8184C37.1745 52.08 45.8545 49.2125 51.4862 48.4634L52.3387 48.36C54.8187 48.05 56.8337 45.725 56.8337 43.245Z" stroke="white" stroke-width="3" stroke-linecap="round" stroke-linejoin="round"/>
<path d="M31 14.1831V52.9331" stroke="white" stroke-width="3" stroke-linecap="round" stroke-linejoin="round"/>
<path d="M20.0205 21.9331H14.208" stroke="white" stroke-width="3" stroke-linecap="round" stroke-linejoin="round"/>
<path d="M21.958 29.6831H14.208" stroke="white" stroke-width="3" stroke-linecap="round" stroke-linejoin="round"/>
</svg>
