<svg width="45" height="45" viewBox="0 0 45 45" fill="none" xmlns="http://www.w3.org/2000/svg">
<path d="M22.5 45C34.9264 45 45 34.9264 45 22.5C45 10.0736 34.9264 0 22.5 0C10.0736 0 0 10.0736 0 22.5C0 34.9264 10.0736 45 22.5 45Z" fill="#FFC56E"/>
<path d="M11.9615 31.4101L5.46387 33.8985L15.4312 43.8658C17.6542 44.6008 20.0301 44.9999 22.4995 44.9999C28.2129 44.9999 33.4279 42.8692 37.3962 39.3605L16.5132 18.4775L11.9615 31.4101Z" fill="#F2A846"/>
<path d="M43.866 15.4317L33.8987 5.46436L29.1664 11.9253L26.1162 8.87513L22.8127 15.0997L24.672 16.959L21.7119 20.2887L39.1053 37.6821C42.7661 33.6801 45.0001 28.3512 45.0001 22.5C45.0001 20.0306 44.601 17.6547 43.866 15.4317V15.4317Z" fill="#F2A846"/>
<path d="M24.7112 23.2881L21.7116 20.2885C21.1196 19.6965 21.1196 18.7364 21.7116 18.1444L24.5245 15.3315L29.6682 20.4753L26.8553 23.2881C26.2632 23.8802 25.3033 23.8802 24.7112 23.2881Z" fill="white"/>
<path d="M29.6685 20.4749L26.8557 23.2878C26.2634 23.8801 25.3039 23.8801 24.7116 23.2878L23.2119 21.7882L27.0968 17.9033L29.6685 20.4749Z" fill="#FFF5CA"/>
<path d="M16.3197 35.7679L9.23195 28.6801C8.42529 27.8736 8.42529 26.5658 9.23195 25.7592L16.5136 18.4775L26.5223 28.4863L19.2407 35.7679C18.4341 36.5746 17.1264 36.5746 16.3197 35.7679V35.7679Z" fill="#324A5E"/>
<path d="M26.5229 28.4861L19.241 35.768C18.4343 36.5746 17.1267 36.5746 16.32 35.768L12.7764 32.2243L21.5188 23.4819L26.5229 28.4861Z" fill="#213949"/>
<path d="M29.9007 22.1873L22.8129 15.0995C22.0064 14.2929 22.0064 12.9851 22.8129 12.1785L26.1165 8.875L36.1252 18.8837L32.8217 22.1873C32.0151 22.9938 30.7074 22.9938 29.9007 22.1873V22.1873Z" fill="#324A5E"/>
<path d="M36.1249 18.8835L32.8211 22.1873C32.0144 22.994 30.7068 22.994 29.9001 22.1873L26.3564 18.6437L31.1207 13.8794L36.1249 18.8835Z" fill="#213949"/>
<path d="M33.8965 5.46045L39.5328 11.0967L31.5553 19.0742L25.9191 13.4379L33.8965 5.46045Z" fill="#576770"/>
<path d="M28.7344 16.2637L36.7117 8.28631L39.5297 11.1043L31.5524 19.0817L28.7344 16.2637Z" fill="#324A5E"/>
<path d="M12.3887 26.9727L18.025 32.6089L11.1041 39.5298L5.46779 33.8935L12.3887 26.9727Z" fill="#576770"/>
<path d="M8.2793 36.7139L15.2003 29.7929L18.0183 32.6109L11.0973 39.5319L8.2793 36.7139Z" fill="#324A5E"/>
<path d="M16.7041 22.9507L22.0452 28.2918L20.0553 30.2817L14.7142 24.9406L16.7041 22.9507Z" fill="#576770"/>
<path d="M17.3799 27.6152L19.3696 25.6256L22.0403 28.2963L20.0506 30.286L17.3799 27.6152Z" fill="#324A5E"/>
</svg>
