<svg width="45" height="45" viewBox="0 0 45 45" fill="none" xmlns="http://www.w3.org/2000/svg">
<path d="M22.5 45C34.9264 45 45 34.9264 45 22.5C45 10.0736 34.9264 0 22.5 0C10.0736 0 0 10.0736 0 22.5C0 34.9264 10.0736 45 22.5 45Z" fill="#4BB9EC"/>
<path d="M45.0003 22.4998C45.0003 21.6581 44.9526 20.8276 44.8625 20.0099L42.4796 17.627L17.5894 18.0174L14.7946 15.2173L6.53346 29.6724H4.64697L3.43848 31.1885L16.4169 44.1669C18.3519 44.7091 20.392 44.9998 22.5003 44.9998C34.9267 44.9998 45.0003 34.9262 45.0003 22.4998Z" fill="#0095FF"/>
<path d="M42.4793 17.627V21.626H38.083L36.3647 21.4561L34.505 21.626H29.3818L27.7002 21.4598L25.8038 21.626H20.6815L19.1235 21.4817L17.1026 21.626H14.0537V17.627H19.6084L21.2842 17.8269L23.1873 17.627H28.3096L29.9414 17.9148L31.8876 17.627H37.0107L38.6133 17.8855L40.5888 17.627H42.4793Z" fill="white"/>
<path d="M42.4793 17.6274V21.6265H38.083L36.3647 21.456L34.505 21.6265H29.3818L28.8457 21.5737V17.7215L29.9417 17.9148L31.8876 17.6274H37.0107L38.613 17.8858L40.5888 17.6274H42.4793Z" fill="#FFF5CA"/>
<path d="M5.3252 15.2173H14.7948V28.8723H5.3252V15.2173Z" fill="#FF637B"/>
<path d="M10.0605 15.2173H14.7952V28.872H10.0605V15.2173Z" fill="#E03B5A"/>
<path d="M3.43848 28.1562H16.6811V31.1885H3.43848V28.1562Z" fill="#576770"/>
<path d="M10.0605 28.1567H16.6813V31.189H10.0605V28.1567Z" fill="#324A5E"/>
<path d="M23.1872 17.627L20.6814 21.626H17.1025L19.6083 17.627H23.1872Z" fill="#FFC56E"/>
<path d="M31.8875 17.627L29.3817 21.626H25.8037L28.3095 17.627H31.8875Z" fill="#FFC56E"/>
<path d="M31.8876 17.627L29.3818 21.626H28.8457V17.627H31.8876Z" fill="#F2A846"/>
<path d="M40.5887 17.627L38.0829 21.626H34.5049L37.0106 17.627H40.5887Z" fill="#F2A846"/>
</svg>
