<svg width="45" height="45" viewBox="0 0 45 45" fill="none" xmlns="http://www.w3.org/2000/svg">
<path d="M22.5 45C34.9264 45 45 34.9264 45 22.5C45 10.0736 34.9264 0 22.5 0C10.0736 0 0 10.0736 0 22.5C0 34.9264 10.0736 45 22.5 45Z" fill="#4BB9EC"/>
<path d="M44.9998 22.5002C44.9998 20.8571 44.822 19.2557 44.4875 17.7127L32.9663 6.19141L12.6494 39.4251L17.7123 44.488C19.2553 44.8224 20.8566 45.0002 22.4998 45.0002C34.9262 45.0002 44.9998 34.9266 44.9998 22.5002V22.5002Z" fill="#0095FF"/>
<path d="M30.1413 40.1909H29.7802L22.5003 39.3455L15.2203 40.1909H14.8592C12.8838 40.1909 11.2676 38.5747 11.2676 36.5992V8.40024C11.2676 6.42481 12.8838 4.80859 14.8592 4.80859H15.2203L22.5003 5.50021L29.7802 4.80859H30.1413C32.1167 4.80859 33.733 6.42481 33.733 8.40024V36.5992C33.733 38.5747 32.1167 40.1909 30.1413 40.1909V40.1909Z" fill="#324A5E"/>
<path d="M15.2207 4.80859H29.7808V40.1909H15.2207V4.80859Z" fill="#576770"/>
<path d="M33.7324 8.40068V36.5989C33.7324 38.5747 32.1161 40.191 30.1412 40.191H29.78L22.5 39.3455V5.50029L29.78 4.80859H30.1412C32.1161 4.80859 33.7324 6.4249 33.7324 8.40068V8.40068Z" fill="#213949"/>
<path d="M22.5 4.80859H29.78V40.191H22.5V4.80859Z" fill="#324A5E"/>
<path d="M26.2263 12.7916C26.5603 10.7309 25.1606 8.78964 23.1 8.45559C21.0393 8.12155 19.0981 9.52123 18.764 11.5819C18.43 13.6425 19.8297 15.5838 21.8903 15.9178C23.9509 16.2519 25.8922 14.8522 26.2263 12.7916Z" fill="#FF637B"/>
<path d="M26.2802 12.1864C26.2802 14.2747 24.5874 15.9666 22.5 15.9666V8.40625C24.5874 8.40625 26.2802 10.099 26.2802 12.1864Z" fill="#E03B5A"/>
<path d="M22.5 26.2798C24.5878 26.2798 26.2803 24.5873 26.2803 22.4995C26.2803 20.4117 24.5878 18.7192 22.5 18.7192C20.4122 18.7192 18.7197 20.4117 18.7197 22.4995C18.7197 24.5873 20.4122 26.2798 22.5 26.2798Z" fill="#FFC56E"/>
<path d="M26.2802 22.4999C26.2802 24.5873 24.5874 26.2801 22.5 26.2801V18.7197C24.5874 18.7197 26.2802 20.4125 26.2802 22.4999Z" fill="#F2A846"/>
<path d="M23.9609 36.3022C25.89 35.5026 26.8057 33.2906 26.006 31.3614C25.2064 29.4323 22.9943 28.5167 21.0652 29.3163C19.1361 30.1159 18.2205 32.328 19.0201 34.2571C19.8197 36.1862 22.0318 37.1019 23.9609 36.3022Z" fill="#7FE881"/>
<path d="M26.2802 32.8129C26.2802 34.9003 24.5874 36.5931 22.5 36.5931V29.0327C24.5874 29.0327 26.2802 30.7246 26.2802 32.8129Z" fill="#5BC980"/>
</svg>
