<svg width="45" height="44" viewBox="0 0 45 44" fill="none" xmlns="http://www.w3.org/2000/svg">
<path d="M22.5 43.125C34.9264 43.125 45 33.4711 45 21.5625C45 9.65386 34.9264 0 22.5 0C10.0736 0 0 9.65386 0 21.5625C0 33.4711 10.0736 43.125 22.5 43.125Z" fill="#7FE881"/>
<path d="M44.9925 22.1272L27.51 5.37305L9.2207 35.4308L16.4167 42.3269C18.3517 42.8465 20.392 43.1251 22.5002 43.1251C34.7296 43.1251 44.6801 33.7749 44.9925 22.1272V22.1272Z" fill="#5BC980"/>
<path d="M32.1232 29.1238H12.877L14.1004 22.826L15.7325 20.7835L14.894 18.741L15.998 13.0555L17.6301 11.013L16.7916 8.97045L17.4903 5.37305H27.5099L28.2086 8.97045L27.3927 11.013L29.0022 13.0555L30.1062 18.741L29.2413 20.5317L30.8998 22.826L32.1232 29.1238Z" fill="#E03B5A"/>
<path d="M32.1231 29.1238H22.5V5.37305H27.5098L28.2085 8.97045L27.3929 11.013L29.0021 13.0555L30.1061 18.741L29.2412 20.5317L30.8997 22.826L31.9658 28.3135L32.1231 29.1238Z" fill="#CE1B42"/>
<path d="M9.2207 28.3135H35.7797V35.4305H9.2207V28.3135Z" fill="#FF637B"/>
<path d="M22.5 28.3135H35.7794V35.4308H22.5V28.3135Z" fill="#E03B5A"/>
<path d="M29.0023 13.0553H15.998L16.7917 8.97021H28.2087L29.0023 13.0553Z" fill="white"/>
<path d="M29.0021 13.0553H22.5V8.97021H28.2085L29.0021 13.0553Z" fill="#FFF5CA"/>
<path d="M30.9 22.8258H14.1006L14.8942 18.7407H30.1064L30.9 22.8258Z" fill="white"/>
<path d="M30.8997 22.8258H22.5V18.7407H30.1061L30.8997 22.8258Z" fill="#FFF5CA"/>
</svg>
