<svg width="45" height="45" viewBox="0 0 45 45" fill="none" xmlns="http://www.w3.org/2000/svg">
<path d="M22.5 45C34.9264 45 45 34.9264 45 22.5C45 10.0736 34.9264 0 22.5 0C10.0736 0 0 10.0736 0 22.5C0 34.9264 10.0736 45 22.5 45Z" fill="#FFC56E"/>
<path d="M45.0003 22.5C45.0003 21.6422 44.9507 20.7961 44.8572 19.9632L30.944 7.27121L24.2758 6.70888C13.4826 5.79877 4.8207 15.4754 6.91618 26.1023L8.14973 32.3578L19.9635 44.8569C20.7964 44.9504 21.6425 45 22.5003 45C34.9267 45 45.0003 34.9264 45.0003 22.5V22.5Z" fill="#F2A846"/>
<path d="M39.3875 24.669C36.6814 21.9736 29.8496 19.1089 22.519 19.1089C15.1235 19.1089 8.28911 21.9928 5.61328 24.7064L8.29087 27.5303C9.88784 25.9108 14.6977 23.5933 20.5229 23.1421V37.9392H24.4779V23.1401C30.2764 23.5858 35.111 25.9006 36.7346 27.5176L39.3875 24.669Z" fill="#576770"/>
<path d="M39.3873 24.6688L36.7339 27.5174C36.4043 27.1887 35.942 26.831 35.3654 26.4662C34.0576 25.6392 32.1645 24.7743 29.9057 24.1239C28.2612 23.6502 26.4234 23.2898 24.4775 23.1404V37.9395H22.5V19.1089H22.5185C24.9996 19.1089 27.4236 19.4367 29.6499 19.9764C32.0388 20.5538 34.2009 21.3738 35.9604 22.2923C37.4054 23.0455 38.5796 23.8646 39.3873 24.6688V24.6688Z" fill="#324A5E"/>
<path d="M22.5 39.9175C12.8962 39.9175 5.08301 32.1043 5.08301 22.5005C5.08301 12.8967 12.8962 5.0835 22.5 5.0835C32.1038 5.0835 39.917 12.8967 39.917 22.5005C39.917 32.1043 32.1038 39.9175 22.5 39.9175ZM22.5 9.03866C15.0771 9.03866 9.03809 15.0776 9.03809 22.5006C9.03809 29.9236 15.0771 35.9625 22.5 35.9625C29.923 35.9625 35.962 29.9235 35.962 22.5005C35.962 15.0775 29.923 9.03866 22.5 9.03866V9.03866Z" fill="#324A5E"/>
<path d="M22.5 5.08252V9.0376C29.8538 9.0376 35.8497 14.9649 35.9604 22.2924C35.9613 22.3618 35.9622 22.4304 35.9622 22.4998C35.9622 23.8797 35.7539 25.2121 35.3654 26.4663C33.8581 31.3486 29.6402 35.0541 24.4775 35.817C23.8315 35.9128 23.1715 35.962 22.5 35.962V39.9171C32.1038 39.9171 39.9173 32.1036 39.9173 22.4998C39.9173 12.896 32.1038 5.08252 22.5 5.08252V5.08252Z" fill="#213949"/>
<path d="M22.5003 30.0802C26.6868 30.0802 30.0807 26.6864 30.0807 22.4998C30.0807 18.3133 26.6868 14.9194 22.5003 14.9194C18.3138 14.9194 14.9199 18.3133 14.9199 22.4998C14.9199 26.6864 18.3138 30.0802 22.5003 30.0802Z" fill="#324A5E"/>
<path d="M30.0806 22.5C30.0806 23.0572 30.0208 23.6013 29.9057 24.1242C29.3027 26.8884 27.1907 29.0883 24.4775 29.8195C23.8474 29.99 23.1847 30.0806 22.5 30.0806V14.9194C25.8012 14.9194 28.6102 17.0306 29.6499 19.9767C29.9294 20.7659 30.0806 21.6149 30.0806 22.5V22.5Z" fill="#213949"/>
</svg>
