<svg width="45" height="45" viewBox="0 0 45 45" fill="none" xmlns="http://www.w3.org/2000/svg">
<path d="M22.5 45C34.9264 45 45 34.9264 45 22.5C45 10.0736 34.9264 0 22.5 0C10.0736 0 0 10.0736 0 22.5C0 34.9264 10.0736 45 22.5 45Z" fill="#4BB9EC"/>
<path d="M44.961 23.8189L37.9053 16.7632L18.8027 39.9442L23.8192 44.9606C35.1951 44.3029 44.3033 35.1948 44.961 23.8189V23.8189Z" fill="#0095FF"/>
<path d="M38.4196 25.2654L25.2649 38.4201C23.7439 39.9411 21.255 39.9411 19.7339 38.4201L6.57925 25.2654C5.05822 23.7443 5.05822 21.2555 6.57925 19.7344L19.7339 6.57974C21.255 5.05871 23.7439 5.05871 25.2649 6.57974L38.4196 19.7344C39.9406 21.2555 39.9406 23.7443 38.4196 25.2654Z" fill="#FFE767"/>
<path d="M38.4205 25.2657L25.2659 38.4203C24.5057 39.1806 23.5028 39.5611 22.5 39.5611V5.43848C23.5028 5.43848 24.5057 5.81904 25.2659 6.5793L38.4205 19.7339C39.941 21.2553 39.941 23.7443 38.4205 25.2657V25.2657Z" fill="#FFC100"/>
<path d="M22.4996 41.4733C21.1605 41.4733 19.8213 40.9636 18.8019 39.9441L5.05553 26.1977C3.01665 24.1588 3.01665 20.8413 5.05553 18.8023L18.8019 5.05595C20.8409 3.01716 24.1585 3.01716 26.1973 5.05595L39.9436 18.8023C41.9825 20.8412 41.9825 24.1587 39.9436 26.1977L26.1973 39.9441C25.1779 40.9636 23.8387 41.4733 22.4996 41.4733ZM22.4996 6.16223C21.8356 6.16223 21.1719 6.41492 20.6663 6.92038L6.91996 20.6668C6.43331 21.1535 6.16533 21.8045 6.16533 22.5C6.16533 23.1956 6.43331 23.8466 6.91996 24.3333L20.6663 38.0796C21.6772 39.0904 23.3218 39.0904 24.3328 38.0796L38.0792 24.3333C38.5658 23.8466 38.8338 23.1956 38.8338 22.5C38.8338 21.8045 38.5658 21.1535 38.0792 20.6668L24.3328 6.92038C23.8275 6.41501 23.1635 6.16223 22.4996 6.16223V6.16223Z" fill="#324A5E"/>
<path d="M39.9437 18.8022L26.1976 5.05615C25.178 4.03662 23.8395 3.52686 22.5 3.52686V6.16182C23.1636 6.16182 23.828 6.41494 24.3334 6.92031L38.0795 20.6664C38.5664 21.1533 38.8345 21.8046 38.8345 22.4998C38.8345 23.195 38.5664 23.8463 38.0795 24.3332L24.3334 38.0793C23.828 38.5847 23.1645 38.8369 22.5 38.8369V41.4728C23.8395 41.4728 25.178 40.963 26.1976 39.9435L39.9437 26.1974C41.9827 24.1583 41.9827 20.8413 39.9437 18.8022V18.8022Z" fill="#213949"/>
<path d="M23.3861 21.6335C23.3861 20.8121 23.6025 20.504 24.0337 19.8899C24.2801 19.5388 24.5814 19.1071 24.8276 18.5597H27.4402L22.4997 9.8584L17.5596 18.5597H20.698C20.2706 19.2689 19.8706 20.216 19.8706 21.6335C19.8706 23.566 20.6139 24.6246 21.1566 25.3975C21.5878 26.0116 21.8042 26.3199 21.8042 27.1414C21.8042 27.9629 21.5878 28.2711 21.1566 28.8853C20.6139 29.6583 19.8706 30.7169 19.8706 32.6493H23.3862C23.3862 31.8278 23.6027 31.5196 24.0338 30.9054C24.5765 30.1325 25.3198 29.0738 25.3198 27.1414C25.3198 25.209 24.5765 24.1504 24.0338 23.3775C23.6026 22.7634 23.3861 22.4551 23.3861 21.6335V21.6335Z" fill="#324A5E"/>
<path d="M24.0337 23.3777C24.5769 24.1503 25.3195 25.2094 25.3195 27.1412C25.3195 29.0739 24.5769 30.1321 24.0337 30.9056C23.603 31.5199 23.3859 31.8275 23.3859 32.6493H22.5V9.8584L27.4403 18.5596H24.8273C24.5813 19.1071 24.2807 19.5387 24.0337 19.8902C23.603 20.5037 23.3859 20.8122 23.3859 21.6331C23.3859 22.4549 23.603 22.7634 24.0337 23.3777V23.3777Z" fill="#213949"/>
</svg>
