<svg width="45" height="44" viewBox="0 0 45 44" fill="none" xmlns="http://www.w3.org/2000/svg">
<path d="M22.5 43.125C34.9264 43.125 45 33.4711 45 21.5625C45 9.65386 34.9264 0 22.5 0C10.0736 0 0 9.65386 0 21.5625C0 33.4711 10.0736 43.125 22.5 43.125Z" fill="#7FE881"/>
<path d="M45.0001 21.5626C45.0001 19.0189 44.5391 16.5786 43.6951 14.3127L39.5888 10.3774L6.06836 33.3773L14.9349 41.8744C17.2993 42.6833 19.8457 43.1251 22.5001 43.1251C34.9265 43.1251 45.0001 33.4712 45.0001 21.5626V21.5626Z" fill="#5BC980"/>
<path d="M36.9864 34.001H8.0127C6.22412 34.001 4.76074 32.5986 4.76074 30.8846V12.2419C4.76074 10.5279 6.22412 9.12549 8.0127 9.12549H36.9864C38.7749 9.12549 40.2383 10.5279 40.2383 12.2419V30.8845C40.2383 32.5986 38.7749 34.001 36.9864 34.001V34.001Z" fill="white"/>
<path d="M40.239 12.241V30.8841C40.239 32.5982 38.7756 34.0006 36.987 34.0006H22.5V9.12451H36.987C38.7756 9.12451 40.239 10.5269 40.239 12.241V12.241Z" fill="#FFF5CA"/>
<path d="M8.62695 14.5083H19.4386V25.6686H8.62695V14.5083Z" fill="#FFC56E"/>
<path d="M19.4383 28.6165H8.63867V25.5772C8.63867 23.7669 10.1701 22.2993 12.0591 22.2993H16.0179C17.9069 22.2993 19.4383 23.7669 19.4383 25.5772V28.6165Z" fill="#4BB9EC"/>
<path d="M14.0326 23.0244C15.5845 23.0244 16.8426 21.8188 16.8426 20.3315C16.8426 18.8443 15.5845 17.6387 14.0326 17.6387C12.4807 17.6387 11.2227 18.8443 11.2227 20.3315C11.2227 21.8188 12.4807 23.0244 14.0326 23.0244Z" fill="#324A5E"/>
<path d="M25.6855 17.3931H37.0307V20.299H25.6855V17.3931Z" fill="#213949"/>
<path d="M25.6855 22.8257H34.2988V25.7316H25.6855V22.8257Z" fill="#213949"/>
</svg>
