<svg width="45" height="45" viewBox="0 0 45 45" fill="none" xmlns="http://www.w3.org/2000/svg">
<path d="M22.5 45C34.9264 45 45 34.9264 45 22.5C45 10.0736 34.9264 0 22.5 0C10.0736 0 0 10.0736 0 22.5C0 34.9264 10.0736 45 22.5 45Z" fill="#4BB9EC"/>
<path d="M44.961 23.8189L37.9053 16.7632L18.8027 39.9442L23.8192 44.9606C35.1951 44.3029 44.3033 35.1948 44.961 23.8189V23.8189Z" fill="#0095FF"/>
<path d="M38.4196 25.2654L25.2649 38.4201C23.7439 39.9411 21.255 39.9411 19.7339 38.4201L6.57925 25.2654C5.05822 23.7443 5.05822 21.2555 6.57925 19.7344L19.7339 6.57974C21.255 5.05871 23.7439 5.05871 25.2649 6.57974L38.4196 19.7344C39.9406 21.2555 39.9406 23.7443 38.4196 25.2654Z" fill="#FFE767"/>
<path d="M25.2659 38.4203C24.5057 39.1806 23.5028 39.5611 22.5 39.5611V5.43848C23.5028 5.43848 24.5057 5.81904 25.2659 6.5793L38.4205 19.7339C39.941 21.2553 39.941 23.7443 38.4205 25.2657" fill="#FFC100"/>
<path d="M22.4996 41.4733C21.1605 41.4733 19.8213 40.9636 18.8019 39.9441L5.05553 26.1977C3.01665 24.1588 3.01665 20.8413 5.05553 18.8023L18.8019 5.05595C20.8409 3.01716 24.1585 3.01716 26.1973 5.05595L39.9436 18.8023C41.9825 20.8412 41.9825 24.1587 39.9436 26.1977L26.1973 39.9441C25.1779 40.9636 23.8387 41.4733 22.4996 41.4733ZM22.4996 6.16223C21.8356 6.16223 21.1719 6.41492 20.6663 6.92038L6.91996 20.6668C6.43331 21.1535 6.16533 21.8045 6.16533 22.5C6.16533 23.1956 6.43331 23.8466 6.91996 24.3333L20.6663 38.0796C21.6772 39.0904 23.3218 39.0904 24.3328 38.0796L38.0792 24.3333C38.5658 23.8466 38.8338 23.1956 38.8338 22.5C38.8338 21.8045 38.5658 21.1535 38.0792 20.6668L24.3328 6.92038C23.8275 6.41501 23.1635 6.16223 22.4996 6.16223V6.16223Z" fill="#324A5E"/>
<path d="M39.943 18.8024L26.1969 5.05633C25.129 3.98846 23.7104 3.47957 22.3086 3.53143V6.16903C22.3719 6.16463 22.436 6.162 22.4993 6.162C23.1629 6.162 23.8273 6.41512 24.3327 6.92049L38.0788 20.6666C38.5657 21.1535 38.8338 21.8048 38.8338 22.5C38.8338 23.1952 38.5657 23.8465 38.0788 24.3334L24.3327 38.0795C23.779 38.6332 23.0346 38.8837 22.3086 38.8301V41.4685C22.3719 41.4721 22.436 41.4729 22.4993 41.4729C23.8388 41.4729 25.1773 40.9632 26.1969 39.9436L39.943 26.1975C41.982 24.1585 41.982 20.8415 39.943 18.8024V18.8024Z" fill="#213949"/>
<path d="M30.6273 22.7637C30.0209 22.7637 29.4894 22.3549 29.3374 21.7678C28.5497 18.7261 25.7879 16.4795 22.4999 16.4795C19.2119 16.4795 16.4501 18.7261 15.6624 21.7678C15.5103 22.3549 14.9789 22.7637 14.3725 22.7637H12.5762V26.3283H32.4236V22.7637H30.6273Z" fill="#324A5E"/>
<path d="M32.423 22.7637V26.3285H22.3086V16.4821C22.3719 16.4804 22.4352 16.4795 22.4993 16.4795C25.7873 16.4795 28.5488 18.726 29.3372 21.7679C29.4893 22.355 30.0201 22.7637 30.6266 22.7637H32.423Z" fill="#213949"/>
</svg>
