<svg width="24" height="24" viewBox="0 0 24 24" fill="none" xmlns="http://www.w3.org/2000/svg">
<path d="M12 24C18.6274 24 24 18.6274 24 12C24 5.37258 18.6274 0 12 0C5.37258 0 0 5.37258 0 12C0 18.6274 5.37258 24 12 24Z" fill="#FFC56E"/>
<path d="M6.37948 16.7519L2.91406 18.079L8.22997 23.3949C9.41558 23.7869 10.6827 23.9998 11.9997 23.9998C15.0469 23.9998 17.8282 22.8634 19.9446 20.9921L8.80705 9.85449L6.37948 16.7519Z" fill="#F2A846"/>
<path d="M23.3956 8.23046L18.0797 2.91455L15.5558 6.36038L13.929 4.73363L12.1671 8.05341L13.1588 9.04505L11.5801 10.8209L20.8565 20.0973C22.809 17.963 24.0005 15.1208 24.0005 12.0002C24.0005 10.6832 23.7876 9.41607 23.3956 8.23046V8.23046Z" fill="#F2A846"/>
<path d="M13.1794 12.4203L11.5796 10.8205C11.2638 10.5047 11.2638 9.9927 11.5796 9.67695L13.0798 8.17676L15.8231 10.9201L14.3229 12.4203C14.0071 12.7361 13.4951 12.7361 13.1794 12.4203Z" fill="white"/>
<path d="M15.8234 10.9199L14.3232 12.42C14.0073 12.7359 13.4956 12.7359 13.1797 12.42L12.3799 11.6203L14.4518 9.54834L15.8234 10.9199Z" fill="#FFF5CA"/>
<path d="M8.70339 19.076L4.92325 15.2959C4.49303 14.8657 4.49303 14.1682 4.92325 13.738L8.8068 9.85449L14.1448 15.1925L10.2612 19.076C9.83106 19.5062 9.13361 19.5062 8.70339 19.076V19.076Z" fill="#324A5E"/>
<path d="M14.145 15.1923L10.2613 19.076C9.83106 19.5062 9.13365 19.5062 8.70343 19.076L6.81348 17.186L11.4761 12.5234L14.145 15.1923Z" fill="#213949"/>
<path d="M15.9465 11.8333L12.1664 8.05313C11.7362 7.62296 11.7362 6.92546 12.1664 6.49529L13.9283 4.7334L19.2663 10.0714L17.5044 11.8333C17.0742 12.2634 16.3767 12.2634 15.9465 11.8333V11.8333Z" fill="#324A5E"/>
<path d="M19.2665 10.0712L17.5044 11.8333C17.0742 12.2635 16.3768 12.2635 15.9466 11.8333L14.0566 9.9433L16.5976 7.40234L19.2665 10.0712Z" fill="#213949"/>
<path d="M18.0781 2.91211L21.0841 5.91813L16.8295 10.1728L13.8235 7.16674L18.0781 2.91211Z" fill="#576770"/>
<path d="M15.3242 8.67334L19.5788 4.41875L21.0817 5.92167L16.8271 10.1763L15.3242 8.67334Z" fill="#324A5E"/>
<path d="M6.60742 14.3853L9.61344 17.3913L5.92231 21.0824L2.91628 18.0764L6.60742 14.3853Z" fill="#576770"/>
<path d="M4.41504 19.5811L8.10624 15.8899L9.60917 17.3928L5.91797 21.084L4.41504 19.5811Z" fill="#324A5E"/>
<path d="M8.90918 12.2402L11.7578 15.0888L10.6965 16.1501L7.84788 13.3015L8.90918 12.2402Z" fill="#576770"/>
<path d="M9.26855 14.728L10.3297 13.6669L11.7541 15.0912L10.6929 16.1524L9.26855 14.728Z" fill="#324A5E"/>
</svg>
