<svg width="24" height="24" viewBox="0 0 24 24" fill="none" xmlns="http://www.w3.org/2000/svg">
<path d="M12 24C18.6274 24 24 18.6274 24 12C24 5.37258 18.6274 0 12 0C5.37258 0 0 5.37258 0 12C0 18.6274 5.37258 24 12 24Z" fill="#4BB9EC"/>
<path d="M24.0003 12.0002C24.0003 11.5513 23.9748 11.1084 23.9268 10.6723L22.6559 9.40138L9.38114 9.6096L7.89056 8.11621L3.48464 15.8256H2.47852L1.83398 16.6342L8.75583 23.556C9.78783 23.8452 10.8759 24.0002 12.0003 24.0002C18.6277 24.0002 24.0003 18.6276 24.0003 12.0002Z" fill="#0095FF"/>
<path d="M22.6554 9.40088V11.5337H20.3107L19.3943 11.4431L18.4025 11.5337H15.6701L14.7733 11.4451L13.7618 11.5337H11.03L10.199 11.4568L9.12121 11.5337H7.49512V9.40088H10.4576L11.3514 9.50752L12.3664 9.40088H15.0982L15.9686 9.55439L17.0065 9.40088H19.7389L20.5935 9.53879L21.6471 9.40088H22.6554Z" fill="white"/>
<path d="M22.656 9.40088V11.5337H20.3113L19.3949 11.4428L18.403 11.5337H15.6707L15.3848 11.5056V9.45104L15.9693 9.55416L17.0071 9.40088H19.7395L20.594 9.53869L21.6477 9.40088H22.656Z" fill="#FFF5CA"/>
<path d="M2.83984 8.11572H7.8903V15.3984H2.83984V8.11572Z" fill="#FF637B"/>
<path d="M5.36523 8.11572H7.89039V15.3982H5.36523V8.11572Z" fill="#E03B5A"/>
<path d="M1.83398 15.0166H8.89673V16.6338H1.83398V15.0166Z" fill="#576770"/>
<path d="M5.36523 15.0166H8.89633V16.6338H5.36523V15.0166Z" fill="#324A5E"/>
<path d="M12.3672 9.40088L11.0308 11.5337H9.12207L10.4585 9.40088H12.3672Z" fill="#FFC56E"/>
<path d="M17.0074 9.40088L15.671 11.5337H13.7627L15.0991 9.40088H17.0074Z" fill="#FFC56E"/>
<path d="M17.0071 9.40088L15.6707 11.5337H15.3848V9.40088H17.0071Z" fill="#F2A846"/>
<path d="M21.648 9.40088L20.3116 11.5337H18.4033L19.7397 9.40088H21.648Z" fill="#F2A846"/>
</svg>
