<svg width="24" height="23" viewBox="0 0 24 23" fill="none" xmlns="http://www.w3.org/2000/svg">
<path d="M12 23C18.6274 23 24 17.8513 24 11.5C24 5.14873 18.6274 0 12 0C5.37258 0 0 5.14873 0 11.5C0 17.8513 5.37258 23 12 23Z" fill="#7FE881"/>
<path d="M23.9963 11.8013L14.6722 2.86572L4.91797 18.8965L8.75581 22.5744C9.78786 22.8516 10.876 23.0002 12.0004 23.0002C18.5227 23.0002 23.8296 18.0134 23.9963 11.8013V11.8013Z" fill="#5BC980"/>
<path d="M17.1329 15.5328H6.86816L7.52066 12.174L8.39113 11.0846L7.94395 9.99527L8.5327 6.96305L9.40316 5.87369L8.95598 4.78434L9.32863 2.86572H14.6724L15.045 4.78434L14.6099 5.87369L15.4683 6.96305L16.0571 9.99527L15.5958 10.9503L16.4804 12.174L17.1329 15.5328Z" fill="#E03B5A"/>
<path d="M17.1323 15.5328H12V2.86572H14.6719L15.0445 4.78434L14.6095 5.87369L15.4678 6.96305L16.0566 9.99527L15.5953 10.9503L16.4798 12.174L17.0484 15.1006L17.1323 15.5328Z" fill="#CE1B42"/>
<path d="M4.91797 15.1006H19.0828V18.8963H4.91797V15.1006Z" fill="#FF637B"/>
<path d="M12 15.1006H19.0823V18.8965H12V15.1006Z" fill="#E03B5A"/>
<path d="M15.4679 6.96289H8.53223L8.95551 4.78418H15.0446L15.4679 6.96289Z" fill="white"/>
<path d="M15.4678 6.96289H12V4.78418H15.0445L15.4678 6.96289Z" fill="#FFF5CA"/>
<path d="M16.4802 12.1738H7.52051L7.94379 9.99512H16.0569L16.4802 12.1738Z" fill="white"/>
<path d="M16.4798 12.1738H12V9.99512H16.0566L16.4798 12.1738Z" fill="#FFF5CA"/>
</svg>
