<svg width="24" height="24" viewBox="0 0 24 24" fill="none" xmlns="http://www.w3.org/2000/svg">
<path d="M12 24C18.6274 24 24 18.6274 24 12C24 5.37258 18.6274 0 12 0C5.37258 0 0 5.37258 0 12C0 18.6274 5.37258 24 12 24Z" fill="#4BB9EC"/>
<path d="M23.9996 11.9998C23.9996 11.1235 23.9048 10.2694 23.7264 9.44646L17.5818 3.30176L6.74609 21.0264L9.44628 23.7266C10.2692 23.905 11.1233 23.9998 11.9996 23.9998C18.627 23.9998 23.9996 18.6272 23.9996 11.9998V11.9998Z" fill="#0095FF"/>
<path d="M16.0748 21.435H15.8822L11.9996 20.9841L8.1169 21.435H7.92434C6.87077 21.435 6.00879 20.573 6.00879 19.5194V4.48C6.00879 3.42644 6.87077 2.56445 7.92434 2.56445H8.1169L11.9996 2.93331L15.8822 2.56445H16.0748C17.1283 2.56445 17.9904 3.42644 17.9904 4.48V19.5194C17.9904 20.573 17.1283 21.435 16.0748 21.435V21.435Z" fill="#324A5E"/>
<path d="M8.11719 2.56445H15.8825V21.435H8.11719V2.56445Z" fill="#576770"/>
<path d="M17.9906 4.48023V19.5193C17.9906 20.573 17.1286 21.4351 16.0753 21.4351H15.8827L12 20.9841V2.93336L15.8827 2.56445H16.0753C17.1286 2.56445 17.9906 3.42648 17.9906 4.48023V4.48023Z" fill="#213949"/>
<path d="M12 2.56445H15.8827V21.4351H12V2.56445Z" fill="#324A5E"/>
<path d="M13.986 6.82223C14.1642 5.72322 13.4177 4.68787 12.3187 4.50971C11.2197 4.33156 10.1843 5.07805 10.0062 6.17706C9.82802 7.27607 10.5745 8.31142 11.6735 8.48957C12.7725 8.66773 13.8079 7.92123 13.986 6.82223Z" fill="#FF637B"/>
<path d="M14.0151 6.49949C14.0151 7.61324 13.1123 8.51559 11.999 8.51559V4.4834C13.1123 4.4834 14.0151 5.38621 14.0151 6.49949Z" fill="#E03B5A"/>
<path d="M11.9995 14.0162C13.113 14.0162 14.0157 13.1135 14.0157 12C14.0157 10.8865 13.113 9.98389 11.9995 9.98389C10.8861 9.98389 9.9834 10.8865 9.9834 12C9.9834 13.1135 10.8861 14.0162 11.9995 14.0162Z" fill="#FFC56E"/>
<path d="M14.0151 12C14.0151 13.1133 13.1123 14.0161 11.999 14.0161V9.98389C13.1123 9.98389 14.0151 10.8867 14.0151 12Z" fill="#F2A846"/>
<path d="M12.7784 19.3614C13.8072 18.9349 14.2956 17.7551 13.8691 16.7263C13.4426 15.6974 12.2629 15.2091 11.234 15.6355C10.2051 16.062 9.71681 17.2418 10.1433 18.2706C10.5697 19.2995 11.7495 19.7878 12.7784 19.3614Z" fill="#7FE881"/>
<path d="M14.0151 17.5C14.0151 18.6133 13.1123 19.5161 11.999 19.5161V15.4839C13.1123 15.4839 14.0151 16.3862 14.0151 17.5Z" fill="#5BC980"/>
</svg>
