<svg width="23" height="23" viewBox="0 0 23 23" fill="none" xmlns="http://www.w3.org/2000/svg">
<path d="M11.5 23C17.8513 23 23 17.8513 23 11.5C23 5.14873 17.8513 0 11.5 0C5.14873 0 0 5.14873 0 11.5C0 17.8513 5.14873 23 11.5 23Z" fill="#4BB9EC"/>
<path d="M22.9801 12.1741L19.3739 8.56787L9.61035 20.4159L12.1743 22.9799C17.9887 22.6437 22.644 17.9885 22.9801 12.1741V12.1741Z" fill="#0095FF"/>
<path d="M19.6373 12.9138L12.9138 19.6373C12.1364 20.4147 10.8643 20.4147 10.0868 19.6373L3.36334 12.9138C2.58592 12.1364 2.58592 10.8643 3.36334 10.0868L10.0868 3.36334C10.8643 2.58592 12.1364 2.58592 12.9138 3.36334L19.6373 10.0868C20.4147 10.8643 20.4147 12.1364 19.6373 12.9138Z" fill="#FFE767"/>
<path d="M12.9137 19.6372C12.5251 20.0257 12.0126 20.2203 11.5 20.2203V2.77979C12.0126 2.77979 12.5251 2.9743 12.9137 3.36287L19.6371 10.0863C20.4143 10.8639 20.4143 12.1361 19.6371 12.9137" fill="#FFC100"/>
<path d="M11.5002 21.1976C10.8157 21.1976 10.1313 20.9371 9.61022 20.416L2.58431 13.3901C1.54221 12.348 1.54221 10.6523 2.58431 9.61019L9.61022 2.58427C10.6524 1.54222 12.348 1.54222 13.3901 2.58427L20.416 9.61019C21.4581 10.6523 21.4581 12.3479 20.416 13.3901L13.3901 20.416C12.8691 20.9371 12.1846 21.1976 11.5002 21.1976ZM11.5002 3.14971C11.1608 3.14971 10.8215 3.27886 10.5632 3.5372L3.53724 10.5632C3.2885 10.8119 3.15154 11.1446 3.15154 11.5001C3.15154 11.8557 3.2885 12.1884 3.53724 12.4371L10.5632 19.463C11.0798 19.9796 11.9204 19.9796 12.4372 19.463L19.4631 12.4371C19.7118 12.1884 19.8488 11.8557 19.8488 11.5001C19.8488 11.1446 19.7118 10.8119 19.4631 10.5632L12.4372 3.5372C12.1789 3.2789 11.8395 3.14971 11.5002 3.14971V3.14971Z" fill="#324A5E"/>
<path d="M20.4155 9.61024L13.3897 2.58446C12.8439 2.03865 12.1188 1.77856 11.4023 1.80506V3.15317C11.4347 3.15092 11.4675 3.14957 11.4998 3.14957C11.839 3.14957 12.1786 3.27895 12.4369 3.53725L19.4627 10.563C19.7115 10.8119 19.8486 11.1448 19.8486 11.5001C19.8486 11.8554 19.7115 12.1883 19.4627 12.4372L12.4369 19.463C12.1539 19.746 11.7734 19.874 11.4023 19.8466V21.1951C11.4347 21.1969 11.4675 21.1974 11.4998 21.1974C12.1844 21.1974 12.8686 20.9368 13.3897 20.4157L20.4155 13.39C21.4577 12.3478 21.4577 10.6524 20.4155 9.61024V9.61024Z" fill="#213949"/>
<path d="M15.6539 11.6348C15.3439 11.6348 15.0723 11.4258 14.9946 11.1258C14.592 9.5711 13.1804 8.42285 11.4999 8.42285C9.81934 8.42285 8.40776 9.5711 8.00512 11.1258C7.92741 11.4258 7.65581 11.6348 7.34585 11.6348H6.42773V13.4567H16.572V11.6348H15.6539Z" fill="#324A5E"/>
<path d="M16.572 11.6348V13.4568H11.4023V8.4242C11.4347 8.4233 11.467 8.42285 11.4998 8.42285C13.1804 8.42285 14.5918 9.57105 14.9947 11.1258C15.0725 11.4259 15.3438 11.6348 15.6537 11.6348H16.572Z" fill="#213949"/>
</svg>
