<svg width="24" height="23" viewBox="0 0 24 23" fill="none" xmlns="http://www.w3.org/2000/svg">
<path d="M12 23C18.6274 23 24 17.8513 24 11.5C24 5.14873 18.6274 0 12 0C5.37258 0 0 5.14873 0 11.5C0 17.8513 5.37258 23 12 23Z" fill="#7FE881"/>
<path d="M23.9999 11.5001C23.9999 10.1434 23.7541 8.84195 23.3039 7.63346L21.1139 5.53467L3.23633 17.8013L7.96513 22.333C9.22616 22.7645 10.5842 23.0001 11.9999 23.0001C18.6274 23.0001 23.9999 17.8513 23.9999 11.5001V11.5001Z" fill="#5BC980"/>
<path d="M19.7261 18.1337H4.27344C3.31953 18.1337 2.53906 17.3857 2.53906 16.4715V6.52881C2.53906 5.61465 3.31953 4.8667 4.27344 4.8667H19.7261C20.68 4.8667 21.4604 5.61465 21.4604 6.52881V16.4715C21.4604 17.3857 20.68 18.1337 19.7261 18.1337V18.1337Z" fill="white"/>
<path d="M21.4608 6.52832V16.4713C21.4608 17.3855 20.6803 18.1334 19.7264 18.1334H12V4.86621H19.7264C20.6803 4.86621 21.4608 5.61416 21.4608 6.52832V6.52832Z" fill="#FFF5CA"/>
<path d="M4.60059 7.73779H10.3668V13.6899H4.60059V7.73779Z" fill="#FFC56E"/>
<path d="M10.3672 15.2622H4.60742V13.6413C4.60742 12.6758 5.42417 11.8931 6.43166 11.8931H8.543C9.55048 11.8931 10.3672 12.6758 10.3672 13.6413V15.2622Z" fill="#4BB9EC"/>
<path d="M7.48399 12.2796C8.31167 12.2796 8.98263 11.6366 8.98263 10.8434C8.98263 10.0502 8.31167 9.40723 7.48399 9.40723C6.65632 9.40723 5.98535 10.0502 5.98535 10.8434C5.98535 11.6366 6.65632 12.2796 7.48399 12.2796Z" fill="#324A5E"/>
<path d="M13.6992 9.27637H19.75V10.8262H13.6992V9.27637Z" fill="#213949"/>
<path d="M13.6992 12.1738H18.293V13.7236H13.6992V12.1738Z" fill="#213949"/>
</svg>
