<svg width="24" height="24" viewBox="0 0 24 24" fill="none" xmlns="http://www.w3.org/2000/svg">
<path d="M12 24C18.6274 24 24 18.6274 24 12C24 5.37258 18.6274 0 12 0C5.37258 0 0 5.37258 0 12C0 18.6274 5.37258 24 12 24Z" fill="#FFC56E"/>
<path d="M24 12.0001C24 11.0583 23.8912 10.142 23.686 9.26269L21.6328 7.20947L2.36719 12.4454L5.07811 15.1876L4.89928 17.836L11.0236 23.9604C11.3457 23.9863 11.6713 24.0001 12 24.0001C18.6274 24.0001 24 18.6275 24 12.0001Z" fill="#F2A846"/>
<path d="M7.89551 11.9087V17.8361H4.89916V11.9087H7.89551Z" fill="#324A5E"/>
<path d="M19.1006 11.9087V17.8361H16.1042V11.9087H19.1006Z" fill="#213949"/>
<path d="M2.36719 7.20947H21.6328V12.4454H2.36719V7.20947Z" fill="#FF637B"/>
<path d="M12 7.20947H21.6328V12.4454H12V7.20947Z" fill="#E03B5A"/>
<path d="M8.66141 7.20947L6.78219 12.4454H4.14453L6.02328 7.20947H8.66141Z" fill="white"/>
<path d="M14.2591 7.20947L12.3803 12.4454H9.74219L11.6209 7.20947H14.2591Z" fill="white"/>
<path d="M14.2584 7.20947L12.3797 12.4454H12V7.20947H14.2584Z" fill="#FFF5CA"/>
<path d="M19.8557 7.20947L17.977 12.4454H15.3389L17.2181 7.20947H19.8557Z" fill="#FFF5CA"/>
</svg>
