<svg width="24" height="24" viewBox="0 0 24 24" fill="none" xmlns="http://www.w3.org/2000/svg">
<path d="M12 24C18.6274 24 24 18.6274 24 12C24 5.37258 18.6274 0 12 0C5.37258 0 0 5.37258 0 12C0 18.6274 5.37258 24 12 24Z" fill="#FFC56E"/>
<path d="M23.9999 12C23.9999 11.5425 23.9734 11.0913 23.9235 10.6471L16.5031 3.87801L12.9468 3.5781C7.19038 3.09271 2.57071 8.25356 3.68831 13.9213L4.3462 17.2575L10.6469 23.9237C11.0911 23.9736 11.5424 24 11.9999 24C18.6273 24 23.9999 18.6275 23.9999 12V12Z" fill="#F2A846"/>
<path d="M21.0061 13.1573C19.5628 11.7197 15.9192 10.1919 12.0095 10.1919C8.06527 10.1919 4.42027 11.73 2.99316 13.1772L4.42121 14.6833C5.27293 13.8196 7.83821 12.5836 10.9449 12.3429V20.2347H13.0543V12.3419C16.1468 12.5796 18.7253 13.8142 19.5912 14.6766L21.0061 13.1573Z" fill="#576770"/>
<path d="M21.0066 13.1572L19.5914 14.6764C19.4156 14.5011 19.1691 14.3103 18.8616 14.1158C18.1641 13.6747 17.1544 13.2135 15.9497 12.8666C15.0727 12.6139 14.0925 12.4217 13.0547 12.3421V20.2349H12V10.1919H12.0098C13.3331 10.1919 14.6259 10.3667 15.8133 10.6546C17.0873 10.9625 18.2405 11.3999 19.1789 11.8897C19.9495 12.2914 20.5758 12.7283 21.0066 13.1572V13.1572Z" fill="#324A5E"/>
<path d="M12 21.2896C6.87798 21.2896 2.71094 17.1225 2.71094 12.0005C2.71094 6.87847 6.87798 2.71143 12 2.71143C17.122 2.71143 21.2891 6.87847 21.2891 12.0005C21.2891 17.1225 17.122 21.2896 12 21.2896ZM12 4.82085C8.04109 4.82085 4.82031 8.04163 4.82031 12.0006C4.82031 15.9595 8.04109 19.1802 12 19.1802C15.9589 19.1802 19.1797 15.9594 19.1797 12.0005C19.1797 8.04158 15.9589 4.82085 12 4.82085V4.82085Z" fill="#324A5E"/>
<path d="M12 2.71094V4.82031C15.922 4.82031 19.1198 7.98156 19.1789 11.8895C19.1794 11.9266 19.1798 11.9631 19.1798 12.0002C19.1798 12.7361 19.0688 13.4467 18.8616 14.1156C18.0577 16.7195 15.8081 18.6958 13.0547 19.1027C12.7102 19.1537 12.3581 19.18 12 19.18V21.2894C17.122 21.2894 21.2892 17.1222 21.2892 12.0002C21.2892 6.87812 17.122 2.71094 12 2.71094V2.71094Z" fill="#213949"/>
<path d="M11.9999 16.0433C14.2327 16.0433 16.0428 14.2332 16.0428 12.0004C16.0428 9.76758 14.2327 7.95752 11.9999 7.95752C9.76709 7.95752 7.95703 9.76758 7.95703 12.0004C7.95703 14.2332 9.76709 16.0433 11.9999 16.0433Z" fill="#324A5E"/>
<path d="M16.043 12C16.043 12.2972 16.0111 12.5873 15.9497 12.8663C15.6281 14.3405 14.5017 15.5137 13.0547 15.9037C12.7186 15.9947 12.3652 16.043 12 16.043V7.95703C13.7606 7.95703 15.2588 9.08297 15.8133 10.6542C15.9623 11.0752 16.043 11.528 16.043 12V12Z" fill="#213949"/>
</svg>
