<svg width="15" height="15" viewBox="0 0 15 15" fill="none" xmlns="http://www.w3.org/2000/svg">
<path d="M5.72498 6.79375C5.66248 6.7875 5.58748 6.7875 5.51873 6.79375C4.03123 6.74375 2.84998 5.525 2.84998 4.025C2.84998 2.49375 4.08748 1.25 5.62498 1.25C7.15623 1.25 8.39998 2.49375 8.39998 4.025C8.39373 5.525 7.21248 6.74375 5.72498 6.79375Z" stroke="#5BBEB7" stroke-linecap="round" stroke-linejoin="round"/>
<path d="M10.2563 2.5C11.4688 2.5 12.4438 3.48125 12.4438 4.6875C12.4438 5.86875 11.5063 6.83125 10.3375 6.875C10.2875 6.86875 10.2313 6.86875 10.175 6.875" stroke="#5BBEB7" stroke-linecap="round" stroke-linejoin="round"/>
<path d="M2.59995 9.1C1.08745 10.1125 1.08745 11.7625 2.59995 12.7687C4.3187 13.9187 7.13745 13.9187 8.8562 12.7687C10.3687 11.7562 10.3687 10.1063 8.8562 9.1C7.1437 7.95625 4.32495 7.95625 2.59995 9.1Z" stroke="#5BBEB7" stroke-linecap="round" stroke-linejoin="round"/>
<path d="M11.4625 12.5C11.9125 12.4062 12.3375 12.225 12.6875 11.9562C13.6625 11.225 13.6625 10.0187 12.6875 9.2875C12.3438 9.025 11.925 8.85 11.4813 8.75" stroke="#5BBEB7" stroke-linecap="round" stroke-linejoin="round"/>
</svg>
