<svg id="Layer_1" enable-background="new 0 0 512 512" height="512" viewBox="0 0 512 512" width="512" xmlns="http://www.w3.org/2000/svg"><g id="XMLID_183_"><g id="XMLID_315_"><g id="XMLID_3218_"><g id="XMLID_3220_"><g id="XMLID_3221_"><g id="XMLID_3223_"><g id="XMLID_3224_"><g id="XMLID_3226_"><g id="XMLID_3228_"><g id="XMLID_3229_"><g id="XMLID_3230_"><g id="XMLID_3231_"><g id="XMLID_3233_"><g id="XMLID_3234_"><g id="XMLID_3235_"><g id="XMLID_3236_"><circle id="XMLID_3237_" cx="256" cy="256" fill="#ff637b" r="256"/></g></g></g></g></g></g></g></g></g></g></g></g></g></g></g><path id="XMLID_854_" d="m512 256c0-9.76-.565-19.387-1.629-28.863l-109.298-109.298c-36.49-38.304-321.538 246.744-283.234 283.234l109.298 109.298c9.476 1.064 19.103 1.629 28.863 1.629 141.385 0 256-114.615 256-256z" fill="#e03b5a"/><g id="XMLID_773_"><g id="XMLID_582_"><g id="XMLID_583_"><g id="XMLID_1778_"><g id="XMLID_1779_"><g id="XMLID_1780_"><g id="XMLID_1781_"><g id="XMLID_1782_"><g id="XMLID_1783_"><g id="XMLID_1784_"><g id="XMLID_1785_"><g id="XMLID_1786_"><g id="XMLID_1787_"><g id="XMLID_1788_"><g id="XMLID_1789_"><circle id="XMLID_1790_" cx="256" cy="256" fill="#4bb9ec" r="200.337"/></g></g></g></g></g></g></g></g></g></g></g></g></g></g><g id="XMLID_461_"><g id="XMLID_1823_"><g id="XMLID_1824_"><g id="XMLID_1825_"><g id="XMLID_1826_"><g id="XMLID_1827_"><g id="XMLID_1828_"><g id="XMLID_1829_"><g id="XMLID_1830_"><g id="XMLID_1831_"><g id="XMLID_1832_"><g id="XMLID_1833_"><g id="XMLID_1834_"><g id="XMLID_1835_"><g id="XMLID_1836_"><path id="XMLID_1837_" d="m456.333 256c0 110.643-89.691 200.333-200.333 200.333v-400.666c110.643 0 200.333 89.69 200.333 200.333z" fill="#0095ff"/></g></g></g></g></g></g></g></g></g></g></g></g></g></g></g><path id="XMLID_692_" d="m316.175 232.998-60.175-127.986-60.175 127.986h36.918v173.99h46.514v-173.99z" fill="#fff"/><path id="XMLID_749_" d="m316.179 232.999h-36.923v173.989h-23.256v-301.976z" fill="#fff5ca"/></g></g></svg>