<svg id="Layer_1" enable-background="new 0 0 512 512" height="512" viewBox="0 0 512 512" width="512" xmlns="http://www.w3.org/2000/svg"><g id="XMLID_54_"><g id="XMLID_270_"><g id="XMLID_271_"><g id="XMLID_272_"><g id="XMLID_273_"><g id="XMLID_274_"><g id="XMLID_275_"><g id="XMLID_276_"><g id="XMLID_277_"><g id="XMLID_278_"><g id="XMLID_279_"><g id="XMLID_280_"><g id="XMLID_281_"><g id="XMLID_282_"><g id="XMLID_283_"><circle id="XMLID_284_" cx="256" cy="256" fill="#324a5e" r="256"/></g></g></g></g></g></g></g></g></g></g></g></g></g></g><path id="XMLID_1688_" d="m512 256c0-9.075-.48-18.038-1.401-26.869l-172.159-172.159-164.88 398.056 55.571 55.571c8.831.921 17.794 1.401 26.869 1.401 141.385 0 256-114.615 256-256z" fill="#213949"/><g id="XMLID_1247_"><path id="XMLID_981_" d="m185.827 425.413-99.24-99.24v-140.346l99.24-99.24h140.346l99.24 99.24v140.346l-99.24 99.24z" fill="#ff637b"/><path id="XMLID_1203_" d="m425.41 185.83v140.34l-99.24 99.24h-70.17v-338.82h70.17z" fill="#e03b5a"/><g id="XMLID_1419_"><path id="XMLID_1421_" d="m338.44 455.028h-164.88l-116.587-116.588v-164.88l116.587-116.588h164.88l116.587 116.588v164.88zm-151.47-32.378h138.06l97.62-97.622v-138.057l-97.62-97.621h-138.06l-97.62 97.622v138.057z" fill="#fff"/></g><g id="XMLID_1187_"><path id="XMLID_1188_" d="m338.44 56.97h-82.44v32.38h69.03l97.62 97.62v138.06l-97.62 97.62h-69.03v32.38h82.44l116.59-116.59v-164.88z" fill="#fff5ca"/></g><g id="XMLID_1114_"><g id="XMLID_1115_"><g id="XMLID_1454_"><path id="XMLID_1159_" d="m157.244 294.417c-10.372 0-20.505-4.347-27.104-11.628l-5.037-5.557 11.113-10.074 5.037 5.557c3.805 4.197 9.782 6.703 15.991 6.703 6.096 0 10.394-3.67 11.027-7.219.851-4.767-5.488-7.653-8.254-8.673-9.583-3.535-18.091-7.322-18.448-7.481-.361-.161-.709-.351-1.041-.566-6.444-4.202-9.764-11.571-8.664-19.232 1.173-8.169 7.15-14.826 15.6-17.371 16.773-5.053 30.589 6.338 31.168 6.825l5.741 4.826-9.652 11.482-5.709-4.799c-.319-.255-8.439-6.616-17.222-3.972-4.095 1.234-4.916 4.006-5.079 5.141-.119.831-.179 2.829 1.62 4.255 2.14.937 9.243 4.004 16.877 6.819 15.468 5.706 19.352 16.853 17.829 25.383-2.025 11.345-12.873 19.581-25.793 19.581z" fill="#fff"/></g></g><path id="XMLID_1160_" d="m242.25 217.583h-49.148v15h17.004v61.834h15v-61.834h17.144z" fill="#fff"/><path id="XMLID_1158_" d="m358.512 217.583h-24.717v76.833h15v-26.899c3.524-.018 7.461-.035 9.717-.035 13.946 0 25.292-11.192 25.292-24.949s-11.346-24.95-25.292-24.95zm0 34.899c-2.239 0-6.129.017-9.639.035-.017-3.626-.035-7.684-.035-9.984 0-1.949-.01-6.153-.02-9.949h9.694c5.579 0 10.292 4.556 10.292 9.949s-4.713 9.949-10.292 9.949z" fill="#fff5ca"/><g id="XMLID_1449_"><path id="XMLID_1148_" d="m285.085 294.417c-21.184 0-38.417-17.233-38.417-38.417s17.233-38.417 38.417-38.417 38.417 17.233 38.417 38.417-17.233 38.417-38.417 38.417zm0-61.834c-12.912 0-23.417 10.504-23.417 23.417 0 12.912 10.505 23.417 23.417 23.417s23.417-10.504 23.417-23.417c0-12.912-10.505-23.417-23.417-23.417z" fill="#fff"/></g><g id="XMLID_1183_"><path id="XMLID_1184_" d="m285.08 217.58c-11.61 0-22.03 5.18-29.08 13.35v50.14c7.05 8.17 17.47 13.35 29.08 13.35 21.19 0 38.42-17.24 38.42-38.42s-17.23-38.42-38.42-38.42zm0 61.84c-12.91 0-23.41-10.51-23.41-23.42s10.5-23.42 23.41-23.42c12.92 0 23.42 10.51 23.42 23.42s-10.5 23.42-23.42 23.42z" fill="#fff5ca"/></g></g></g></g></svg>