<svg id="Layer_1" enable-background="new 0 0 512 512" height="512" viewBox="0 0 512 512" width="512" xmlns="http://www.w3.org/2000/svg"><g id="XMLID_1069_"><g id="XMLID_1194_"><g id="XMLID_1196_"><g id="XMLID_1222_"><g id="XMLID_1223_"><g id="XMLID_1225_"><g id="XMLID_1229_"><g id="XMLID_1231_"><g id="XMLID_1233_"><g id="XMLID_1234_"><g id="XMLID_1235_"><g id="XMLID_1238_"><g id="XMLID_1256_"><g id="XMLID_1257_"><g id="XMLID_1258_"><circle id="XMLID_1259_" cx="256" cy="256" fill="#7fe881" r="256"/></g></g></g></g></g></g></g></g></g></g></g></g></g></g><path id="XMLID_2959_" d="m512 256c0-9.367-.518-18.612-1.498-27.719l-45.492-45.492h-429.019l109.009 109.544-8.559 79.964 138.974 138.974c132.314-9.922 236.585-120.418 236.585-255.271z" fill="#5bc980"/><g id="XMLID_1352_"><g id="XMLID_2921_"><path id="XMLID_2922_" d="m343.443 249.505h150.78v34.5h-150.78z" fill="#ffc56e" transform="matrix(0 1 -1 0 685.588 -152.079)"/></g><path id="XMLID_1876_" d="m136.441 204.455h228.119v167.843h-228.119z" fill="#324a5e"/><path id="XMLID_1466_" d="m250.5 204.45h114.06v167.85h-114.06z" fill="#213949"/><path id="XMLID_2860_" d="m250.501 264.157 214.508-81.368-214.508-88.606-214.51 88.606 214.508 81.368v.001h.001.001z" fill="#576770"/><path id="XMLID_1354_" d="m465.01 182.79-100.45 38.1-114.06 43.27v-169.98z" fill="#324a5e"/><path id="XMLID_2952_" d="m436.083 330.928h-17.25-17.25l-9.25 58.927 26.5 23.813 26.5-23.813z" fill="#f2a846"/></g></g></svg>