<svg id="Layer_1" enable-background="new 0 0 512 512" height="512" viewBox="0 0 512 512" width="512" xmlns="http://www.w3.org/2000/svg"><g id="XMLID_173_"><g id="XMLID_111_"><g id="XMLID_112_"><g id="XMLID_113_"><g id="XMLID_114_"><g id="XMLID_115_"><g id="XMLID_116_"><g id="XMLID_117_"><g id="XMLID_118_"><g id="XMLID_119_"><g id="XMLID_120_"><g id="XMLID_121_"><g id="XMLID_122_"><g id="XMLID_123_"><g id="XMLID_124_"><circle id="XMLID_125_" cx="256" cy="256" fill="#4bb9ec" r="256"/></g></g></g></g></g></g></g></g></g></g></g></g></g></g><path id="XMLID_454_" d="m510.795 280.861-205.327-205.328-227.069 323.797 101.38 101.13c24.076 7.499 49.676 11.54 76.221 11.54 132.996 0 242.292-101.422 254.795-231.139z" fill="#0095ff"/><g id="XMLID_1333_"><g id="XMLID_1377_"><g id="XMLID_1379_"><path id="XMLID_1908_" d="m215.062 93.853-133.318 235.222c-17.779 31.369 4.881 70.258 40.938 70.258h266.635c36.057 0 58.717-38.889 40.938-70.258l-133.317-235.222c-18.026-31.804-63.85-31.804-81.876 0z" fill="#ffe767"/></g><g id="XMLID_1527_"><path id="XMLID_1541_" d="m389.32 399.33h-133.32v-329.33c15.96 0 31.92 7.95 40.94 23.85l133.32 235.22c17.77 31.37-4.89 70.26-40.94 70.26z" fill="#ffc100"/></g><g id="XMLID_1378_"><path id="XMLID_1513_" d="m389.318 416.834h-266.636c-23.231 0-44.082-11.983-55.778-32.056-11.695-20.072-11.839-44.122-.384-64.332l133.317-235.221c11.614-20.491 32.611-32.725 56.163-32.725 23.553 0 44.548 12.234 56.162 32.725l133.318 235.221c11.455 20.21 11.311 44.26-.384 64.332-11.696 20.072-32.547 32.056-55.778 32.056zm-159.031-314.352-133.318 235.222c-5.245 9.253-5.179 20.264.176 29.454s14.901 14.676 25.537 14.676h266.636c10.636 0 20.182-5.486 25.537-14.676 5.355-9.189 5.421-20.2.176-29.454l-133.318-235.222c-5.318-9.381-14.929-14.982-25.713-14.982s-20.396 5.601-25.713 14.982z" fill="#576770"/></g><g id="XMLID_1521_"><g id="XMLID_1523_"><path id="XMLID_1524_" d="m445.48 320.45-133.32-235.23c-5.8-10.24-13.96-18.42-23.6-24.04-9.65-5.62-20.78-8.68-32.56-8.68v35c10.78 0 20.4 5.6 25.71 14.98l133.32 235.22c5.25 9.26 5.18 20.27-.18 29.46-5.35 9.19-14.9 14.67-25.53 14.67h-133.32v35h133.32c23.23 0 44.08-11.98 55.78-32.05 11.69-20.07 11.84-44.12.38-64.33z" fill="#324a5e"/></g></g></g><g id="XMLID_1331_"><g id="XMLID_1375_"><path id="XMLID_1892_" d="m189.729 210.208h132.541v34.5h-132.541z" fill="#576770" transform="matrix(0 1 -1 0 483.458 -28.542)"/></g><g id="XMLID_1516_"><g id="XMLID_1517_"><g id="XMLID_1519_"><path id="XMLID_1536_" d="m256 161.19h17.25v132.54h-17.25z" fill="#324a5e"/></g></g></g><g id="XMLID_1360_"><circle id="XMLID_1885_" cx="256" cy="326.688" fill="#576770" r="20"/></g><g id="XMLID_1518_"><path id="XMLID_1535_" d="m276 326.69c0 11.04-8.95 20-20 20v-40c11.05 0 20 8.95 20 20z" fill="#324a5e"/></g></g></g></g></svg>