<svg id="Layer_1" enable-background="new 0 0 512 512" height="512" viewBox="0 0 512 512" width="512" xmlns="http://www.w3.org/2000/svg"><g id="XMLID_512_"><g id="XMLID_186_"><g id="XMLID_1936_"><g id="XMLID_1937_"><g id="XMLID_1938_"><g id="XMLID_1939_"><g id="XMLID_1940_"><g id="XMLID_1941_"><g id="XMLID_1942_"><g id="XMLID_1943_"><g id="XMLID_1944_"><g id="XMLID_1945_"><g id="XMLID_1946_"><g id="XMLID_1947_"><g id="XMLID_1948_"><g id="XMLID_1949_"><circle id="XMLID_1950_" cx="256" cy="256" fill="#324a5e" r="256"/></g></g></g></g></g></g></g></g></g></g></g></g></g></g></g><path id="XMLID_511_" d="m512 256c0-18.981-2.084-37.473-6.003-55.277l-105.733-105.733-286.308 327.387 82.872 82.737c18.994 4.494 38.803 6.886 59.172 6.886 141.385 0 256-114.615 256-256z" fill="#213949"/><g id="XMLID_1963_"><path id="XMLID_995_" d="m364.592 433.717h-217.184c-27.45 0-49.908-22.459-49.908-49.908v-255.617c0-27.45 22.459-49.908 49.908-49.908h217.183c27.45 0 49.908 22.459 49.908 49.908v255.617c.001 27.449-22.458 49.908-49.907 49.908z" fill="#4bb9ec"/><path id="XMLID_1130_" d="m414.5 128.19v255.62c0 27.45-22.46 49.91-49.91 49.91h-108.59v-355.44h108.59c27.45 0 49.91 22.46 49.91 49.91z" fill="#0095ff"/><path id="XMLID_1409_" d="m228.536 169.633v-36.918l-86.997 60.175 86.997 60.175v-36.918h71.844c4.455 0 8.067 3.612 8.067 8.067v155.072h46.514v-175.947c0-18.615-15.091-33.706-33.706-33.706z" fill="#fff"/><path id="XMLID_1126_" d="m354.96 203.34v175.95h-46.51v-155.08c0-4.45-3.61-8.06-8.07-8.06h-44.38v-46.52h65.26c18.61 0 33.7 15.09 33.7 33.71z" fill="#fff5ca"/></g></g></svg>