<svg id="Layer_1" enable-background="new 0 0 512 512" height="512" viewBox="0 0 512 512" width="512" xmlns="http://www.w3.org/2000/svg"><g id="XMLID_2544_"><g id="XMLID_126_"><g id="XMLID_127_"><g id="XMLID_128_"><g id="XMLID_129_"><g id="XMLID_130_"><g id="XMLID_131_"><g id="XMLID_132_"><g id="XMLID_133_"><g id="XMLID_134_"><g id="XMLID_135_"><g id="XMLID_136_"><g id="XMLID_137_"><g id="XMLID_138_"><g id="XMLID_139_"><circle id="XMLID_140_" cx="256" cy="256" fill="#ffc56e" r="256"/></g></g></g></g></g></g></g></g></g></g></g></g></g></g><path id="XMLID_2864_" d="m512 256c0-20.091-2.321-39.64-6.698-58.398l-43.802-43.802-411 111.7 57.833 58.5-3.815 56.5 130.653 130.653c6.871.553 13.816.847 20.829.847 141.385 0 256-114.615 256-256z" fill="#f2a846"/><g id="XMLID_1708_"><g id="XMLID_1673_"><g id="XMLID_1677_"><path id="XMLID_1678_" d="m73.254 285.313h126.452v63.922h-126.452z" fill="#324a5e" transform="matrix(0 1 -1 0 453.754 180.795)"/></g><path id="XMLID_1674_" d="m312.295 285.313h126.452v63.922h-126.452z" fill="#213949" transform="matrix(0 1 -1 0 692.795 -58.246)"/></g><g id="XMLID_1671_"><path id="XMLID_1672_" d="m50.5 153.8h411v111.7h-411z" fill="#ff637b"/></g><g id="XMLID_858_"><g id="XMLID_936_"><path id="XMLID_937_" d="m256 153.8h205.5v111.7h-205.5z" fill="#e03b5a"/></g></g><g id="XMLID_1650_"><path id="XMLID_1670_" d="m184.77 153.8-40.09 111.7h-56.27l40.08-111.7z" fill="#fff"/><path id="XMLID_1669_" d="m304.18 153.8-40.08 111.7h-56.28l40.08-111.7z" fill="#fff"/><g fill="#fff5ca"><path id="XMLID_867_" d="m304.18 153.8-40.08 111.7h-8.1v-111.7z"/><path id="XMLID_1668_" d="m423.59 153.8-40.08 111.7h-56.28l40.09-111.7z"/></g></g></g></g></svg>