<svg id="Layer_1" enable-background="new 0 0 512 512" height="512" viewBox="0 0 512 512" width="512" xmlns="http://www.w3.org/2000/svg"><g id="XMLID_513_"><g id="XMLID_143_"><g id="XMLID_2320_"><g id="XMLID_2321_"><g id="XMLID_2324_"><g id="XMLID_2326_"><g id="XMLID_2329_"><g id="XMLID_2331_"><g id="XMLID_2371_"><g id="XMLID_2374_"><g id="XMLID_2376_"><g id="XMLID_2382_"><g id="XMLID_2383_"><g id="XMLID_2384_"><g id="XMLID_2385_"><g id="XMLID_2386_"><g id="XMLID_2387_"><circle id="XMLID_2388_" cx="256" cy="256" fill="#ff637b" r="256"/></g></g></g></g></g></g></g></g></g></g></g></g></g></g></g></g><path id="XMLID_1383_" d="m512 256c0-15.128-1.322-29.945-3.839-44.352l-132.481-133.568-25.18 7.507-53.34-53.587-168.16 157.57 53.875 50.68 1.792 5.583-95.317 47.441 46.969 56.998 85.535 85.374-7.015 41.607 34.664 34.664c2.16.054 4.325.082 6.498.082 141.384.001 255.999-114.614 255.999-255.999z" fill="#e03b5a"/><g id="XMLID_2708_"><path id="XMLID_2618_" d="m214.838 32h82.324v444h-82.324z" fill="#324a5e"/><path id="XMLID_2731_" d="m256 32h41.16v444h-41.16z" fill="#213949"/><g id="XMLID_1762_"><path id="XMLID_1738_" d="m375.681 78.08h-246.681v111.49h246.681l46.969-55.745z" fill="#7fe881"/><g id="XMLID_2712_"><g id="XMLID_2713_"><path id="XMLID_2727_" d="m422.65 133.83-46.97 55.74h-119.68v-111.49h119.68z" fill="#5bc980"/></g></g><path id="XMLID_1763_" d="m136.319 349.019h246.681v-111.49h-246.681l-46.969 55.745z" fill="#ffc56e"/><path id="XMLID_2726_" d="m256 237.53h127v111.49h-127z" fill="#f2a846"/></g></g></g></svg>