<svg id="Layer_1" enable-background="new 0 0 512 512" height="512" viewBox="0 0 512 512" width="512" xmlns="http://www.w3.org/2000/svg"><g id="XMLID_1964_"><g id="XMLID_555_"><g id="XMLID_556_"><g id="XMLID_573_"><g id="XMLID_574_"><g id="XMLID_575_"><g id="XMLID_576_"><g id="XMLID_577_"><g id="XMLID_578_"><g id="XMLID_579_"><g id="XMLID_580_"><g id="XMLID_581_"><g id="XMLID_584_"><g id="XMLID_585_"><g id="XMLID_586_"><circle id="XMLID_587_" cx="256" cy="256" fill="#4bb9ec" r="256"/></g></g></g></g></g></g></g></g></g></g></g></g></g></g><path id="XMLID_2323_" d="m512 256c0-33.591-6.481-65.666-18.243-95.057l-90.522-90.522-294.47 371.158 52.178 52.178c29.391 11.762 61.465 18.243 95.057 18.243 141.385 0 256-114.615 256-256z" fill="#0095ff"/><g id="XMLID_1702_"><g id="XMLID_1704_"><path id="XMLID_1712_" d="m108.765 340.296h294.471v79.143h-294.471z" fill="#fff"/><path id="XMLID_1814_" d="m272.25 340.3h130.99v79.14h-130.99z" fill="#fff5ca"/><g id="XMLID_1705_"><path id="XMLID_1709_" d="m141.258 70.421h261.978v292.781h-261.978z" fill="#ffc56e"/><path id="XMLID_1812_" d="m272.25 70.42h130.99v292.78h-130.99z" fill="#f2a846"/><path id="XMLID_2711_" d="m206.25 131.202h132v145h-132z" fill="#fff"/><path id="XMLID_1491_" d="m272.25 131.2h66v145h-66z" fill="#fff5ca"/><path id="XMLID_1707_" d="m108.765 70.421h35.92v292.781h-35.92z" fill="#324a5e"/><path id="XMLID_1706_" d="m144.685 405.659v-71.738h-35.92v107.658h294.174v-35.92z" fill="#213949"/><path id="XMLID_1807_" d="m272.25 405.66h130.69v35.92h-130.69z" fill="#132935"/></g></g><path id="XMLID_1703_" d="m144.685 333.921h258.55v34.5h-258.55z" fill="#f2a846"/><path id="XMLID_1808_" d="m272.25 333.92h130.99v34.5h-130.99z" fill="#dd8c2c"/></g></g></svg>