<svg id="Layer_1" enable-background="new 0 0 512 512" height="512" viewBox="0 0 512 512" width="512" xmlns="http://www.w3.org/2000/svg"><g id="XMLID_828_"><g id="XMLID_610_"><g id="XMLID_1626_"><g id="XMLID_1627_"><g id="XMLID_1628_"><g id="XMLID_1629_"><g id="XMLID_1630_"><g id="XMLID_1631_"><g id="XMLID_1632_"><g id="XMLID_1633_"><g id="XMLID_1634_"><g id="XMLID_1635_"><g id="XMLID_1636_"><g id="XMLID_1637_"><g id="XMLID_1638_"><g id="XMLID_1639_"><g id="XMLID_1640_"><circle id="XMLID_1641_" cx="256" cy="256" fill="#ffc56e" r="256"/></g></g></g></g></g></g></g></g></g></g></g></g></g></g></g></g><path id="XMLID_1020_" d="m136.101 357.378-73.929 28.312 113.406 113.406c25.293 8.363 52.325 12.904 80.422 12.904 65.006 0 124.341-24.243 169.491-64.164l-237.602-237.602z" fill="#f2a846"/><path id="XMLID_1023_" d="m499.096 175.578-113.406-113.406-53.843 73.511-34.704-34.704-37.587 70.822 21.155 21.155-33.679 37.884 197.898 197.898c41.652-45.533 67.07-106.165 67.07-172.738 0-28.096-4.541-55.129-12.904-80.422z" fill="#f2a846"/><g id="XMLID_1288_"><path id="XMLID_2210_" d="m281.161 264.968-34.129-34.129c-6.736-6.736-6.736-17.659 0-24.395l32.004-32.004 58.524 58.524-32.004 32.004c-6.737 6.737-17.659 6.737-24.395 0z" fill="#fff"/><path id="XMLID_1840_" d="m337.558 232.962-32.004 32.004c-6.739 6.739-17.656 6.739-24.395 0l-17.063-17.062 44.201-44.201z" fill="#fff5ca"/><path id="XMLID_1692_" d="m185.682 406.96-80.643-80.643c-9.178-9.177-9.178-24.057 0-33.234l82.849-82.849 113.877 113.877-82.849 82.849c-9.177 9.178-24.056 9.178-33.234 0z" fill="#324a5e"/><path id="XMLID_1842_" d="m301.764 324.108-82.852 82.852c-9.178 9.178-24.056 9.178-33.234 0l-40.319-40.319 99.469-99.469z" fill="#213949"/><g id="XMLID_1287_"><path id="XMLID_2183_" d="m340.199 252.444-80.643-80.643c-9.177-9.177-9.177-24.057 0-33.234l37.587-37.587 113.877 113.877-37.587 37.587c-9.177 9.177-24.056 9.177-33.234 0z" fill="#324a5e"/><path id="XMLID_1841_" d="m411.019 214.854-37.59 37.59c-9.178 9.178-24.056 9.178-33.234 0l-40.319-40.319 54.207-54.207z" fill="#213949"/><path id="XMLID_2143_" d="m327.017 75.44h90.705v128.381h-90.705z" fill="#576770" transform="matrix(.707 .707 -.707 .707 207.798 -222.408)"/><g id="XMLID_1809_"><path id="XMLID_1839_" d="m324.212 132.99h128.38v45.35h-128.38z" fill="#324a5e" transform="matrix(.707 -.707 .707 .707 3.689 320.235)"/></g></g><path id="XMLID_1651_" d="m88.266 322.692h90.705v111.378h-90.705z" fill="#576770" transform="matrix(.707 .707 -.707 .707 306.692 16.342)"/><g id="XMLID_1806_"><path id="XMLID_1838_" d="m93.965 371.738h111.38v45.35h-111.38z" fill="#324a5e" transform="matrix(.707 -.707 .707 .707 -235.059 221.342)"/></g><path id="XMLID_1691_" d="m166.133 286.878h85.955v32.024h-85.955z" fill="#576770" transform="matrix(.707 .707 -.707 .707 275.422 -59.149)"/><path id="XMLID_1821_" d="m208.297 296.594h32.02v42.98h-32.02z" fill="#324a5e" transform="matrix(.707 -.707 .707 .707 -159.221 251.774)"/></g></g></svg>