<svg id="Layer_1" enable-background="new 0 0 512 512" height="512" viewBox="0 0 512 512" width="512" xmlns="http://www.w3.org/2000/svg"><g id="XMLID_2976_"><g id="XMLID_640_"><g id="XMLID_641_"><g id="XMLID_642_"><g id="XMLID_643_"><g id="XMLID_645_"><g id="XMLID_646_"><g id="XMLID_648_"><g id="XMLID_649_"><g id="XMLID_650_"><g id="XMLID_651_"><g id="XMLID_652_"><g id="XMLID_653_"><g id="XMLID_654_"><g id="XMLID_655_"><circle id="XMLID_656_" cx="256" cy="256" fill="#4bb9ec" r="256"/></g></g></g></g></g></g></g></g></g></g></g></g></g></g><path id="XMLID_2973_" d="m512 256c0-32.034-5.901-62.686-16.647-90.95l-95.856-95.856-286.993 373.612 52.547 52.547c28.264 10.746 58.915 16.647 90.949 16.647 141.385 0 256-114.615 256-256z" fill="#0095ff"/><g id="XMLID_1879_"><g id="XMLID_550_"><g id="XMLID_170_"><g id="XMLID_2369_"><path id="XMLID_765_" d="m112.504 311.896h286.993v130.91h-286.993z" fill="#ffc56e"/></g><g id="XMLID_978_"><path id="XMLID_992_" d="m256 311.9h143.5v130.91h-143.5z" fill="#f2a846"/></g><g id="XMLID_45_"><g id="XMLID_285_"><path id="XMLID_2271_" d="m112.504 405.196v-336.002h286.992v271.041l-64.961 64.961z" fill="#fff"/></g><g id="XMLID_976_"><path id="XMLID_994_" d="m399.5 69.19v271.04l-64.96 64.97h-78.54v-336.01z" fill="#fff5ca"/></g><g id="XMLID_289_"><path id="XMLID_2182_" d="m399.496 340.235-64.961 64.961v-64.961z" fill="#ffe767"/></g></g><g id="XMLID_446_"><path id="XMLID_9_" d="m169.5 242.461h173v34.5h-173z" fill="#576770"/></g><g id="XMLID_970_"><path id="XMLID_990_" d="m256 242.46h86.5v34.5h-86.5z" fill="#213949"/></g><g id="XMLID_448_"><path id="XMLID_13_" d="m169.5 311.461h86.5v34.5h-86.5z" fill="#576770"/></g></g></g><g id="XMLID_1443_"><g id="XMLID_1911_"><path id="XMLID_1915_" d="m215.928 151.077v15 20.95h32.655v-15h-17.655v-5.95h16.353v-15h-16.353v-5.95h17.655v-15h-32.655z" fill="#ff637b"/><path id="XMLID_1914_" d="m280.459 145.279c4.712-1.418 9.301 2.054 9.596 2.284l5.692 4.785 9.652-11.482-5.741-4.826c-3.972-3.338-13.396-8.175-23.525-5.123-6.672 2.01-11.397 7.303-12.332 13.814-.884 6.162 1.79 12.091 6.978 15.474.331.216.679.405 1.039.566.248.11 6.136 2.732 12.763 5.176 2.565.946 4.302 2.33 4.131 3.29-.186 1.04-1.904 2.983-5.207 2.983-3.589 0-7.02-1.422-9.179-3.805l-5.037-5.557-11.114 10.073 5.036 5.557c5.029 5.549 12.427 8.731 20.294 8.731 9.985 0 18.386-6.454 19.974-15.346 1.154-6.468-1.742-15.587-13.706-20-4.774-1.761-9.247-3.67-11.028-4.445-.08-.119-.134-.296-.096-.567.099-.689.758-1.265 1.81-1.582z" fill="#e03b5a"/><path id="XMLID_1913_" d="m163.795 144.258h11.629v42.287h15v-42.287h11.724v-15h-38.353z" fill="#ff637b"/><path id="XMLID_1912_" d="m350 129.258h-38.353v15h11.629v42.287h15v-42.287h11.724z" fill="#e03b5a"/></g></g></g></g></svg>