<svg id="Layer_1" enable-background="new 0 0 512 512" height="512" viewBox="0 0 512 512" width="512" xmlns="http://www.w3.org/2000/svg"><g id="XMLID_707_"><g id="XMLID_675_"><g id="XMLID_676_"><g id="XMLID_677_"><g id="XMLID_678_"><g id="XMLID_680_"><g id="XMLID_681_"><g id="XMLID_682_"><g id="XMLID_683_"><g id="XMLID_684_"><g id="XMLID_685_"><g id="XMLID_686_"><g id="XMLID_687_"><g id="XMLID_688_"><g id="XMLID_689_"><circle id="XMLID_690_" cx="256" cy="256" fill="#7fe881" r="256"/></g></g></g></g></g></g></g></g></g></g></g></g></g></g><path id="XMLID_837_" d="m512 256c0-34.479-6.832-67.357-19.191-97.377l-85.032-85.033-303.554 364.82 54.399 54.399c30.021 12.359 62.899 19.191 97.378 19.191 141.385 0 256-114.615 256-256z" fill="#5bc980"/><g id="XMLID_1887_"><path id="XMLID_851_" d="m128.487 73.59h255.025v364.82h-255.025z" fill="#324a5e"/><path id="XMLID_2590_" d="m256 73.59h127.51v364.82h-127.51z" fill="#213949"/><g id="XMLID_1044_"><path id="XMLID_998_" d="m199.59 230.223h364.82v51.554h-364.82z" fill="#324a5e" transform="matrix(0 -1 1 0 126 638)"/><path id="XMLID_1045_" d="m-52.41 230.223h364.82v51.554h-364.82z" fill="#576770" transform="matrix(0 -1 1 0 -126 386)"/></g><g id="XMLID_1195_"><path id="XMLID_1538_" d="m220.941 91.398h70.117v34.5h-70.117z" fill="#fff" transform="matrix(0 -1 1 0 147.352 364.648)"/><path id="XMLID_2586_" d="m256 73.59h17.25v70.12h-17.25z" fill="#fff5ca"/><path id="XMLID_1553_" d="m207 238.75h98v34.5h-98z" fill="#fff" transform="matrix(0 -1 1 0 0 512)"/><path id="XMLID_2585_" d="m256 207h17.25v98h-17.25z" fill="#fff5ca"/><path id="XMLID_1567_" d="m220.941 386.102h70.117v34.5h-70.117z" fill="#fff" transform="matrix(0 -1 1 0 -147.352 659.352)"/><g id="XMLID_2573_"><path id="XMLID_2584_" d="m256 368.29h17.25v70.12h-17.25z" fill="#fff5ca"/></g></g></g></g></svg>