<svg id="Layer_1" enable-background="new 0 0 512 512" height="512" viewBox="0 0 512 512" width="512" xmlns="http://www.w3.org/2000/svg"><g id="XMLID_1131_"><g id="XMLID_330_"><g id="XMLID_1086_"><g id="XMLID_1087_"><g id="XMLID_1088_"><g id="XMLID_1089_"><g id="XMLID_1090_"><g id="XMLID_1091_"><g id="XMLID_1092_"><g id="XMLID_1093_"><g id="XMLID_1094_"><g id="XMLID_1095_"><g id="XMLID_1096_"><g id="XMLID_1097_"><g id="XMLID_1098_"><g id="XMLID_1099_"><circle id="XMLID_1100_" cx="256" cy="256" fill="#7fe881" r="256"/></g></g></g></g></g></g></g></g></g></g></g></g></g></g></g><path id="XMLID_3310_" d="m512 256c0-30.2-5.245-59.172-14.848-86.074l-46.721-46.721-381.388 273.065 100.881 100.881c26.902 9.604 55.874 14.849 86.076 14.849 141.385 0 256-114.615 256-256z" fill="#5bc980"/><g id="XMLID_1156_"><path id="XMLID_862_" d="m420.827 403.667h-329.656c-20.35 0-37-16.65-37-37v-221.334c0-20.35 16.65-37 37-37h329.656c20.35 0 37 16.65 37 37v221.333c0 20.351-16.65 37.001-37 37.001z" fill="#fff"/><path id="XMLID_1108_" d="m457.829 145.33v221.34c0 20.35-16.65 37-37 37h-164.83v-295.34h164.83c20.35 0 37 16.65 37 37z" fill="#fff5ca"/><g id="XMLID_1031_"><path id="XMLID_940_" d="m98.16 172.25h123.012v132.5h-123.012z" fill="#ffc56e"/><path id="XMLID_431_" d="m221.172 339.75h-122.876v-36.083c0-21.493 17.424-38.917 38.917-38.917h45.042c21.493 0 38.917 17.424 38.917 38.917z" fill="#4bb9ec"/><circle id="XMLID_980_" cx="159.666" cy="241.387" fill="#324a5e" r="31.971"/></g><g id="XMLID_1155_" fill="#213949"><path id="XMLID_1032_" d="m292.249 206.5h129.083v34.5h-129.083z"/><path id="XMLID_1062_" d="m292.249 271h98v34.5h-98z"/></g></g></g></svg>