<svg id="Layer_1" enable-background="new 0 0 512 512" height="512" viewBox="0 0 512 512" width="512" xmlns="http://www.w3.org/2000/svg"><g id="XMLID_1046_"><g id="XMLID_1956_"><g id="XMLID_1975_"><g id="XMLID_1976_"><g id="XMLID_1977_"><g id="XMLID_1978_"><g id="XMLID_1979_"><g id="XMLID_1980_"><g id="XMLID_1981_"><g id="XMLID_1982_"><g id="XMLID_1983_"><g id="XMLID_1984_"><g id="XMLID_1985_"><g id="XMLID_1986_"><g id="XMLID_2000_"><circle id="XMLID_2001_" cx="256" cy="256" fill="#324a5e" r="256"/></g></g></g></g></g></g></g></g></g></g></g></g></g></g><path id="XMLID_1742_" d="m510.547 283.32-27.047-27.321-173.75 5.251-76.976-62.07-65.607 3.82-38.219-37.859-100.448 90.858 254.576 254.576c119.675-12.582 214.777-107.613 227.471-227.255z" fill="#213949"/><g id="XMLID_1004_"><g id="XMLID_496_"><path id="XMLID_76_" d="m232.774 199.18h-103.826v-34.039l-100.448 90.858 100.448 90.859v-34.04h103.826z" fill="#ffc56e"/><path id="XMLID_457_" d="m279.226 199.18h103.826v-34.039l100.448 90.858-100.448 90.859v-34.04h-103.826z" fill="#7fe881"/></g><g id="XMLID_830_"><path id="XMLID_842_" d="m232.77 255.999v56.82h-103.82v34.04l-100.45-90.86z" fill="#f2a846"/><path id="XMLID_841_" d="m383.05 346.859v-34.04h-103.82v-56.82h204.27z" fill="#5bc980"/></g></g></g></svg>