<svg id="Layer_1" enable-background="new 0 0 512 512" height="512" viewBox="0 0 512 512" width="512" xmlns="http://www.w3.org/2000/svg"><g id="XMLID_1452_"><g id="XMLID_1971_"><g id="XMLID_2652_"><g id="XMLID_2653_"><g id="XMLID_2654_"><g id="XMLID_2655_"><g id="XMLID_2656_"><g id="XMLID_2657_"><g id="XMLID_2658_"><g id="XMLID_2659_"><g id="XMLID_2660_"><g id="XMLID_2661_"><g id="XMLID_2662_"><g id="XMLID_2663_"><g id="XMLID_2664_"><g id="XMLID_2665_"><g id="XMLID_2666_"><circle id="XMLID_2667_" cx="256" cy="256" fill="#7fe881" r="256"/></g></g></g></g></g></g></g></g></g></g></g></g></g></g></g></g><path id="XMLID_2455_" d="m511.913 262.703-198.913-198.913-208.091 356.859 81.874 81.874c22.017 6.169 45.23 9.477 69.217 9.477 139.144 0 252.358-111.01 255.913-249.297z" fill="#5bc980"/><g id="XMLID_786_"><path id="XMLID_767_" d="m365.49 345.77h-218.98l13.92-74.77 18.57-24.25-9.54-24.25 12.56-67.5 18.57-24.25-9.54-24.25 7.95-42.71h114l7.95 42.71-9.283 24.25 18.313 24.25 12.56 67.5-9.84 21.26 18.87 27.24z" fill="#e03b5a"/><path id="XMLID_923_" d="m365.49 345.77h-109.49v-281.98h57l7.95 42.71-9.28 24.25 18.31 24.25 12.56 67.5-9.84 21.26 18.87 27.24 12.13 65.15z" fill="#ce1b42"/><path id="XMLID_605_" d="m104.909 336.152h302.182v84.497h-302.182z" fill="#ff637b"/><path id="XMLID_916_" d="m256 336.15h151.09v84.5h-151.09z" fill="#e03b5a"/><path id="XMLID_759_" d="m329.98 155h-147.96l9.03-48.5h129.9z" fill="#fff"/><g id="XMLID_884_"><path id="XMLID_915_" d="m329.98 155h-73.98v-48.5h64.95z" fill="#fff5ca"/></g><path id="XMLID_760_" d="m351.57 271h-191.14l9.03-48.5h173.08z" fill="#fff"/><path id="XMLID_914_" d="m351.57 271h-95.57v-48.5h86.54z" fill="#fff5ca"/></g></g></svg>