<svg id="Layer_1" enable-background="new 0 0 512 512" height="512" viewBox="0 0 512 512" width="512" xmlns="http://www.w3.org/2000/svg"><g id="XMLID_997_"><g id="XMLID_2076_"><g id="XMLID_2548_"><g id="XMLID_2549_"><g id="XMLID_2550_"><g id="XMLID_2551_"><g id="XMLID_2552_"><g id="XMLID_2553_"><g id="XMLID_2554_"><g id="XMLID_2555_"><g id="XMLID_2556_"><g id="XMLID_2557_"><g id="XMLID_2558_"><g id="XMLID_2559_"><g id="XMLID_2560_"><g id="XMLID_2561_"><g id="XMLID_2562_"><circle id="XMLID_2563_" cx="256" cy="256" fill="#ff637b" r="256"/></g></g></g></g></g></g></g></g></g></g></g></g></g></g></g></g><path id="XMLID_865_" d="m512 256c0-9.76-.565-19.387-1.629-28.863l-109.298-109.298c-36.49-38.304-321.538 246.744-283.234 283.234l109.298 109.298c9.476 1.064 19.103 1.629 28.863 1.629 141.385 0 256-114.615 256-256z" fill="#e03b5a"/><g id="XMLID_1334_"><g id="XMLID_2570_"><g id="XMLID_2571_"><g id="XMLID_2572_"><g id="XMLID_2574_"><g id="XMLID_2575_"><g id="XMLID_2576_"><g id="XMLID_2577_"><g id="XMLID_2578_"><g id="XMLID_2579_"><g id="XMLID_2580_"><g id="XMLID_2582_"><g id="XMLID_2587_"><g id="XMLID_2588_"><g id="XMLID_2589_"><path id="XMLID_2791_" d="m256 55.66c-110.64 0-200.34 89.7-200.34 200.34s89.7 200.34 200.34 200.34 200.34-89.7 200.34-200.34-89.7-200.34-200.34-200.34zm0 327.34c-70.14 0-127-56.86-127-127s56.86-127 127-127 127 56.86 127 127-56.86 127-127 127z" fill="#576770"/></g></g></g></g></g></g></g></g></g></g></g></g></g></g><g id="XMLID_1510_"><g id="XMLID_1888_"><g id="XMLID_1890_"><g id="XMLID_1893_"><g id="XMLID_1894_"><g id="XMLID_1895_"><g id="XMLID_1896_"><g id="XMLID_1897_"><g id="XMLID_1898_"><g id="XMLID_1899_"><g id="XMLID_1900_"><g id="XMLID_1901_"><g id="XMLID_1902_"><g id="XMLID_1904_"><g id="XMLID_1906_"><path id="XMLID_2565_" d="m256 55.66v73.34c70.14 0 127 56.86 127 127s-56.86 127-127 127v73.34c110.64 0 200.34-89.7 200.34-200.34s-89.7-200.34-200.34-200.34z" fill="#324a5e"/></g></g></g></g></g></g></g></g></g></g></g></g></g></g></g><path id="XMLID_1500_" d="m256 112c-79.526 0-144 64.474-144 144s64.474 144 144 144 144-64.474 144-144-64.474-144-144-144zm101.311 212.412-31.755-31.756c-2.733-2.733-2.67-6.208-1.7-8.549s3.383-4.843 7.247-4.843h44.912c-3.173 16.463-9.641 31.753-18.704 45.148zm-221.326-45.148h44.912c3.865 0 6.278 2.501 7.248 4.843.97 2.341 1.032 5.816-1.701 8.549l-31.755 31.756c-9.063-13.395-15.531-28.685-18.704-45.148zm18.704-91.676 31.755 31.756c2.733 2.733 2.67 6.208 1.7 8.549s-3.383 4.843-7.248 4.843h-44.912c3.174-16.463 9.642-31.753 18.705-45.148zm221.326 45.148h-44.912c-3.865 0-6.278-2.501-7.247-4.843-.97-2.341-1.032-5.816 1.701-8.549l31.755-31.756c9.062 13.395 15.53 28.685 18.703 45.148zm-83.359-46.292c-2.732 2.732-6.207 2.67-8.549 1.7-2.341-.97-4.843-3.383-4.843-7.248v-44.912c16.463 3.173 31.753 9.641 45.148 18.704zm-105.068-31.755c13.395-9.063 28.685-15.531 45.148-18.704v44.912c0 3.865-2.501 6.278-4.843 7.248-2.342.969-5.817 1.032-8.549-1.701zm31.756 170.867c2.734-2.732 6.209-2.669 8.549-1.701 2.341.97 4.843 3.383 4.843 7.247v44.912c-16.463-3.173-31.753-9.641-45.148-18.704zm59.92 5.547c0-3.865 2.501-6.278 4.843-7.247 2.341-.97 5.817-1.032 8.549 1.701l31.756 31.755c-13.394 9.063-28.684 15.531-45.148 18.704z" fill="#fff"/><path id="XMLID_1347_" d="m256 112v288c79.53 0 144-64.47 144-144s-64.47-144-144-144zm120.01 120.74h-44.91c-3.86 0-6.28-2.51-7.24-4.85-.97-2.34-1.04-5.81 1.7-8.55l31.75-31.75c9.06 13.39 15.53 28.68 18.7 45.15zm-83.35-46.3c-2.74 2.74-6.21 2.67-8.55 1.7s-4.85-3.38-4.85-7.24v-44.92c16.47 3.18 31.76 9.65 45.15 18.71zm-8.55 137.42c2.34-.98 5.81-1.04 8.55 1.7l31.75 31.75c-13.39 9.06-28.68 15.53-45.15 18.7v-44.91c0-3.86 2.51-6.28 4.85-7.24zm39.75-39.75c.96-2.34 3.38-4.85 7.24-4.85h44.91c-3.17 16.47-9.64 31.76-18.7 45.15l-31.75-31.75c-2.74-2.74-2.67-6.21-1.7-8.55z" fill="#fff5ca"/><circle id="XMLID_1335_" cx="256" cy="256" fill="#fff5ca" r="22.5"/><path id="XMLID_1362_" d="m278.5 256c0 12.43-10.07 22.5-22.5 22.5v-45c12.43 0 22.5 10.07 22.5 22.5z" fill="#ffe767"/></g></g></svg>