<svg id="Layer_1" enable-background="new 0 0 512 512" height="512" viewBox="0 0 512 512" width="512" xmlns="http://www.w3.org/2000/svg"><g id="XMLID_53_"><g id="XMLID_2144_"><g id="XMLID_2350_"><g id="XMLID_2351_"><g id="XMLID_2352_"><g id="XMLID_2353_"><g id="XMLID_2354_"><g id="XMLID_2355_"><g id="XMLID_2356_"><g id="XMLID_2357_"><g id="XMLID_2358_"><g id="XMLID_2359_"><g id="XMLID_2360_"><g id="XMLID_2361_"><g id="XMLID_2362_"><g id="XMLID_2363_"><g id="XMLID_2364_"><circle id="XMLID_2365_" cx="256" cy="256" fill="#ffc56e" r="256"/></g></g></g></g></g></g></g></g></g></g></g></g></g></g></g></g><path id="XMLID_1661_" d="m510.249 285.931-229.835-229.835-100.229 54.567 44.021 44.13.844 11.77 15.597 15.539 9.686 116.231-118.218 149.149 55.178 55.178c21.866 6.079 44.904 9.34 68.707 9.34 131.258 0 239.424-98.79 254.249-226.069z" fill="#f2a846"/><g id="XMLID_15_"><g id="XMLID_1714_"><g id="XMLID_1431_"><path id="XMLID_1432_" d="m169.5 205.235h173v39.75h-173z" fill="#324a5e" transform="matrix(0 -1 1 0 30.89 481.11)"/></g></g><g id="XMLID_1424_"><path id="XMLID_1447_" d="m256 138.61h19.88v173h-19.88z" fill="#213949"/></g><g id="XMLID_2_"><path id="XMLID_1804_" d="m319.822 341.599h-127.644v-23.976c0-17.294 14.019-31.313 31.313-31.313h65.018c17.294 0 31.313 14.019 31.313 31.313z" fill="#576770"/><g id="XMLID_1413_"><path id="XMLID_1446_" d="m319.82 317.62v23.98h-63.82v-55.29h32.51c17.29 0 31.31 14.02 31.31 31.31z" fill="#324a5e"/></g><path id="XMLID_1262_" d="m351.207 395.579h-190.414v-23.976c0-17.294 14.019-31.313 31.313-31.313h127.788c17.294 0 31.313 14.019 31.313 31.313z" fill="#324a5e"/><path id="XMLID_1444_" d="m351.21 371.6v23.98h-95.21v-55.29h63.89c17.3 0 31.32 14.02 31.32 31.31z" fill="#213949"/><path id="XMLID_1263_" d="m379.885 447.482h-247.77v-21.899c0-17.294 14.019-31.313 31.313-31.313h185.145c17.294 0 31.313 14.019 31.313 31.313v21.899z" fill="#576770"/><path id="XMLID_1442_" d="m379.89 425.58v21.9h-123.89v-53.21h92.57c.89 0 1.77.04 2.64.11 16.06 1.34 28.68 14.8 28.68 31.2z" fill="#324a5e"/></g><path id="XMLID_1304_" d="m222.208 161.263-2.578-11.047c-3.365-14.423-13.477-26.34-27.16-32.008-17.168-7.113-28.362-23.866-28.362-42.449 0-19.059 15.45-34.509 34.509-34.509h49.901c23.034 0 41.706 18.673 41.706 41.706v75.67c0 6.41-5.196 11.606-11.606 11.606h-45.108c-5.394 0-10.077-3.716-11.302-8.969z" fill="#fff"/><g id="XMLID_1411_"><path id="XMLID_1441_" d="m290.22 82.96v75.67c0 6.41-5.19 11.6-11.6 11.6h-22.62v-128.31c19.46 3.52 34.22 20.55 34.22 41.04z" fill="#fff5ca"/></g></g></g></svg>