<svg id="Layer_1" enable-background="new 0 0 512 512" height="512" viewBox="0 0 512 512" width="512" xmlns="http://www.w3.org/2000/svg"><g id="XMLID_1180_"><g id="XMLID_1109_"><g id="XMLID_2682_"><g id="XMLID_2683_"><g id="XMLID_2684_"><g id="XMLID_2686_"><g id="XMLID_2687_"><g id="XMLID_2688_"><g id="XMLID_2689_"><g id="XMLID_2690_"><g id="XMLID_2691_"><g id="XMLID_2709_"><g id="XMLID_2710_"><g id="XMLID_2714_"><g id="XMLID_2715_"><g id="XMLID_2716_"><g id="XMLID_2717_"><circle id="XMLID_2718_" cx="256" cy="256" fill="#ffc56e" r="256"/></g></g></g></g></g></g></g></g></g></g></g></g></g></g></g></g><path id="XMLID_1494_" d="m512 256c0-19.59-2.209-38.662-6.376-56.99l-102.822-102.822-287.397 325.831 83.605 83.605c18.328 4.167 37.4 6.376 56.99 6.376 141.385 0 256-114.615 256-256z" fill="#f2a846"/><path id="XMLID_549_" d="m364.592 433.717h-217.184c-27.45 0-49.908-22.459-49.908-49.908v-255.617c0-27.45 22.459-49.908 49.908-49.908h217.183c27.45 0 49.908 22.459 49.908 49.908v255.617c.001 27.449-22.458 49.908-49.907 49.908z" fill="#4bb9ec"/><path id="XMLID_548_" d="m414.5 128.19v255.62c0 27.45-22.46 49.91-49.91 49.91h-108.59v-355.44h108.59c27.45 0 49.91 22.46 49.91 49.91z" fill="#0095ff"/><path id="XMLID_1050_" d="m337.57 303.676v-111.641c0-31.679-25.681-57.36-57.36-57.36h-48.42c-31.679 0-57.36 25.681-57.36 57.36v185.29h46.51v-176.29c0-10.963 8.887-19.85 19.85-19.85h30.42c10.963 0 19.85 8.887 19.85 19.85v102.64h-14.246l38.614 73.65 38.611-73.649z" fill="#fff"/><path id="XMLID_2075_" d="m354.04 303.68-38.61 73.65-38.62-73.66 14.25.01v-102.64c0-10.97-8.89-19.85-19.85-19.85h-15.21v-46.51h24.21c31.68 0 57.36 25.68 57.36 57.36v111.64z" fill="#fff5ca"/></g></svg>