<svg id="Layer_1" enable-background="new 0 0 512 512" height="512" viewBox="0 0 512 512" width="512" xmlns="http://www.w3.org/2000/svg"><g id="XMLID_1689_"><g id="XMLID_1127_"><g id="XMLID_2527_"><g id="XMLID_2528_"><g id="XMLID_2529_"><g id="XMLID_2530_"><g id="XMLID_2532_"><g id="XMLID_2533_"><g id="XMLID_2534_"><g id="XMLID_2535_"><g id="XMLID_2536_"><g id="XMLID_2537_"><g id="XMLID_2538_"><g id="XMLID_2539_"><g id="XMLID_2540_"><g id="XMLID_2541_"><g id="XMLID_2542_"><circle id="XMLID_2543_" cx="256" cy="256" fill="#4bb9ec" r="256"/></g></g></g></g></g></g></g></g></g></g></g></g></g></g></g></g><path id="XMLID_2372_" d="m512 256c0-33.18-6.314-64.884-17.803-93.98l-60.358-60.359-348.883 315.473 77.064 77.064c29.095 11.488 60.8 17.802 93.98 17.802 141.385 0 256-114.615 256-256z" fill="#0095ff"/><g id="XMLID_3040_"><g id="XMLID_3065_"><path id="XMLID_3067_" d="m409.581 422.804h-307.162c-16.461 0-29.929-13.468-29.929-29.929v-273.75c0-16.461 13.468-29.929 29.929-29.929h307.162c16.461 0 29.929 13.468 29.929 29.929v273.751c0 16.46-13.468 29.928-29.929 29.928z" fill="#576770"/><path id="XMLID_3066_" d="m439.51 119.123v273.753c0 16.46-13.47 29.93-29.93 29.93h-155.75v-333.613h155.75c16.46 0 29.93 13.47 29.93 29.93z" fill="#324a5e"/></g><g id="XMLID_3039_"><path id="XMLID_3063_" d="m104.25 132.457h303.5v233h-303.5z" fill="#fff5ca"/><path id="XMLID_3062_" d="m104.25 132.457h303.5v233h-303.5z" fill="#fff5ca"/><path id="XMLID_3061_" d="m253.83 132.457h153.92v233h-153.92z" fill="#ffe767"/><path id="XMLID_3060_" d="m407.75 270.627v34.5h-63.81v60.33h-34.5v-60.33h-119.4l-15.83 60.33h-35.46l15.83-60.33h-50.33v-34.5h58.55l32.92-138.17h35.46l-14.47 60.75h56.79v34.5h-65.01l-10.23 42.92z" fill="#ffc56e"/><path id="XMLID_3059_" d="m407.75 270.627v34.5h-63.81v60.33h-34.5v-60.33h-55.61v-34.5z" fill="#f2a846"/><g id="XMLID_2525_"><g id="XMLID_2894_"><path id="XMLID_3056_" d="m322.31 209.837 18.94 22.922 18.94-22.922z" fill="#ff637b"/><path id="XMLID_3037_" d="m360.19 209.836-5.336 6.458-13.604 16.464v-22.922z" fill="#e03b5a"/></g><circle id="XMLID_2524_" cx="341.25" cy="193.801" fill="#e03b5a" r="26.799"/><path id="XMLID_1917_" d="m368.049 193.802c0 10.709-6.283 19.951-15.362 24.242-3.469 1.639-7.346 2.557-11.437 2.557v-53.598c14.8 0 26.799 11.997 26.799 26.799z" fill="#ce1b42"/></g><path id="XMLID_2887_" d="m253.83 193.207h19.67v34.5h-19.67z" fill="#f2a846"/></g></g></g></svg>