<svg id="Layer_1" enable-background="new 0 0 512 512" height="512" viewBox="0 0 512 512" width="512" xmlns="http://www.w3.org/2000/svg"><g id="XMLID_1063_"><g id="XMLID_1192_"><g id="XMLID_2722_"><g id="XMLID_2723_"><g id="XMLID_2724_"><g id="XMLID_2725_"><g id="XMLID_2728_"><g id="XMLID_2729_"><g id="XMLID_2730_"><g id="XMLID_2732_"><g id="XMLID_2733_"><g id="XMLID_2734_"><g id="XMLID_2735_"><g id="XMLID_2736_"><g id="XMLID_2737_"><g id="XMLID_2738_"><g id="XMLID_2739_"><circle id="XMLID_2740_" cx="256" cy="256" fill="#324a5e" r="256"/></g></g></g></g></g></g></g></g></g></g></g></g></g></g></g></g><path id="XMLID_1061_" d="m512 256c0-9.76-.565-19.387-1.629-28.863l-109.298-109.298c-36.49-38.304-321.538 246.744-283.234 283.234l109.298 109.298c9.476 1.064 19.103 1.629 28.863 1.629 141.385 0 256-114.615 256-256z" fill="#213949"/><g id="XMLID_435_"><g id="XMLID_2220_"><g id="XMLID_2221_"><g id="XMLID_2222_"><g id="XMLID_2223_"><g id="XMLID_2224_"><g id="XMLID_2225_"><g id="XMLID_2226_"><g id="XMLID_2228_"><g id="XMLID_2229_"><g id="XMLID_2230_"><g id="XMLID_2231_"><g id="XMLID_2232_"><g id="XMLID_2233_"><g id="XMLID_2234_"><circle id="XMLID_2235_" cx="256" cy="256" fill="#ff637b" r="200.337"/></g></g></g></g></g></g></g></g></g></g></g></g></g></g></g><g id="XMLID_412_"><g id="XMLID_2236_"><g id="XMLID_2237_"><g id="XMLID_2238_"><g id="XMLID_2239_"><g id="XMLID_2240_"><g id="XMLID_2241_"><g id="XMLID_2242_"><g id="XMLID_2243_"><g id="XMLID_2245_"><g id="XMLID_2265_"><g id="XMLID_2266_"><g id="XMLID_2267_"><g id="XMLID_2268_"><g id="XMLID_2269_"><path id="XMLID_2270_" d="m456.333 256c0 110.643-89.691 200.333-200.333 200.333v-400.666c110.643 0 200.333 89.69 200.333 200.333z" fill="#e03b5a"/></g></g></g></g></g></g></g></g></g></g></g></g></g></g></g><path id="XMLID_2203_" d="m216.759 115.5h78.482v281h-78.482z" fill="#fff" transform="matrix(0 1 -1 0 512 0)"/><path id="XMLID_515_" d="m256 216.76h140.5v78.48h-140.5z" fill="#fff5ca"/></g></svg>