<svg id="Layer_1" enable-background="new 0 0 512 512" height="512" viewBox="0 0 512 512" width="512" xmlns="http://www.w3.org/2000/svg"><g id="XMLID_62_"><g id="XMLID_1236_"><g id="XMLID_2625_"><g id="XMLID_2627_"><g id="XMLID_2628_"><g id="XMLID_2629_"><g id="XMLID_2630_"><g id="XMLID_2631_"><g id="XMLID_2632_"><g id="XMLID_2633_"><g id="XMLID_2634_"><g id="XMLID_2635_"><g id="XMLID_2636_"><g id="XMLID_2637_"><g id="XMLID_2638_"><g id="XMLID_2639_"><g id="XMLID_2672_"><circle id="XMLID_2673_" cx="256" cy="256" fill="#7fe881" r="256"/></g></g></g></g></g></g></g></g></g></g></g></g></g></g></g></g><path id="XMLID_254_" d="m512 256c0-15.554-1.39-30.782-4.047-45.571l-115.172-115.171-11.281 3.159-21.019-21.384-32.814 47.967-53.748-47.968-43.752 40.968-42.811-40.968-68.138 359.786 64.95 64.95c22.792 6.651 46.892 10.232 71.832 10.232 141.385 0 256-114.615 256-256z" fill="#5bc980"/><g id="XMLID_1357_"><path id="XMLID_848_" d="m119.218 95.258h273.563v324.311h-273.563z" fill="#fff"/><path id="XMLID_1472_" d="m256 95.26h136.78v324.31h-136.78z" fill="#fff5ca"/><g id="XMLID_1052_"><g id="XMLID_1051_"><g id="XMLID_1328_"><path id="XMLID_1329_" d="m187.356 77.032v36.451c0 9.896-8.022 17.918-17.918 17.918-9.896 0-17.918-8.022-17.918-17.918v-36.451c0-9.896 8.022-17.918 17.918-17.918 9.896 0 17.918 8.022 17.918 17.918z" fill="#324a5e"/></g></g><g id="XMLID_1053_"><g id="XMLID_1323_"><path id="XMLID_1326_" d="m273.918 77.032v36.451c0 9.896-8.022 17.918-17.918 17.918-9.896 0-17.918-8.022-17.918-17.918v-36.451c0-9.896 8.022-17.918 17.918-17.918 9.896 0 17.918 8.022 17.918 17.918z" fill="#324a5e"/></g></g><g id="XMLID_1435_"><path id="XMLID_1462_" d="m273.92 77.034v36.45c0 9.9-8.02 17.92-17.92 17.92v-72.29c4.95 0 9.43 2.01 12.67 5.25 3.25 3.24 5.25 7.72 5.25 12.67z" fill="#213949"/></g><g id="XMLID_1059_"><path id="XMLID_1064_" d="m360.481 77.032v36.451c0 9.896-8.022 17.918-17.918 17.918-9.896 0-17.918-8.022-17.918-17.918v-36.451c0-9.896 8.022-17.918 17.918-17.918 9.895 0 17.918 8.022 17.918 17.918z" fill="#213949"/></g></g><g id="XMLID_1173_"><path id="XMLID_1174_" d="m119.218 402.319h273.563v34.5h-273.563z" fill="#ffc56e"/></g><g id="XMLID_1430_"><path id="XMLID_1461_" d="m256 402.32h136.78v34.5h-136.78z" fill="#f2a846"/></g><g id="XMLID_1356_"><g id="XMLID_1353_"><path id="XMLID_1355_" d="m164.219 178.358h183.562v34.5h-183.562z" fill="#576770"/></g><g id="XMLID_1417_"><g id="XMLID_1427_"><path id="XMLID_1459_" d="m256 178.36h91.78v34.156h-91.78z" fill="#324a5e"/></g></g><g id="XMLID_1359_"><path id="XMLID_1361_" d="m164.219 247.358h183.562v34.5h-183.562z" fill="#576770"/></g><g id="XMLID_1425_"><path id="XMLID_1458_" d="m256 247.016h91.78v34.5h-91.78z" fill="#324a5e"/></g><g id="XMLID_1364_"><path id="XMLID_1366_" d="m164.219 316.358h183.562v34.5h-183.562z" fill="#576770"/></g><g id="XMLID_1418_"><path id="XMLID_1457_" d="m256 316.36h91.78v34.5h-91.78z" fill="#324a5e"/></g></g></g></g></svg>