<svg id="Layer_1" enable-background="new 0 0 512 512" height="512" viewBox="0 0 512 512" width="512" xmlns="http://www.w3.org/2000/svg"><g id="XMLID_1666_"><g id="XMLID_379_"><g id="XMLID_380_"><g id="XMLID_381_"><g id="XMLID_382_"><g id="XMLID_383_"><g id="XMLID_384_"><g id="XMLID_385_"><g id="XMLID_386_"><g id="XMLID_387_"><g id="XMLID_388_"><g id="XMLID_389_"><g id="XMLID_390_"><g id="XMLID_391_"><g id="XMLID_392_"><circle id="XMLID_393_" cx="256" cy="256" fill="#ffc56e" r="256"/></g></g></g></g></g></g></g></g></g></g></g></g></g></g><path id="XMLID_1613_" d="m512 256c0-9.76-.565-19.387-1.629-28.863l-158.301-144.407-75.869-6.398c-122.803-10.355-221.356 99.743-197.514 220.654l14.035 71.174 134.415 142.212c9.476 1.063 19.103 1.628 28.863 1.628 141.385 0 256-114.615 256-256z" fill="#f2a846"/><g id="XMLID_644_"><path id="XMLID_1999_" d="m448.138 280.681c-30.79-30.668-108.52-63.262-191.927-63.262-84.144 0-161.904 32.813-192.349 63.687l30.465 32.13c18.17-18.426 72.896-44.794 139.173-49.928v168.358h45v-168.381c65.973 5.071 120.981 31.409 139.453 49.807z" fill="#576770"/><path id="XMLID_1998_" d="m448.14 280.68-30.19 32.41c-3.75-3.74-9.01-7.81-15.57-11.96-14.88-9.41-36.42-19.25-62.12-26.65-18.71-5.39-39.62-9.49-61.76-11.19v168.38h-22.5v-214.25h.21c28.23 0 55.81 3.73 81.14 9.87 27.18 6.57 51.78 15.9 71.8 26.35 16.44 8.57 29.8 17.89 38.99 27.04z" fill="#324a5e"/><g id="XMLID_787_"><g id="XMLID_789_"><g id="XMLID_790_"><g id="XMLID_791_"><g id="XMLID_792_"><g id="XMLID_794_"><g id="XMLID_796_"><g id="XMLID_1987_"><g id="XMLID_1988_"><g id="XMLID_1989_"><g id="XMLID_1990_"><g id="XMLID_1991_"><g id="XMLID_1992_"><g id="XMLID_1993_"><g id="XMLID_1994_"><path id="XMLID_1995_" d="m256 454.167c-109.27 0-198.167-88.897-198.167-198.167s88.897-198.167 198.167-198.167 198.167 88.897 198.167 198.167-88.897 198.167-198.167 198.167zm0-351.333c-84.457 0-153.167 68.71-153.167 153.167s68.71 153.166 153.167 153.166 153.167-68.71 153.167-153.167-68.71-153.166-153.167-153.166z" fill="#324a5e"/></g></g></g></g></g></g></g></g></g></g></g></g></g></g></g><g id="XMLID_306_"><g id="XMLID_307_"><g id="XMLID_413_"><g id="XMLID_414_"><g id="XMLID_415_"><g id="XMLID_416_"><g id="XMLID_417_"><g id="XMLID_418_"><g id="XMLID_588_"><g id="XMLID_598_"><g id="XMLID_604_"><g id="XMLID_657_"><g id="XMLID_658_"><g id="XMLID_782_"><g id="XMLID_783_"><path id="XMLID_784_" d="m256 57.83v45c83.67 0 151.89 67.44 153.15 150.81.01.79.02 1.57.02 2.36 0 15.7-2.37 30.86-6.79 45.13-17.15 55.55-65.14 97.71-123.88 106.39-7.35 1.09-14.86 1.65-22.5 1.65v45c109.27 0 198.17-88.9 198.17-198.17s-88.9-198.17-198.17-198.17z" fill="#213949"/></g></g></g></g></g></g></g></g></g></g></g></g></g></g></g><g id="XMLID_308_"><circle id="XMLID_788_" cx="256" cy="256" fill="#324a5e" r="86.248"/></g><g id="XMLID_305_"><path id="XMLID_599_" d="m342.25 256c0 6.34-.68 12.53-1.99 18.48-6.86 31.45-30.89 56.48-61.76 64.8-7.17 1.94-14.71 2.97-22.5 2.97v-172.5c37.56 0 69.52 24.02 81.35 57.54 3.18 8.98 4.9 18.64 4.9 28.71z" fill="#213949"/></g></g></g></svg>