<svg id="Layer_1" enable-background="new 0 0 512 512" height="512" viewBox="0 0 512 512" width="512" xmlns="http://www.w3.org/2000/svg"><g id="XMLID_1151_"><g id="XMLID_1531_"><g id="XMLID_2764_"><g id="XMLID_2765_"><g id="XMLID_2766_"><g id="XMLID_2767_"><g id="XMLID_2768_"><g id="XMLID_2769_"><g id="XMLID_2770_"><g id="XMLID_2771_"><g id="XMLID_2772_"><g id="XMLID_2773_"><g id="XMLID_2774_"><g id="XMLID_2775_"><g id="XMLID_2776_"><g id="XMLID_2777_"><g id="XMLID_2778_"><circle id="XMLID_2779_" cx="256" cy="256" fill="#4bb9ec" r="256"/></g></g></g></g></g></g></g></g></g></g></g></g></g></g></g></g><path id="XMLID_1489_" d="m512 256c0-9.577-.543-19.026-1.568-28.33l-27.112-27.112-283.195 4.442-31.799-31.859-93.993 164.467h-21.464l-13.75 17.25 147.666 147.665c22.016 6.169 45.228 9.477 69.215 9.477 141.385 0 256-114.615 256-256z" fill="#0095ff"/><g id="XMLID_447_"><path id="XMLID_492_" d="m483.32 200.558v45.5h-50.02l-19.55-1.933-21.16 1.933h-58.29l-19.133-1.891-21.577 1.891h-58.28l-17.727-1.641-22.993 1.641h-34.69v-45.5h63.2l19.067 2.275 21.653-2.275h58.28l18.567 3.275 22.143-3.275h58.29l18.233 2.942 22.477-2.942z" fill="#fff"/><path id="XMLID_781_" d="m483.32 200.56v45.5h-50.02l-19.55-1.94-21.16 1.94h-58.29l-6.1-.6v-43.83l12.47 2.2 22.14-3.27h58.29l18.23 2.94 22.48-2.94z" fill="#fff5ca"/><path id="XMLID_488_" d="m60.584 173.141h107.743v155.364h-107.743z" fill="#ff637b"/><path id="XMLID_542_" d="m114.46 173.14h53.87v155.36h-53.87z" fill="#e03b5a"/><g id="XMLID_485_"><path id="XMLID_487_" d="m39.119 320.358h150.672v34.5h-150.672z" fill="#576770"/></g><g id="XMLID_521_"><g id="XMLID_673_"><path id="XMLID_694_" d="m114.46 320.36h75.33v34.5h-75.33z" fill="#324a5e"/></g></g><g id="XMLID_478_"><g id="XMLID_950_"><g id="XMLID_957_"><path id="XMLID_958_" d="m263.82 200.558-28.51 45.5h-40.72l28.51-45.5z" fill="#ffc56e"/></g><g id="XMLID_955_"><path id="XMLID_956_" d="m362.81 200.558-28.51 45.5h-40.71l28.51-45.5z" fill="#ffc56e"/></g><g id="XMLID_953_"><path id="XMLID_954_" d="m362.81 200.56-28.51 45.5h-6.1v-45.5z" fill="#f2a846"/></g><g id="XMLID_951_"><path id="XMLID_952_" d="m461.81 200.558-28.51 45.5h-40.71l28.51-45.5z" fill="#f2a846"/></g></g></g></g></g></svg>