<svg id="Layer_1" enable-background="new 0 0 512 512" height="512" viewBox="0 0 512 512" width="512" xmlns="http://www.w3.org/2000/svg"><g id="XMLID_2370_"><g id="XMLID_2278_"><g id="XMLID_3562_"><g id="XMLID_3563_"><g id="XMLID_3564_"><g id="XMLID_3565_"><g id="XMLID_3566_"><g id="XMLID_3567_"><g id="XMLID_3568_"><g id="XMLID_3569_"><g id="XMLID_3570_"><g id="XMLID_3571_"><g id="XMLID_3572_"><g id="XMLID_3573_"><g id="XMLID_3574_"><g id="XMLID_3575_"><g id="XMLID_3576_"><circle id="XMLID_3577_" cx="256" cy="256" fill="#324a5e" r="256"/></g></g></g></g></g></g></g></g></g></g></g></g></g></g></g></g><path id="XMLID_2862_" d="m512 256c0-19.879-2.266-39.229-6.553-57.806l-73.513-73.513-36.15 42.877c-74.087 32.783-116.088 49.685-155.357 58.515l-42.501-41.898-138.999 128.19 199.603 199.603c140.218-1.361 253.47-115.429 253.47-255.968z" fill="#213949"/><g id="XMLID_2216_"><g id="XMLID_1967_"><g id="XMLID_941_"><path id="XMLID_960_" d="m174.061 215.19v81.617s101.196 10.781 242.765 77.025v-235.667c-141.569 66.245-242.765 77.025-242.765 77.025z" fill="#fff"/></g><g id="XMLID_2057_"><path id="XMLID_3318_" d="m416.825 255.999v117.83c-7.12-3.33-14.13-6.52-21.04-9.57-89.37-39.55-160.36-56.57-196.2-63.36-13.59-2.58-22.13-3.69-24.7-4-.54-.06-.82-.09-.82-.09v-40.81z" fill="#fff5ca"/></g><ellipse id="XMLID_3113_" cx="110.411" cy="255.999" fill="#e03b5a" rx="76.343" ry="76.343" transform="matrix(.16 -.987 .987 .16 -159.968 323.977)"/><path id="XMLID_3315_" d="m186.755 255.999c0 15.05-4.35 29.08-11.87 40.9-4.37 6.87-9.81 13-16.08 18.15-13.17 10.81-30.02 17.29-48.39 17.29-42.17 0-76.35-34.18-76.35-76.34z" fill="#ce1b42"/><path id="XMLID_408_" d="m186.754 177.637h-15.127c-7.084 0-12.826 5.743-12.826 12.826v131.07c0 7.084 5.743 12.826 12.826 12.826h15.127c7.084 0 12.826-5.743 12.826-12.826v-131.07c.001-7.083-5.742-12.826-12.826-12.826z" fill="#ff637b"/><path id="XMLID_1725_" d="m395.784 124.681h36.15v262.635h-36.15z" fill="#fff5ca"/><path id="XMLID_3313_" d="m395.785 255.999h36.15v131.32h-36.15z" fill="#ffe767"/></g><g id="XMLID_1112_"><path id="XMLID_3316_" d="m199.585 255.999v65.53c0 7.09-5.75 12.83-12.83 12.83h-15.13c-7.08 0-12.82-5.74-12.82-12.83v-65.53z" fill="#e03b5a"/></g></g></g></svg>