<svg id="Layer_1" enable-background="new 0 0 512 512" height="512" viewBox="0 0 512 512" width="512" xmlns="http://www.w3.org/2000/svg"><g id="XMLID_18_"><g id="XMLID_2467_"><g id="XMLID_3185_"><g id="XMLID_3186_"><g id="XMLID_3187_"><g id="XMLID_3188_"><g id="XMLID_3189_"><g id="XMLID_3206_"><g id="XMLID_3207_"><g id="XMLID_3208_"><g id="XMLID_3209_"><g id="XMLID_3210_"><g id="XMLID_3211_"><g id="XMLID_3213_"><g id="XMLID_3214_"><g id="XMLID_3215_"><g id="XMLID_3217_"><circle id="XMLID_3219_" cx="256" cy="256" fill="#ff637b" r="256"/></g></g></g></g></g></g></g></g></g></g></g></g></g></g></g></g><path id="XMLID_3101_" d="m512 256c0-24.998-3.599-49.152-10.279-71.991l-43.935-43.935-19.786 5.426-46.331-50-38.669 75-115-24-49.113-51-24.554 65.833-110.119 14.89 40.786 40.444-15.85 185.833 96.677 96.677c25.221 8.311 52.168 12.823 80.173 12.823 141.385 0 256-114.615 256-256z" fill="#e03b5a"/><g id="XMLID_3212_"><g id="XMLID_3337_"><g id="XMLID_3339_"><path id="XMLID_3350_" d="m120.331 95.5h68.556v52.389h-68.556z" fill="#fff"/></g><g id="XMLID_3338_"><path id="XMLID_3348_" d="m323.113 95.5h68.556v52.389h-68.556z" fill="#fff5ca"/></g></g><g id="XMLID_3336_"><path id="XMLID_3345_" d="m79.15 162.558h353.701v167.645h-353.701z" fill="#fff"/></g><g id="XMLID_3334_"><path id="XMLID_3335_" d="m256 162.56h176.85v167.64h-176.85z" fill="#fff5ca"/></g><g id="XMLID_3331_"><g id="XMLID_3332_"><path id="XMLID_3333_" d="m54.214 140.074h403.572v36.148h-403.572z" fill="#576770"/></g></g><g id="XMLID_3329_"><path id="XMLID_3330_" d="m79.15 316.582h353.701v85.918h-353.701z" fill="#7fe881"/></g><g id="XMLID_3327_"><path id="XMLID_3328_" d="m256 316.58h176.85v85.92h-176.85z" fill="#5bc980"/></g><g id="XMLID_3222_"><g id="XMLID_3225_"><path id="XMLID_3259_" d="m128.983 244h51.251v15h-51.251z" fill="#576770"/></g></g><g id="XMLID_3284_" fill="#324a5e"><path id="XMLID_3285_" d="m256 140.07h201.79v36.15h-201.79z"/><path id="XMLID_3286_" d="m365.172 220.357h-15v23.362h-23.923v15h23.923v23.924h15v-23.924h23.361v-15h-23.361z"/></g></g></g></svg>