<svg id="Layer_1" enable-background="new 0 0 512 512" height="512" viewBox="0 0 512 512" width="512" xmlns="http://www.w3.org/2000/svg"><g id="XMLID_1530_"><g id="XMLID_2341_"><g id="XMLID_1774_"><g id="XMLID_1775_"><g id="XMLID_1776_"><g id="XMLID_1777_"><g id="XMLID_1791_"><g id="XMLID_1792_"><g id="XMLID_1794_"><g id="XMLID_1801_"><g id="XMLID_1802_"><g id="XMLID_1803_"><g id="XMLID_1805_"><g id="XMLID_1811_"><g id="XMLID_1813_"><g id="XMLID_1815_"><g id="XMLID_1816_"><circle id="XMLID_1817_" cx="256" cy="256" fill="#7fe881" r="256"/></g></g></g></g></g></g></g></g></g></g></g></g></g></g></g></g><path id="XMLID_1403_" d="m512 256c0-9.76-.565-19.387-1.629-28.863l-109.298-109.298c-36.49-38.304-321.538 246.744-283.234 283.234l109.298 109.298c9.476 1.064 19.103 1.629 28.863 1.629 141.385 0 256-114.615 256-256z" fill="#5bc980"/><g id="XMLID_546_"><g id="XMLID_39_"><g id="XMLID_2466_"><g id="XMLID_3015_"><g id="XMLID_3016_"><g id="XMLID_3017_"><g id="XMLID_3018_"><g id="XMLID_3019_"><g id="XMLID_3020_"><g id="XMLID_3021_"><g id="XMLID_3022_"><g id="XMLID_3023_"><g id="XMLID_3024_"><g id="XMLID_3025_"><g id="XMLID_3026_"><g id="XMLID_3027_"><g id="XMLID_3028_"><circle id="XMLID_3029_" cx="256" cy="256" fill="#324a5e" r="200.337"/></g></g></g></g></g></g></g></g></g></g></g></g></g></g></g><g id="XMLID_2927_"><g id="XMLID_882_"><g id="XMLID_883_"><g id="XMLID_885_"><g id="XMLID_902_"><g id="XMLID_903_"><g id="XMLID_905_"><g id="XMLID_931_"><g id="XMLID_932_"><g id="XMLID_934_"><g id="XMLID_935_"><g id="XMLID_1643_"><g id="XMLID_1645_"><g id="XMLID_1720_"><g id="XMLID_1721_"><path id="XMLID_1722_" d="m456.34 256c0 110.64-89.7 200.34-200.34 200.34v-400.68c110.64 0 200.34 89.7 200.34 200.34z" fill="#213949"/></g></g></g></g></g></g></g></g></g></g></g></g></g></g></g><path id="XMLID_2392_" d="m256 96.39c-88.01 0-159.61 71.6-159.61 159.61 0 33.05 9.92 64.46 28.37 90.94 5.84 8.38 12.53 16.27 20.04 23.56 3.05 2.96 6.21 5.79 9.45 8.47l44.809-44.816-21.213-21.213-23.492 23.492c-2.854-3.591-5.511-7.305-7.944-11.143-10.408-16.358-16.935-34.819-19.156-54.29h33.219v-30h-33.21c2.839-24.519 12.541-46.974 27.139-65.386l23.444 23.444 21.213-21.213-23.444-23.444c18.411-14.598 40.866-24.3 65.386-27.139v33.211h30v-33.211c24.519 2.839 46.974 12.541 65.386 27.139l-23.444 23.444 21.213 21.213 23.444-23.444c14.598 18.411 24.3 40.866 27.139 65.386h-33.211v30h33.212c-2.232 19.412-8.766 37.893-19.158 54.27-2.432 3.843-5.081 7.569-7.933 11.164l-23.493-23.493-21.213 21.213 44.829 44.836c4.42-3.67 8.67-7.61 12.73-11.79 6.17-6.36 11.75-13.14 16.72-20.28 18.45-26.53 28.39-58.02 28.39-90.92-.002-88.01-71.602-159.61-159.612-159.61z" fill="#fff"/><path id="XMLID_2968_" d="m415.61 256c0 32.9-9.94 64.39-28.39 90.92-4.97 7.14-10.55 13.92-16.72 20.28-4.06 4.18-8.31 8.12-12.73 11.79l-44.83-44.84 21.21-21.21 23.5 23.49c2.85-3.59 5.5-7.32 7.93-11.16 10.39-16.38 16.93-34.86 19.16-54.27h-33.21v-30h33.21c-2.84-24.52-12.54-46.97-27.14-65.39l-23.45 23.45-21.21-21.21 23.45-23.45c-18.42-14.6-40.87-24.3-65.39-27.14v33.21h-15v-64.08c88.01 0 159.61 71.6 159.61 159.61z" fill="#fff5ca"/><path id="XMLID_29_" d="m256 195.858-23 85.475h46z" fill="#ff637b"/><g fill="#e03b5a"><path id="XMLID_2970_" d="m279 281.333h-23v-85.473z"/><circle id="XMLID_82_" cx="256" cy="284.75" r="28.75"/></g></g><g id="XMLID_2923_"><path id="XMLID_2969_" d="m284.75 284.75c0 15.88-12.87 28.75-28.75 28.75v-57.5c5.62 0 10.86 1.61 15.28 4.4 8.09 5.08 13.47 14.09 13.47 24.35z" fill="#ce1b42"/></g></g></g></svg>