<svg id="Layer_1" enable-background="new 0 0 512 512" height="512" viewBox="0 0 512 512" width="512" xmlns="http://www.w3.org/2000/svg"><g id="XMLID_1101_"><g id="XMLID_2373_"><g id="XMLID_2761_"><g id="XMLID_2762_"><g id="XMLID_2763_"><g id="XMLID_2780_"><g id="XMLID_2781_"><g id="XMLID_2782_"><g id="XMLID_2783_"><g id="XMLID_2784_"><g id="XMLID_2785_"><g id="XMLID_2786_"><g id="XMLID_2787_"><g id="XMLID_2788_"><g id="XMLID_2793_"><g id="XMLID_2794_"><g id="XMLID_2795_"><circle id="XMLID_2796_" cx="256" cy="256" fill="#324a5e" r="256"/></g></g></g></g></g></g></g></g></g></g></g></g></g></g></g></g><path id="XMLID_1085_" d="m512 256c0-9.76-.565-19.387-1.629-28.863l-115.694-112.555c-36.49-38.304-315.192 246.802-276.888 283.292l109.348 112.497c9.476 1.064 19.103 1.629 28.863 1.629 141.385 0 256-114.615 256-256z" fill="#213949"/><g id="XMLID_4485_"><g id="XMLID_4271_"><g id="XMLID_4487_"><g id="XMLID_4488_"><g id="XMLID_4489_"><g id="XMLID_4490_"><g id="XMLID_4491_"><g id="XMLID_4492_"><g id="XMLID_4493_"><g id="XMLID_4494_"><g id="XMLID_4495_"><g id="XMLID_4496_"><g id="XMLID_4497_"><g id="XMLID_4498_"><g id="XMLID_4499_"><g id="XMLID_4500_"><g id="XMLID_4501_"><circle id="XMLID_4502_" cx="256" cy="256" fill="#4bb9ec" r="166.65"/></g></g></g></g></g></g></g></g></g></g></g></g></g></g></g></g><g id="XMLID_4407_"><g id="XMLID_4425_"><g id="XMLID_4426_"><g id="XMLID_4427_"><g id="XMLID_4428_"><g id="XMLID_4429_"><g id="XMLID_4430_"><g id="XMLID_4431_"><g id="XMLID_4432_"><g id="XMLID_4433_"><g id="XMLID_4434_"><g id="XMLID_4435_"><g id="XMLID_4436_"><g id="XMLID_4437_"><path id="XMLID_4452_" d="m422.65 256c0 92.04-74.61 166.65-166.65 166.65v-333.3c92.04 0 166.65 74.61 166.65 166.65z" fill="#0095ff"/></g></g></g></g></g></g></g></g></g></g></g></g></g></g><path id="XMLID_4351_" d="m256 57.833c-109.27 0-198.167 88.897-198.167 198.167s88.897 198.167 198.167 198.167 198.167-88.897 198.167-198.167-88.897-198.167-198.167-198.167zm91.176 75.171-91.176 91.176-91.176-91.176c25.491-18.946 57.046-30.171 91.176-30.171 24.443 0 48.693 5.458 70.819 15.248 7.133 5.016 13.938 10.152 20.357 14.923zm-244.343 122.996c0-34.13 11.225-65.685 30.171-91.176l91.176 91.176-91.176 91.176c-5.035-6.774-10.263-13.98-15.231-21.546-9.592-21.743-14.94-45.553-14.94-69.63zm153.167 153.167c-34.13 0-65.684-11.225-91.176-30.171l91.176-91.176 91.176 91.176c-.005.004-.009.007-.014.011-25.489 18.939-57.039 30.16-91.162 30.16zm122.996-61.991-91.176-91.176 91.176-91.176c18.946 25.491 30.171 57.046 30.171 91.176 0 34.123-11.22 65.672-30.159 91.16-.004.005-.008.011-.012.016z" fill="#ff637b"/><path id="XMLID_4401_" d="m256 57.83v45c24.44 0 48.69 5.46 70.82 15.25 7.13 5.02 13.94 10.15 20.36 14.92l-91.18 91.18v63.64l91.18 91.18c-.01 0-.01 0-.02.01-25.49 18.94-57.04 30.16-91.16 30.16v45c109.27 0 198.17-88.9 198.17-198.17s-88.9-198.17-198.17-198.17zm31.82 198.17 91.18-91.18c18.94 25.5 30.17 57.05 30.17 91.18 0 34.12-11.22 65.67-30.16 91.16-.01.01-.01.01-.01.02z" fill="#e03b5a"/></g></g></svg>