<svg id="Layer_1" enable-background="new 0 0 512 512" height="512" viewBox="0 0 512 512" width="512" xmlns="http://www.w3.org/2000/svg"><g id="XMLID_32_"><g id="XMLID_2419_"><g id="XMLID_3649_"><g id="XMLID_3650_"><g id="XMLID_3651_"><g id="XMLID_3653_"><g id="XMLID_3655_"><g id="XMLID_3656_"><g id="XMLID_3657_"><g id="XMLID_3659_"><g id="XMLID_3660_"><g id="XMLID_3661_"><g id="XMLID_3662_"><g id="XMLID_3663_"><g id="XMLID_3664_"><g id="XMLID_3665_"><circle id="XMLID_3666_" cx="256" cy="256" fill="#ffc56e" r="256"/></g></g></g></g></g></g></g></g></g></g></g></g></g></g></g><path id="XMLID_3083_" d="m512 256c0-27.794-4.447-54.546-12.638-79.604-26.188-26.165-74.368-75.227-74.368-75.227l-337.26 250.559 101.487 101.55-4.112 4.58 53.545 53.545c5.734.383 11.515.597 17.346.597 141.385 0 256-114.615 256-256z" fill="#f2a846"/><g id="XMLID_2325_"><path id="XMLID_1931_" d="m201 350.358h110v80.142h-110z" fill="#fff5ca"/><path id="XMLID_2408_" d="m256 350.36h55v80.14h-55z" fill="#ffe767"/><path id="XMLID_1916_" d="m404.25 346h-296.5c-14.497 0-26.25-11.753-26.25-26.25v-202.5c0-14.497 11.753-26.25 26.25-26.25h296.5c14.497 0 26.25 11.753 26.25 26.25v202.5c0 14.497-11.753 26.25-26.25 26.25z" fill="#4bb9ec"/><path id="XMLID_2413_" d="m430.5 117.25v202.5c0 14.5-11.75 26.25-26.25 26.25h-148.25v-255h148.25c14.5 0 26.25 11.75 26.25 26.25z" fill="#0095ff"/><path id="XMLID_1910_" d="m404.25 361h-296.5c-14.497 0-26.25-11.753-26.25-26.25v-38.75h349v38.75c0 14.497-11.753 26.25-26.25 26.25z" fill="#fff"/><path id="XMLID_2407_" d="m430.5 296v38.75c0 14.5-11.75 26.25-26.25 26.25h-148.25v-65z" fill="#fff5ca"/><g id="XMLID_1907_"><path id="XMLID_1909_" d="m185.109 423.358h141.781v34.5h-141.781z" fill="#fff"/></g><g id="XMLID_2343_"><path id="XMLID_2395_" d="m256 423.36h70.89v34.5h-70.89z" fill="#fff5ca"/></g><g id="XMLID_1872_"><g id="XMLID_1882_"><g id="XMLID_1903_"><path id="XMLID_1905_" d="m199.859 142.844h183.562v34.5h-183.562z" fill="#576770"/></g><g id="XMLID_2327_"><g id="XMLID_2330_"><path id="XMLID_2393_" d="m256 142.84h127.42v34.5h-127.42z" fill="#213949"/></g></g><g id="XMLID_1883_"><path id="XMLID_1884_" d="m199.859 211.844h183.562v34.5h-183.562z" fill="#576770"/></g><g id="XMLID_2328_"><path id="XMLID_2391_" d="m256 211.84h127.42v34.5h-127.42z" fill="#213949"/></g></g><circle id="XMLID_1878_" cx="145.828" cy="160.094" fill="#7fe881" r="17.25"/><circle id="XMLID_1873_" cx="145.828" cy="229.094" fill="#ff637b" r="17.25"/></g></g></g></svg>