<svg id="Layer_1" enable-background="new 0 0 512 512" height="512" viewBox="0 0 512 512" width="512" xmlns="http://www.w3.org/2000/svg"><g id="XMLID_529_"><g id="XMLID_2342_"><g id="XMLID_3613_"><g id="XMLID_3614_"><g id="XMLID_3615_"><g id="XMLID_3619_"><g id="XMLID_3626_"><g id="XMLID_3627_"><g id="XMLID_3633_"><g id="XMLID_3634_"><g id="XMLID_3635_"><g id="XMLID_3636_"><g id="XMLID_3637_"><g id="XMLID_3638_"><g id="XMLID_3639_"><g id="XMLID_3640_"><g id="XMLID_3641_"><circle id="XMLID_3642_" cx="256" cy="256" fill="#7fe881" r="256"/></g></g></g></g></g></g></g></g></g></g></g></g></g></g></g></g><path id="XMLID_3323_" d="m512 256c0-19.626-2.216-38.733-6.398-57.092l-119.826-119.826-290.583 337.724 83.206 83.206c24.479 7.778 50.547 11.988 77.601 11.988 141.385 0 256-114.615 256-256z" fill="#5bc980"/><g id="XMLID_873_"><path id="XMLID_453_" d="m185.006 367.476 6.458-.408c3.759-.237 6.754-3.233 6.992-6.992l.66-10.444c.115-1.817.888-3.529 2.175-4.816l57.436-57.436-34.107-34.107-57.436 57.436c-1.287 1.287-3 2.061-4.816 2.175l-10.445.66c-3.758.237-6.754 3.233-6.991 6.991l-.408 6.458c-.238 3.759-3.233 6.754-6.992 6.991l-6.458.408c-3.759.237-6.754 3.233-6.991 6.992l-.408 6.458c-.237 3.759-3.233 6.754-6.992 6.992l-6.458.408c-3.758.237-6.754 3.233-6.992 6.992l-.66 10.445c-.115 1.817-.888 3.529-2.175 4.816l-5.078 5.078-.127 34.233 34.233-.127 5.078-5.078c1.287-1.287 2.999-2.061 4.816-2.175l10.445-.66c3.758-.237 6.754-3.233 6.992-6.991l.408-6.458c.237-3.759 3.233-6.754 6.991-6.992l6.458-.408c3.758-.237 6.754-3.233 6.992-6.992l.408-6.458c.238-3.758 3.233-6.753 6.992-6.991z" fill="#fff"/><g id="XMLID_1230_"><path id="XMLID_1736_" d="m164.154 388.325c-3.758.234-6.752 3.228-6.993 6.993l-.405 6.456c-.234 3.758-3.228 6.752-6.993 6.993l-10.439.663c-1.816.117-3.532.881-4.818 2.167l-5.083 5.083-34.227.125 146.48-146.48 17.051 17.051-57.437 57.437c-1.286 1.286-2.058 3.009-2.167 4.818l-.671 10.447c-.234 3.758-3.228 6.752-6.986 6.986l-6.463.413c-3.758.234-6.752 3.228-6.986 6.986l-.413 6.463c-.234 3.758-3.228 6.752-6.993 6.993z" fill="#fff5ca"/></g><g id="XMLID_661_"><path id="XMLID_216_" d="m432.918 126.224-47.142-47.142c-15.922-15.922-40.587-19.086-60.013-7.699l-45.91 26.913c-6.989 4.097-13.068 9.577-17.865 16.106l-63.167 85.965c-8.659 11.784-7.417 28.126 2.923 38.466l71.422 71.422c10.341 10.341 26.682 11.582 38.466 2.923l85.966-63.168c6.528-4.797 12.009-10.876 16.106-17.865l26.913-45.91c11.387-19.424 8.223-44.088-7.699-60.011z" fill="#324a5e"/><path id="XMLID_1739_" d="m397.597 250.016-85.964 63.167c-11.788 8.654-28.122 7.414-38.468-2.931l-35.708-35.708 171.889-171.889 23.569 23.569c15.928 15.928 19.086 40.588 7.703 60.017l-26.914 45.906c-4.101 6.985-9.574 13.066-16.107 17.869z" fill="#213949"/><path id="XMLID_999_" d="m266.554 179.629c-12.481 12.481-12.481 32.906 0 45.387l20.43 20.43c12.482 12.482 32.906 12.481 45.387 0l9.448-9.448-65.817-65.818z" fill="#576770"/><path id="XMLID_1732_" d="m341.821 235.997-9.449 9.449c-12.482 12.482-32.909 12.482-45.391 0l-10.214-10.213 32.145-32.145z" fill="#324a5e"/><path id="XMLID_1000_" d="m380.248 197.57c12.482-12.482 12.482-32.906 0-45.387l-20.43-20.43c-12.482-12.481-32.906-12.482-45.387 0l-9.448 9.448 65.817 65.817z" fill="#576770"/><g id="XMLID_1232_"><path id="XMLID_1731_" d="m380.25 197.568-9.449 9.449-32.909-32.909 32.145-32.145 10.214 10.214c12.481 12.482 12.481 32.909-.001 45.391z" fill="#324a5e"/></g></g></g></g></svg>