<svg id="Layer_1" enable-background="new 0 0 512 512" height="512" viewBox="0 0 512 512" width="512" xmlns="http://www.w3.org/2000/svg"><g id="XMLID_718_"><g id="XMLID_1189_"><g id="XMLID_3788_"><g id="XMLID_3789_"><g id="XMLID_3790_"><g id="XMLID_3791_"><g id="XMLID_3792_"><g id="XMLID_3793_"><g id="XMLID_3794_"><g id="XMLID_3795_"><g id="XMLID_3796_"><g id="XMLID_3797_"><g id="XMLID_3798_"><g id="XMLID_3799_"><g id="XMLID_3800_"><g id="XMLID_3801_"><g id="XMLID_3802_"><circle id="XMLID_3803_" cx="256" cy="256" fill="#ffc56e" r="256"/></g></g></g></g></g></g></g></g></g></g></g></g></g></g></g></g><path id="XMLID_857_" d="m512 256c0-8.055-.39-16.017-1.118-23.882-36.144-35.933-131.377-131.621-131.377-131.621l-242.113 241.898 91.75 91.797 26.858 44.814 31.108 31.108c126.711-15.351 224.892-123.261 224.892-254.114z" fill="#f2a846"/><g id="XMLID_1104_"><path id="XMLID_1718_" d="m154.302 332.598 101.698 146.408 101.698-146.408z" fill="#ff637b"/><path id="XMLID_1701_" d="m357.7 332.593-28.65 41.25-73.05 105.16v-146.41z" fill="#e03b5a"/><circle id="XMLID_1700_" cx="256" cy="219.002" fill="#324a5e" r="171.168"/><path id="XMLID_1699_" d="m427.17 219.003c0 68.4-40.13 127.43-98.12 154.84-22.16 10.47-46.92 16.33-73.05 16.33v-342.34c94.53 0 171.17 76.63 171.17 171.17z" fill="#213949"/><ellipse id="XMLID_1696_" cx="256" cy="219.002" fill="#ff637b" rx="69.705" ry="69.705" transform="matrix(.176 -.985 .985 .176 -4.561 432.557)"/><g id="XMLID_1374_"><path id="XMLID_1376_" d="m325.71 219.003c0 38.5-31.21 69.7-69.71 69.7v-139.41c38.5 0 69.71 31.21 69.71 69.71z" fill="#e03b5a"/></g></g></g></svg>