<svg id="Layer_1" enable-background="new 0 0 512 512" height="512" viewBox="0 0 512 512" width="512" xmlns="http://www.w3.org/2000/svg"><g id="XMLID_3253_"><g id="XMLID_3356_"><g id="XMLID_3733_"><g id="XMLID_3734_"><g id="XMLID_3735_"><g id="XMLID_3736_"><g id="XMLID_3737_"><g id="XMLID_3738_"><g id="XMLID_3739_"><g id="XMLID_3740_"><g id="XMLID_3741_"><g id="XMLID_3742_"><g id="XMLID_3743_"><g id="XMLID_3744_"><g id="XMLID_3745_"><g id="XMLID_3746_"><g id="XMLID_3747_"><circle id="XMLID_3748_" cx="256" cy="256" fill="#4bb9ec" r="256"/></g></g></g></g></g></g></g></g></g></g></g></g></g></g></g></g><path id="XMLID_3392_" d="m511.551 271.005-80.278-80.278s-217.345 263.748-217.345 263.748l57.076 57.076c129.433-7.483 233.064-111.113 240.547-240.546z" fill="#0095ff"/><g id="XMLID_1404_"><path id="XMLID_880_" d="m437.136 287.465-149.671 149.671c-17.306 17.306-45.624 17.306-62.93 0l-149.671-149.671c-17.306-17.306-17.306-45.624 0-62.93l149.671-149.671c17.306-17.306 45.624-17.306 62.93 0l149.671 149.671c17.306 17.306 17.306 45.624 0 62.93z" fill="#ffe767"/><path id="XMLID_1274_" d="m437.14 287.47-149.67 149.67c-8.65 8.65-20.06 12.98-31.47 12.98v-388.24c11.41 0 22.82 4.33 31.47 12.98l149.67 149.67c17.3 17.31 17.3 45.63 0 62.94z" fill="#ffc100"/><g id="XMLID_1930_"><path id="XMLID_986_" d="m256 471.873c-15.236 0-30.473-5.799-42.072-17.398l-156.403-156.404c-23.198-23.198-23.198-60.944 0-84.143l156.403-156.403c23.199-23.197 60.946-23.197 84.143 0l156.403 156.403c23.198 23.198 23.198 60.944 0 84.143l-156.403 156.404c-11.598 11.599-26.835 17.398-42.071 17.398zm0-401.761c-7.555 0-15.107 2.875-20.859 8.626l-156.403 156.404c-5.537 5.537-8.586 12.944-8.586 20.858s3.049 15.321 8.586 20.858l156.403 156.403c11.502 11.5 30.214 11.5 41.717 0l156.403-156.403c5.536-5.537 8.586-12.944 8.586-20.858s-3.05-15.321-8.586-20.858l-156.403-156.404c-5.75-5.75-13.305-8.626-20.858-8.626z" fill="#324a5e"/></g><g id="XMLID_1239_"><path id="XMLID_1255_" d="m454.47 213.93-156.4-156.4c-11.6-11.6-26.83-17.4-42.07-17.4v29.98c7.55 0 15.11 2.88 20.86 8.63l156.4 156.4c5.54 5.54 8.59 12.95 8.59 20.86s-3.05 15.32-8.59 20.86l-156.4 156.4c-5.75 5.75-13.3 8.62-20.86 8.62v29.99c15.24 0 30.47-5.8 42.07-17.4l156.4-156.4c23.2-23.2 23.2-60.94 0-84.14z" fill="#213949"/></g><g id="XMLID_949_"><path id="XMLID_996_" d="m266.083 246.141c0-9.346 2.462-12.852 7.368-19.839 2.804-3.994 6.232-8.906 9.033-15.135h29.726l-56.212-99.001-56.208 99.001h35.708c-4.863 8.07-9.414 18.845-9.414 34.974 0 21.987 8.457 34.032 14.632 42.826 4.906 6.987 7.368 10.494 7.368 19.841s-2.462 12.854-7.368 19.842c-6.175 8.795-14.632 20.839-14.632 42.826h40c0-9.347 2.463-12.854 7.368-19.842 6.175-8.794 14.632-20.839 14.632-42.826 0-21.986-8.457-34.031-14.632-42.825-4.906-6.987-7.369-10.495-7.369-19.842z" fill="#324a5e"/></g><g id="XMLID_1237_"><path id="XMLID_1268_" d="m273.45 265.987c6.18 8.79 14.63 20.84 14.63 42.82 0 21.99-8.45 34.03-14.63 42.83-4.9 6.99-7.37 10.49-7.37 19.84h-10.08v-259.31l56.21 99h-29.73c-2.8 6.23-6.22 11.14-9.03 15.14-4.9 6.98-7.37 10.49-7.37 19.83 0 9.35 2.47 12.86 7.37 19.85z" fill="#213949"/></g></g></g></svg>