<svg id="Layer_1" enable-background="new 0 0 512 512" height="512" viewBox="0 0 512 512" width="512" xmlns="http://www.w3.org/2000/svg"><g id="XMLID_708_"><g id="XMLID_3370_"><g id="XMLID_2811_"><g id="XMLID_2812_"><g id="XMLID_2813_"><g id="XMLID_2815_"><g id="XMLID_2817_"><g id="XMLID_2818_"><g id="XMLID_2819_"><g id="XMLID_2820_"><g id="XMLID_2821_"><g id="XMLID_2822_"><g id="XMLID_2823_"><g id="XMLID_2824_"><g id="XMLID_2825_"><g id="XMLID_2826_"><g id="XMLID_2827_"><circle id="XMLID_2828_" cx="256" cy="256" fill="#ffc56e" r="256"/></g></g></g></g></g></g></g></g></g></g></g></g></g></g></g></g><path id="XMLID_800_" d="m87.258 420.952 92.738-347.237 36.768 36.187 120.5-.667 29.238-35.52 31.998 33.785 26.242-3.527 75.677 75.677c7.524 24.114 11.581 49.758 11.581 76.35 0 141.385-114.615 256-256 256-32.299 0-63.194-5.998-91.651-16.914z" fill="#f2a846"/><g id="XMLID_3876_"><path id="XMLID_2890_" d="m87.258 132.072h337.483v256.305h-337.483z" fill="#fff"/><path id="XMLID_4022_" d="m256 132.07h168.74v256.31h-168.74z" fill="#fff5ca"/><g id="XMLID_3157_"><path id="XMLID_3158_" d="m87.258 373.312h337.483v47.64h-337.483z" fill="#fff5ca"/></g><g id="XMLID_3959_"><path id="XMLID_4020_" d="m256 373.31h168.74v47.64h-168.74z" fill="#ffe767"/></g><g id="XMLID_3860_"><g id="XMLID_3935_"><path id="XMLID_3936_" d="m87.258 103.974h337.483v62.81h-337.483z" fill="#7fe881"/></g></g><g id="XMLID_3954_"><g id="XMLID_4100_"><path id="XMLID_4101_" d="m256 103.97h168.74v62.81h-168.74z" fill="#5bc980"/></g></g><g id="XMLID_3293_"><g id="XMLID_4104_"><g id="XMLID_4107_"><g id="XMLID_4108_"><path id="XMLID_4109_" d="m132.463 86.749h60.568v34.5h-60.568z" fill="#324a5e" transform="matrix(0 -1 1 0 58.748 266.746)"/></g></g><g id="XMLID_4105_"><path id="XMLID_4106_" d="m318.969 86.749h60.568v34.5h-60.568z" fill="#213949" transform="matrix(0 -1 1 0 245.254 453.252)"/></g></g></g><g id="XMLID_3693_"><path id="XMLID_3311_" d="m135.242 213.072h34.502v34.502h-34.502z" fill="#ff637b"/><path id="XMLID_3654_" d="m204.247 213.072h34.502v34.502h-34.502z" fill="#324a5e"/><path id="XMLID_3658_" d="m273.251 213.072h34.502v34.502h-34.502z" fill="#213949"/><path id="XMLID_3671_" d="m342.255 213.072h34.502v34.502h-34.502z" fill="#e03b5a"/></g><g id="XMLID_3708_"><path id="XMLID_3719_" d="m135.242 288.74h34.502v34.502h-34.502z" fill="#ff637b"/><path id="XMLID_3715_" d="m204.247 288.74h34.502v34.502h-34.502z" fill="#324a5e"/><g fill="#213949"><path id="XMLID_3712_" d="m273.251 288.74h34.502v34.502h-34.502z"/><path id="XMLID_3709_" d="m342.255 288.74h34.502v34.502h-34.502z"/></g></g></g></g></svg>