<svg id="Layer_1" enable-background="new 0 0 512 512" height="512" viewBox="0 0 512 512" width="512" xmlns="http://www.w3.org/2000/svg"><g id="XMLID_78_"><g id="XMLID_345_"><g id="XMLID_346_"><g id="XMLID_347_"><g id="XMLID_348_"><g id="XMLID_349_"><g id="XMLID_350_"><g id="XMLID_351_"><g id="XMLID_352_"><g id="XMLID_353_"><g id="XMLID_354_"><g id="XMLID_355_"><g id="XMLID_356_"><g id="XMLID_357_"><g id="XMLID_358_"><circle id="XMLID_359_" cx="256" cy="256" fill="#ff637b" r="256"/></g></g></g></g></g></g></g></g></g></g></g></g></g></g><path id="XMLID_1657_" d="m512 256c0-16.824-1.641-33.263-4.739-49.182l-132.336-132.336-232.14 270.403 83.595 83.735-16.126 35.38 47.972 47.972c140.358-1.198 253.774-115.331 253.774-255.972z" fill="#e03b5a"/><g id="XMLID_849_"><path id="XMLID_44_" d="m210.254 349.333h91.491v114.667h-91.491z" fill="#576770"/><path id="XMLID_780_" d="m256 349.33h45.75v114.67h-45.75z" fill="#324a5e"/><g id="XMLID_463_"><g id="XMLID_2469_"><path id="XMLID_626_" d="m342.971 336.828h-173.942c-15.934 0-28.971-13.037-28.971-28.971v-202.057c0-15.934 13.037-28.971 28.971-28.971h173.943c15.934 0 28.971 13.037 28.971 28.971v202.057c0 15.934-13.037 28.971-28.972 28.971z" fill="#4bb9ec"/></g><g id="XMLID_766_"><path id="XMLID_797_" d="m371.94 105.8v202.06c0 15.93-13.03 28.97-28.97 28.97h-86.97v-260h86.97c15.94 0 28.97 13.04 28.97 28.97z" fill="#0095ff"/></g><g id="XMLID_850_"><g id="XMLID_264_"><path id="XMLID_592_" d="m336.638 356.905h-161.276c-27.738 0-50.306-22.566-50.306-50.305v-199.541c0-27.738 22.567-50.305 50.306-50.305h161.275c27.738 0 50.306 22.566 50.306 50.305v199.541c0 27.738-22.567 50.305-50.305 50.305zm-161.276-270.151c-11.196 0-20.306 9.109-20.306 20.305v199.541c0 11.196 9.109 20.305 20.306 20.305h161.275c11.196 0 20.306-9.109 20.306-20.305v-199.541c0-11.196-9.109-20.305-20.306-20.305z" fill="#fff"/></g><g id="XMLID_710_"><g id="XMLID_715_"><path id="XMLID_716_" d="m336.64 56.756h-80.64v30h80.64c11.19 0 20.3 9.11 20.3 20.3v199.541c0 11.2-9.11 20.31-20.3 20.31h-80.64v30h80.64c27.74 0 50.3-22.57 50.3-50.31v-199.542c0-27.74-22.56-50.299-50.3-50.299z" fill="#fff5ca"/></g></g></g><g id="XMLID_442_"><path id="XMLID_597_" d="m260.192 125.375h-48.684v162.907h15v-64.287c9.477-.054 25.883-.141 33.684-.141 27.602 0 50.057-22.089 50.057-49.239s-22.455-49.24-50.057-49.24zm0 83.479c-7.743 0-23.9.085-33.44.14-.055-9.757-.141-26.487-.141-34.379 0-6.617-.049-24.116-.079-34.239h33.66c19.003 0 35.057 15.68 35.057 34.239s-16.054 34.239-35.057 34.239z" fill="#fff"/></g><g id="XMLID_711_"><path id="XMLID_712_" d="m260.19 125.38h-4.19v15h4.19c19.01 0 35.06 15.67 35.06 34.23s-16.05 34.24-35.06 34.24c-1.21 0-2.62 0-4.19.01v15c1.56-.01 2.98-.01 4.19-.01 27.6 0 50.06-22.09 50.06-49.24s-22.46-49.23-50.06-49.23z" fill="#fff5ca"/></g></g></g></g></svg>