<svg id="Layer_1" enable-background="new 0 0 512 512" height="512" viewBox="0 0 512 512" width="512" xmlns="http://www.w3.org/2000/svg"><g id="XMLID_1021_"><g id="XMLID_947_"><g id="XMLID_3759_"><g id="XMLID_3760_"><g id="XMLID_3761_"><g id="XMLID_3762_"><g id="XMLID_3763_"><g id="XMLID_3764_"><g id="XMLID_3765_"><g id="XMLID_3766_"><g id="XMLID_3767_"><g id="XMLID_3768_"><g id="XMLID_3769_"><g id="XMLID_3770_"><g id="XMLID_3771_"><g id="XMLID_3772_"><g id="XMLID_3773_"><circle id="XMLID_3774_" cx="256" cy="256" fill="#ff637b" r="256"/></g></g></g></g></g></g></g></g></g></g></g></g></g></g></g></g><path id="XMLID_1224_" d="m512 256c0-9.147-.489-18.179-1.425-27.078l-48.365-48.365-368.95 198 131.548 131.548c10.225 1.242 20.632 1.895 31.192 1.895 141.385 0 256-114.615 256-256z" fill="#e03b5a"/><g id="XMLID_3087_"><path id="XMLID_3117_" d="m462.21 180.557-43.47 198c-48.98-13.72-99.26-21.13-149.65-22.22 0 0-21.427-10.322-29.423-10.003-10.398.414-38.827 12.383-38.827 12.383-36.24 3.33-72.25 9.94-107.58 19.84l-43.47-198c65.31-30.72 135.76-46.08 206.21-46.08 25.28 0 50.56 1.98 75.61 5.93 0 0 16.934 8.506 27.557 10.927 9.021 2.056 31.393 2.204 31.393 2.204 24.38 7.049 48.34 16.059 71.65 27.019z" fill="#4bb9ec"/><path id="XMLID_3116_" d="m462.21 180.557-43.47 198c-48.98-13.72-99.26-21.13-149.65-22.22 0 0-6.15-2.96-13.09-5.67v-216.19c25.28 0 50.56 1.98 75.61 5.93 0 0 16.93 8.51 27.56 10.93 9.02 2.05 31.39 2.2 31.39 2.2 24.38 7.05 48.34 16.06 71.65 27.02z" fill="#0095ff"/><g id="XMLID_3094_"><path id="XMLID_3096_" d="m204.455 202.172-12.641-5.651-91.832 180.212 31.424 14.049z" fill="#324a5e"/><path id="XMLID_3095_" d="m427.496 202.172-12.64-5.651-91.833 180.212 31.425 14.049z" fill="#213949"/></g><g id="XMLID_3091_"><g id="XMLID_3092_"><path id="XMLID_3093_" d="m390.56 153.537-121.47 202.8c-4.36-.1-8.73-.15-13.09-.15-18.41 0-36.81.84-55.16 2.53l130.77-218.31c19.84 3.139 39.53 7.51 58.95 13.13z" fill="#87daf7"/></g></g><g id="XMLID_3088_"><g id="XMLID_3089_"><path id="XMLID_3090_" d="m390.56 153.537-121.47 202.8c-4.36-.1-8.73-.15-13.09-.15v-89.56l75.61-126.22c19.84 3.139 39.53 7.51 58.95 13.13z" fill="#31caf5"/></g></g></g></g></svg>