<svg id="Layer_1" enable-background="new 0 0 512 512" height="512" viewBox="0 0 512 512" width="512" xmlns="http://www.w3.org/2000/svg"><g id="XMLID_2319_"><g id="XMLID_1759_"><g id="XMLID_2719_"><g id="XMLID_2720_"><g id="XMLID_2721_"><g id="XMLID_2741_"><g id="XMLID_2742_"><g id="XMLID_2743_"><g id="XMLID_2744_"><g id="XMLID_2745_"><g id="XMLID_2746_"><g id="XMLID_2747_"><g id="XMLID_2748_"><g id="XMLID_2749_"><g id="XMLID_2750_"><g id="XMLID_2751_"><g id="XMLID_2752_"><circle id="XMLID_2753_" cx="256" cy="256" fill="#4bb9ec" r="256"/></g></g></g></g></g></g></g></g></g></g></g></g></g></g></g></g><path id="XMLID_2850_" d="m512 256c0-32.034-5.901-62.686-16.647-90.95l-95.856-95.856-286.993 373.612 52.547 52.547c28.264 10.746 58.915 16.647 90.949 16.647 141.385 0 256-114.615 256-256z" fill="#0095ff"/><g id="XMLID_1757_"><g id="XMLID_1861_"><path id="XMLID_1862_" d="m112.504 311.896h286.993v130.91h-286.993z" fill="#ffc56e"/></g><g id="XMLID_1859_"><path id="XMLID_1860_" d="m256 311.9h143.5v130.91h-143.5z" fill="#f2a846"/></g><g id="XMLID_1852_"><g id="XMLID_1857_"><path id="XMLID_1858_" d="m112.504 405.196v-336.002h286.992v271.041l-64.961 64.961z" fill="#fff"/></g><g id="XMLID_1855_"><path id="XMLID_1856_" d="m399.5 69.19v271.04l-64.96 64.97h-78.54v-336.01z" fill="#fff5ca"/></g><path id="XMLID_2219_" d="m310.665 145.2-31.819-31.82-22.846 22.845-22.846-22.845-31.819 31.82 22.845 22.845-22.845 22.845 31.819 31.821 22.846-22.846 22.846 22.846 31.819-31.821-22.845-22.845z" fill="#ff637b"/><path id="XMLID_1758_" d="m287.82 168.05 22.85 22.84-31.82 31.82-22.85-22.85v-63.63l22.85-22.85 31.82 31.82z" fill="#e03b5a"/><g id="XMLID_1853_"><path id="XMLID_1854_" d="m399.496 340.235-64.961 64.961v-64.961z" fill="#ffe767"/></g></g><g id="XMLID_1850_"><path id="XMLID_1851_" d="m169.5 259.711h47.5v34.5h-47.5z" fill="#576770"/></g><g id="XMLID_1848_"><path id="XMLID_1849_" d="m169.5 328.711h47.5v34.5h-47.5z" fill="#576770"/></g><g id="XMLID_2128_"><g id="XMLID_2518_"><path id="XMLID_2519_" d="m256 259.711h99v34.5h-99z" fill="#324a5e"/></g></g><g id="XMLID_2110_"><g id="XMLID_2520_"><path id="XMLID_2521_" d="m256 328.711h43.25v34.5h-43.25z" fill="#324a5e"/></g></g></g></g></svg>