<svg id="Layer_1" enable-background="new 0 0 512 512" height="512" viewBox="0 0 512 512" width="512" xmlns="http://www.w3.org/2000/svg"><g id="XMLID_1019_"><g id="XMLID_2441_"><g id="XMLID_3164_"><g id="XMLID_3165_"><g id="XMLID_3166_"><g id="XMLID_3167_"><g id="XMLID_3168_"><g id="XMLID_3169_"><g id="XMLID_3170_"><g id="XMLID_3171_"><g id="XMLID_3172_"><g id="XMLID_3173_"><g id="XMLID_3174_"><g id="XMLID_3175_"><g id="XMLID_3176_"><g id="XMLID_3177_"><g id="XMLID_3178_"><circle id="XMLID_3179_" cx="256" cy="256" fill="#324a5e" r="256"/></g></g></g></g></g></g></g></g></g></g></g></g></g></g></g></g><path id="XMLID_1121_" d="m512 256c0-18.981-2.084-37.473-6.003-55.277l-105.733-105.733-286.308 327.386 82.872 82.737c18.994 4.495 38.803 6.887 59.172 6.887 141.385 0 256-114.615 256-256z" fill="#213949"/><g id="XMLID_10_"><path id="XMLID_3730_" d="m363.092 433.717h-217.184c-27.45 0-49.908-22.459-49.908-49.908v-255.617c0-27.45 22.459-49.908 49.908-49.908h217.183c27.45 0 49.908 22.459 49.908 49.908v255.617c.001 27.449-22.458 49.908-49.907 49.908z" fill="#4bb9ec"/><path id="XMLID_3729_" d="m413 128.19v255.62c0 27.45-22.46 49.91-49.91 49.91h-108.59v-355.44h108.59c27.45 0 49.91 22.46 49.91 49.91z" fill="#0095ff"/><g id="XMLID_7_"><path id="XMLID_3731_" d="m219.992 220.701-43.468-93.195-43.469 93.195h21.575v163.793h43.787v-163.793z" fill="#fff"/><path id="XMLID_8_" d="m289.008 291.299 43.468 93.195 43.469-93.195h-21.575v-163.793h-43.787v163.793z" fill="#e03b5a"/></g></g></g></svg>