<svg id="Layer_1" enable-background="new 0 0 512 512" height="512" viewBox="0 0 512 512" width="512" xmlns="http://www.w3.org/2000/svg"><g id="XMLID_5_"><g id="XMLID_2456_"><g id="XMLID_3051_"><g id="XMLID_3052_"><g id="XMLID_3053_"><g id="XMLID_3064_"><g id="XMLID_3068_"><g id="XMLID_3069_"><g id="XMLID_3070_"><g id="XMLID_3082_"><g id="XMLID_3084_"><g id="XMLID_3085_"><g id="XMLID_3086_"><g id="XMLID_3097_"><g id="XMLID_3098_"><g id="XMLID_3099_"><g id="XMLID_3100_"><circle id="XMLID_3102_" cx="256" cy="256" fill="#ff637b" r="256"/></g></g></g></g></g></g></g></g></g></g></g></g></g></g></g></g><path id="XMLID_460_" d="m512 256c0-18.176-1.908-35.905-5.509-53.009l-110.755-111.233-55.394-3.475-55.175-55.283-169.521 404.106s39.938 39.072 64.42 63.442c23.992 7.442 49.494 11.452 75.934 11.452 141.385 0 256-114.615 256-256z" fill="#e03b5a"/><g id="XMLID_43_"><path id="XMLID_450_" d="m226.833 33h58.333v39.667h-58.333z" fill="#5bc980"/><path id="XMLID_449_" d="m256 33h29.17v39.67h-29.17z" fill="#3caa5d"/><path id="XMLID_443_" d="m374.254 445.855h-236.508c-17.843 0-32.441-14.599-32.441-32.441v-297.406c0-17.843 14.599-32.441 32.441-32.441h236.508c17.843 0 32.441 14.599 32.441 32.441v297.406c.001 17.842-14.598 32.441-32.441 32.441z" fill="#324a5e"/><path id="XMLID_439_" d="m406.7 116.01v297.4c0 17.85-14.6 32.45-32.45 32.45h-118.25v-362.29h118.25c17.85 0 32.45 14.59 32.45 32.44z" fill="#213949"/><path id="XMLID_313_" d="m136.333 118.043h239.334v291.957h-239.334z" fill="#fff"/><path id="XMLID_312_" d="m256 118.04h119.67v291.96h-119.67z" fill="#fff5ca"/><g id="XMLID_299_"><g id="XMLID_303_"><g id="XMLID_304_"><path id="XMLID_309_" d="m136.333 384.074h239.334v36.148h-239.334z" fill="#ffc56e"/></g></g></g><g id="XMLID_294_"><g id="XMLID_295_"><path id="XMLID_297_" d="m256 384.07h119.67v36.15h-119.67z" fill="#f2a846"/></g></g><g id="XMLID_292_"><path id="XMLID_293_" d="m256 212.272h82v34.5h-82z" fill="#213949"/></g><g id="XMLID_215_"><path id="XMLID_217_" d="m256 281.272h82v34.5h-82z" fill="#213949"/></g><circle id="XMLID_212_" cx="195.5" cy="229.522" fill="#4bb9ec" r="20.608"/><circle id="XMLID_211_" cx="195.5" cy="298.522" fill="#4bb9ec" r="20.608"/><path id="XMLID_81_" d="m200 66.667h112v74h-112z" fill="#7fe881"/><path id="XMLID_79_" d="m256 66.67h56v74h-56z" fill="#5bc980"/></g></g></svg>