<svg id="Layer_1" enable-background="new 0 0 512 512" height="512" viewBox="0 0 512 512" width="512" xmlns="http://www.w3.org/2000/svg"><g id="XMLID_1292_"><g id="XMLID_90_"><g id="XMLID_3341_"><g id="XMLID_3342_"><g id="XMLID_3343_"><g id="XMLID_3364_"><g id="XMLID_3365_"><g id="XMLID_3366_"><g id="XMLID_3367_"><g id="XMLID_3368_"><g id="XMLID_3369_"><g id="XMLID_3371_"><g id="XMLID_3372_"><g id="XMLID_3373_"><g id="XMLID_3388_"><g id="XMLID_3389_"><g id="XMLID_3390_"><circle id="XMLID_3391_" cx="256" cy="256" fill="#ffc56e" r="256"/></g></g></g></g></g></g></g></g></g></g></g></g></g></g></g></g><path id="XMLID_1185_" d="m512 256c0-9.76-.565-19.387-1.629-28.863l-109.298-109.298c-36.49-38.304-321.538 246.744-283.234 283.234l109.298 109.298c9.476 1.064 19.103 1.629 28.863 1.629 141.385 0 256-114.615 256-256z" fill="#f2a846"/><g id="XMLID_3555_"><g id="XMLID_3469_"><g id="XMLID_3470_"><g id="XMLID_3616_"><g id="XMLID_3617_"><g id="XMLID_3618_"><g id="XMLID_3620_"><g id="XMLID_3621_"><g id="XMLID_3622_"><g id="XMLID_3623_"><g id="XMLID_3624_"><g id="XMLID_3625_"><g id="XMLID_3629_"><g id="XMLID_3630_"><g id="XMLID_3631_"><circle id="XMLID_3632_" cx="256" cy="256" fill="#576770" r="200.337"/></g></g></g></g></g></g></g></g></g></g></g></g></g></g><g id="XMLID_881_"><g id="XMLID_938_"><g id="XMLID_3317_"><g id="XMLID_3444_"><g id="XMLID_3445_"><g id="XMLID_3446_"><g id="XMLID_3447_"><g id="XMLID_3449_"><g id="XMLID_3462_"><g id="XMLID_3463_"><g id="XMLID_3464_"><g id="XMLID_3465_"><g id="XMLID_3466_"><g id="XMLID_3467_"><path id="XMLID_3468_" d="m456.34 256c0 110.64-89.7 200.34-200.34 200.34v-400.68c110.64 0 200.34 89.7 200.34 200.34z" fill="#324a5e"/></g></g></g></g></g></g></g></g></g></g></g></g></g></g><g id="XMLID_1480_"><path id="XMLID_1642_" d="m343.905 198.704v20.687c0 8.353-6.771 15.124-15.124 15.124h-29.287c-8.353 0-15.124-6.771-15.124-15.124v-20.687c0-15.668-12.702-28.37-28.37-28.37-15.668 0-28.37 12.702-28.37 28.37v20.687c0 8.353-6.771 15.124-15.124 15.124h-29.287c-8.353 0-15.124-6.771-15.124-15.124v-20.687c0-15.668-12.702-28.37-28.37-28.37-15.668 0-28.37 12.702-28.37 28.37v114.593c0 15.668 12.702 28.37 28.37 28.37 15.668 0 28.37-12.702 28.37-28.37v-20.687c0-8.353 6.771-15.124 15.124-15.124h29.287c8.353 0 15.124 6.771 15.124 15.124v20.687c0 15.668 12.702 28.37 28.37 28.37 15.668 0 28.37-12.702 28.37-28.37v-20.687c0-8.353 6.771-15.124 15.124-15.124h29.287c8.353 0 15.124 6.771 15.124 15.124v20.687c0 15.668 12.702 28.37 28.37 28.37 15.668 0 28.37-12.702 28.37-28.37v-114.593c0-15.668-12.702-28.37-28.37-28.37-15.669-.001-28.37 12.701-28.37 28.37z" fill="#324a5e"/></g><g id="XMLID_874_"><path id="XMLID_879_" d="m400.64 198.7v114.6c0 7.83-3.18 14.92-8.31 20.06-5.13 5.13-12.23 8.31-20.06 8.31-15.66 0-28.37-12.71-28.37-28.37v-20.69c0-8.35-6.77-15.12-15.12-15.12h-29.29c-8.35 0-15.12 6.77-15.12 15.12v20.69c0 7.83-3.17 14.92-8.31 20.06-5.13 5.13-12.22 8.31-20.06 8.31v-171.34c15.67 0 28.37 12.71 28.37 28.37v20.69c0 8.35 6.77 15.12 15.12 15.12h29.29c8.35 0 15.12-6.77 15.12-15.12v-20.69c0-7.83 3.18-14.92 8.31-20.06 5.14-5.13 12.23-8.31 20.06-8.31 15.67 0 28.37 12.71 28.37 28.37z" fill="#213949"/></g></g></g></svg>