<svg id="Layer_1" enable-background="new 0 0 512 512" height="512" viewBox="0 0 512 512" width="512" xmlns="http://www.w3.org/2000/svg"><g id="XMLID_664_"><g id="XMLID_4183_"><g id="XMLID_4315_"><g id="XMLID_4316_"><g id="XMLID_4317_"><g id="XMLID_4318_"><g id="XMLID_4319_"><g id="XMLID_4320_"><g id="XMLID_4321_"><g id="XMLID_4322_"><g id="XMLID_4323_"><g id="XMLID_4324_"><g id="XMLID_4325_"><g id="XMLID_4326_"><g id="XMLID_4327_"><g id="XMLID_4328_"><g id="XMLID_4329_"><circle id="XMLID_4330_" cx="256" cy="256" fill="#ffc56e" r="256"/></g></g></g></g></g></g></g></g></g></g></g></g></g></g></g></g><path id="XMLID_965_" d="m512 256c0-38.07-8.322-74.192-23.226-106.665l-53.387-53.387-358.773 320.103 72.723 72.723c32.472 14.904 68.594 23.226 106.663 23.226 141.385 0 256-114.615 256-256z" fill="#f2a846"/><g id="XMLID_58_"><g id="XMLID_56_"><g id="XMLID_46_"><path id="XMLID_4599_" d="m120.05 95.949h271.9v320.103h-271.9z" fill="#324a5e"/><path id="XMLID_4559_" d="m256 95.949h135.947v320.103h-135.947z" fill="#213949"/></g><g id="XMLID_4554_"><path id="XMLID_4556_" d="m250.63 231.295h320.103v49.411h-320.103z" fill="#324a5e" transform="matrix(0 -1 1 0 154.681 666.681)"/><path id="XMLID_4555_" d="m-58.732 231.295h320.103v49.411h-320.103z" fill="#576770" transform="matrix(0 -1 1 0 -154.681 357.319)"/></g></g><g id="XMLID_33_"><g id="XMLID_4626_"><path id="XMLID_4630_" d="m231.694 238.75h200.447v34.5h-200.447z" fill="#fff5ca" transform="matrix(0 1 -1 0 587.917 -75.917)"/></g><g id="XMLID_34_"><path id="XMLID_36_" d="m155.777 238.75h200.447v34.5h-200.447z" fill="#fff" transform="matrix(0 1 -1 0 512 0)"/></g><g id="XMLID_37_"><path id="XMLID_38_" d="m79.86 238.75h200.447v34.5h-200.447z" fill="#fff" transform="matrix(0 1 -1 0 436.083 75.917)"/></g></g></g><g id="XMLID_175_"><path id="XMLID_184_" d="m256 155.777h17.25v200.44h-17.25z" fill="#fff5ca"/></g></g></svg>