<svg id="Layer_1" enable-background="new 0 0 512 512" height="512" viewBox="0 0 512 512" width="512" xmlns="http://www.w3.org/2000/svg"><g id="XMLID_67_"><g id="XMLID_2184_"><g id="XMLID_2867_"><g id="XMLID_2869_"><g id="XMLID_2871_"><g id="XMLID_2872_"><g id="XMLID_2873_"><g id="XMLID_2889_"><g id="XMLID_2906_"><g id="XMLID_2907_"><g id="XMLID_2908_"><g id="XMLID_2910_"><g id="XMLID_2911_"><g id="XMLID_2912_"><g id="XMLID_2913_"><g id="XMLID_2914_"><g id="XMLID_2915_"><path id="XMLID_2916_" d="m512 256c0 67.66-26.26 129.2-69.13 174.97-46.71 49.87-113.15 27.36-186.87 27.36-73.46 0-139.69 22.73-186.37-26.83-43.17-45.83-69.63-107.58-69.63-175.5 0-141.39 114.62-256 256-256s256 114.61 256 256z" fill="#ff637b"/></g></g></g></g></g></g></g></g></g></g></g></g></g></g></g></g><path id="XMLID_1617_" d="m256 458.33c73.72 0 140.16 22.51 186.87-27.36 42.87-45.77 69.13-107.31 69.13-174.97 0-10.022-.596-19.904-1.716-29.626l-136.343-136.342-232.348 133.993 39.797 40.21c44.61 19.765 32.277 82.932 32.277 82.932l-144.037 84.333 4.438 4.442c46.393 43.718 110.77 22.388 181.932 22.388z" fill="#e03b5a"/><g id="XMLID_20_"><path id="XMLID_964_" d="m442.87 375.17v55.8c-46.71 49.87-113.15 81.03-186.87 81.03-73.46 0-139.69-30.94-186.37-80.5v-56.33c0-21.05 17.07-38.12 38.12-38.12h297c21.05 0 38.12 17.07 38.12 38.12z" fill="#4bb9ec"/><path id="XMLID_1060_" d="m442.87 375.17v55.8c-46.39 49.53-112.25 80.61-185.37 81.02v-174.94h147.25c21.05 0 38.12 17.07 38.12 38.12z" fill="#0095ff"/><g id="XMLID_2506_"><path id="XMLID_2508_" d="m307.831 277.258v59.792l-50.331 40.95-50.343-40.95v-59.792z" fill="#ffc473"/><path id="XMLID_2507_" d="m307.825 277.258v59.792l-50.325 40.95v-100.742z" fill="#ffb74f"/></g><path id="XMLID_2444_" d="m366.19 161.221c-4.538-66.807-61.513-104.724-108.696-104.724s-104.157 37.917-108.696 104.724c-12.209 2.287-20.874 13.697-19.515 26.244l2.102 19.412c1.426 13.17 13.368 22.778 26.538 21.352l2.268-.246c26.959 70.175 70.465 88.243 97.303 92.347 26.838-4.104 70.344-22.172 97.303-92.347l2.268.246c13.17 1.426 25.112-8.182 26.538-21.352l2.102-19.412c1.359-12.547-7.306-23.957-19.515-26.244z" fill="#ffdba9"/><path id="XMLID_2443_" d="m385.703 187.462-2.095 19.419c-1.432 13.167-13.377 22.772-26.544 21.352l-2.27-.244c-26.951 70.167-70.458 88.235-97.293 92.345v-263.834c47.174 0 104.15 37.918 108.69 104.72 12.212 2.283 20.874 13.704 19.512 26.242z" fill="#ffc473"/><g id="XMLID_662_"><path id="XMLID_291_" d="m243.956 38.471-90.733 41.817c-14.904 6.869-22.307 23.806-17.225 39.41l11.059 33.959 110.444 24.127 110.441-24.127 11.059-33.959c5.082-15.604-2.321-32.541-17.225-39.41l-90.731-41.816c-8.594-3.962-18.493-3.962-27.089-.001z" fill="#4bb9ec"/><path id="XMLID_1071_" d="m379.006 119.702-11.06 33.954h-.01l-110.436 24.125v-142.281c4.623 0 9.247.998 13.545 2.974l90.73 41.816c14.909 6.864 22.313 23.8 17.231 39.412z" fill="#0095ff"/><path id="XMLID_2181_" d="m147.057 153.657 1.825 14.985c19.552 20.276 108.617 32.859 108.617 32.859s89.064-12.582 108.617-32.859l1.824-14.985-110.441-14.615z" fill="#576770"/><path id="XMLID_1067_" d="m367.936 153.655-1.823 14.991c-19.554 20.277-108.613 32.854-108.613 32.854v-62.459l25.562 3.381z" fill="#213949"/><path id="XMLID_547_" d="m257.5 84.553-28.849 17.306v24.051c0 13.774 4.74 28.044 28.849 36.38 24.108-8.336 28.848-22.606 28.848-36.38s0-24.051 0-24.051z" fill="#ffe767"/><g id="XMLID_1039_"><path id="XMLID_1065_" d="m286.351 101.859v24.055c0 5.561-.774 11.202-3.289 16.508-3.707 7.821-11.192 14.899-25.562 19.869v-77.734z" fill="#ffc56e"/></g></g><path id="XMLID_665_" d="m207.157 337.05-29.157 21.95 52 56.5 27.5-37.5z" fill="#0095ff"/><path id="XMLID_753_" d="m307.843 337.05 29.157 21.95-52 56.5-27.5-37.5z" fill="#007bc6"/><g id="XMLID_859_"><g id="XMLID_829_"><path id="XMLID_831_" d="m108.07 337.05h37v34.5h-37z" fill="#ffe767"/></g><g id="XMLID_860_"><path id="XMLID_861_" d="m367.43 337.05h37v34.5h-37z" fill="#ffc56e"/></g></g></g></g></svg>