<svg id="Layer_1" enable-background="new 0 0 512 512" height="512" viewBox="0 0 512 512" width="512" xmlns="http://www.w3.org/2000/svg"><g id="XMLID_2055_"><g id="XMLID_2056_"><g id="XMLID_3152_"><g id="XMLID_3155_"><g id="XMLID_3159_"><g id="XMLID_3161_"><g id="XMLID_3163_"><g id="XMLID_3180_"><g id="XMLID_3181_"><g id="XMLID_3182_"><g id="XMLID_3183_"><g id="XMLID_3184_"><g id="XMLID_3190_"><g id="XMLID_3191_"><g id="XMLID_3192_"><g id="XMLID_3193_"><g id="XMLID_3194_"><circle id="XMLID_3195_" cx="256" cy="256" fill="#7fe881" r="256"/></g></g></g></g></g></g></g></g></g></g></g></g></g></g></g></g><path id="XMLID_3047_" d="m512 256c0-12.837-.957-25.45-2.781-37.78l-72.067-72.067-364.152 242.18 114.34 114.34c21.852 6.07 44.875 9.327 68.66 9.327 141.385 0 256-114.615 256-256z" fill="#5bc980"/><g id="XMLID_3606_"><g id="XMLID_3156_"><path id="XMLID_2909_" d="m174.5 357.333-101.5 31v-175.333h116.5z" fill="#213949"/><path id="XMLID_3520_" d="m189.5 213-15 144.33-49.5 15.12v-159.45z" fill="#192e3a"/><g id="XMLID_2792_"><path id="XMLID_3232_" d="m445.83 206.67v61.33c0 41.05-33.28 74.33-74.33 74.33h-182v-210h182c15.61 0 30.11 4.82 42.07 13.04 19.48 13.41 32.26 35.86 32.26 61.3z" fill="#4bb9ec"/></g><g id="XMLID_3258_"><path id="XMLID_3264_" d="m445.83 206.67v61.33c0 41.05-33.28 74.33-74.33 74.33h-53.83v-210h53.83c15.61 0 30.11 4.82 42.07 13.04 19.48 13.41 32.26 35.86 32.26 61.3z" fill="#0095ff"/></g><g id="XMLID_3153_"><g id="XMLID_3154_"><path id="XMLID_3227_" d="m413.57 145.37-111.35 196.96h-71.75l118.73-210h22.3c15.61 0 30.11 4.82 42.07 13.04z" fill="#87daf7"/></g></g><g id="XMLID_3255_"><g id="XMLID_3256_"><path id="XMLID_3269_" d="m413.57 145.37-12.72 22.51-83.18 147.12v-126.9l19.09-33.77 12.44-22h22.3c15.61 0 30.11 4.82 42.07 13.04z" fill="#4bb9ec"/></g></g><g id="XMLID_2883_"><path id="XMLID_2917_" d="m371.5 357.333h-197v-240h197c49.259 0 89.333 40.075 89.333 89.334v61.333c0 49.259-40.075 89.333-89.333 89.333zm-158.198-37h150.047c32.409 0 58.682-26.273 58.682-58.682v-48.635c0-32.41-26.273-58.683-58.683-58.683h-150.046z" fill="#324a5e"/></g><g id="XMLID_3251_"><path id="XMLID_3252_" d="m371.5 117.33h-53.83v37h45.68c14.27 0 27.34 5.09 37.5 13.55 12.94 10.77 21.18 26.99 21.18 45.14v48.63c0 32.41-26.27 58.68-58.68 58.68h-45.68v37h53.83c49.26 0 89.33-40.07 89.33-89.33v-61.33c0-49.26-40.07-89.34-89.33-89.34z" fill="#213949"/></g></g><path id="XMLID_3268_" d="m317.67 315v5.33h-3.01z" fill="#213949"/></g></g></svg>