<svg id="Layer_1" enable-background="new 0 0 512 512" height="512" viewBox="0 0 512 512" width="512" xmlns="http://www.w3.org/2000/svg"><g id="XMLID_509_"><g id="XMLID_2139_"><g id="XMLID_2284_"><g id="XMLID_2285_"><g id="XMLID_2286_"><g id="XMLID_2287_"><g id="XMLID_2288_"><g id="XMLID_2289_"><g id="XMLID_2290_"><g id="XMLID_2291_"><g id="XMLID_2292_"><g id="XMLID_2293_"><g id="XMLID_2294_"><g id="XMLID_2295_"><g id="XMLID_2310_"><circle id="XMLID_2312_" cx="256" cy="256" fill="#4bb9ec" r="256"/></g></g></g></g></g></g></g></g></g></g></g></g></g></g><path id="XMLID_663_" d="m512 256c0-33.054-6.267-64.643-17.673-93.648-27.956-28.01-63.319-63.685-63.319-63.685l-350.016 228.881 130.174 127.119-4.218 3.667 53.609 53.609c139.281-2.435 251.443-116.082 251.443-255.943z" fill="#0095ff"/><g id="XMLID_93_"><g id="XMLID_3857_"><path id="XMLID_141_" d="m206.948 322.667h98.103v135.667h-98.103z" fill="#324a5e"/></g><g id="XMLID_253_"><path id="XMLID_286_" d="m256 322.67h49.05v135.66h-49.05z" fill="#213949"/></g><g id="XMLID_92_"><g id="XMLID_3854_"><path id="XMLID_64_" d="m95.992 113.667h320.016v198.881h-320.016z" fill="#7fe881"/></g><g id="XMLID_221_"><path id="XMLID_287_" d="m256 113.67h160.01v198.88h-160.01z" fill="#5bc980"/></g><g id="XMLID_3850_"><path id="XMLID_68_" d="m431.008 327.548h-350.016v-228.881h350.016zm-320.016-30h290.016v-168.881h-290.016z" fill="#fff"/></g><g id="XMLID_209_"><path id="XMLID_214_" d="m256 98.67v30h145.01v168.88h-145.01v30h175.01v-228.88z" fill="#fff5ca"/></g><g id="XMLID_19_"><path id="XMLID_6_" d="m359.75 213.107-84.5-48.052v23.052h-123v50h123v23.052z" fill="#fff"/></g><g id="XMLID_206_"><g id="XMLID_207_"><g id="XMLID_208_"><path id="XMLID_268_" d="m275.25 261.16v-23.05h-19.25v-50h19.25v-23.06l84.5 48.06z" fill="#fff5ca"/></g></g></g></g></g></g></svg>