<svg id="Layer_1" enable-background="new 0 0 512 512" height="512" viewBox="0 0 512 512" width="512" xmlns="http://www.w3.org/2000/svg"><g id="XMLID_109_"><g id="XMLID_362_"><g id="XMLID_557_"><g id="XMLID_558_"><g id="XMLID_559_"><g id="XMLID_560_"><g id="XMLID_561_"><g id="XMLID_562_"><g id="XMLID_563_"><g id="XMLID_564_"><g id="XMLID_565_"><g id="XMLID_566_"><g id="XMLID_567_"><g id="XMLID_568_"><g id="XMLID_569_"><g id="XMLID_570_"><g id="XMLID_571_"><circle id="XMLID_572_" cx="256" cy="256" fill="#4bb9ec" r="256"/></g></g></g></g></g></g></g></g></g></g></g></g></g></g></g></g><path id="XMLID_1935_" d="m512 256c0-18.695-2.023-36.915-5.828-54.471l-131.086-131.087-231.161 378.126 57.604 57.604c17.556 3.805 35.776 5.828 54.471 5.828 141.385 0 256-114.615 256-256z" fill="#0095ff"/><g id="XMLID_1271_"><path id="XMLID_1713_" d="m342.938 457.286h-4.108l-82.83-9.619-82.83 9.619h-4.108c-22.476 0-40.865-18.389-40.865-40.866v-320.841c0-22.476 18.389-40.865 40.865-40.865h4.108l82.83 7.869 82.83-7.869h4.108c22.476 0 40.866 18.389 40.866 40.865v320.841c0 22.477-18.39 40.866-40.866 40.866z" fill="#324a5e"/><path id="XMLID_1753_" d="m173.17 54.714h165.661v402.572h-165.661z" fill="#576770"/><path id="XMLID_1351_" d="m383.8 95.583v320.833c0 22.48-18.39 40.87-40.86 40.87h-4.11l-82.83-9.62v-385.083l82.83-7.87h4.11c22.47 0 40.86 18.39 40.86 40.87z" fill="#213949"/><path id="XMLID_1408_" d="m256 54.713h82.83v402.573h-82.83z" fill="#324a5e"/><g id="XMLID_1269_"><ellipse id="XMLID_1793_" cx="256" cy="138.662" fill="#ff637b" rx="43.011" ry="43.011" transform="matrix(.16 -.987 .987 .16 78.122 369.145)"/><g id="XMLID_1324_"><g id="XMLID_1495_"><g id="XMLID_1496_"><g id="XMLID_1497_"><path id="XMLID_1498_" d="m299.01 138.66c0 23.76-19.26 43.01-43.01 43.01v-86.02c23.75 0 43.01 19.26 43.01 43.01z" fill="#e03b5a"/></g></g></g></g><circle id="XMLID_1810_" cx="256" cy="256" fill="#ffc56e" r="43.011"/><path id="XMLID_1345_" d="m299.01 256c0 23.75-19.26 43.01-43.01 43.01v-86.02c23.75 0 43.01 19.26 43.01 43.01z" fill="#f2a846"/><ellipse id="XMLID_1261_" cx="256" cy="373.338" fill="#7fe881" rx="43.011" ry="43.011" transform="matrix(.924 -.383 .383 .924 -123.384 126.386)"/><path id="XMLID_1344_" d="m299.01 373.34c0 23.75-19.26 43.01-43.01 43.01v-86.02c23.75 0 43.01 19.25 43.01 43.01z" fill="#5bc980"/></g></g></g></svg>