<svg id="Layer_1" enable-background="new 0 0 512 512" height="512" viewBox="0 0 512 512" width="512" xmlns="http://www.w3.org/2000/svg"><g id="XMLID_4_"><g id="XMLID_2280_"><g id="XMLID_3862_"><g id="XMLID_3863_"><g id="XMLID_3864_"><g id="XMLID_3865_"><g id="XMLID_3866_"><g id="XMLID_3867_"><g id="XMLID_3868_"><g id="XMLID_3869_"><g id="XMLID_3870_"><g id="XMLID_3871_"><g id="XMLID_3872_"><g id="XMLID_3873_"><g id="XMLID_3875_"><g id="XMLID_3877_"><g id="XMLID_3881_"><circle id="XMLID_3883_" cx="256" cy="256" fill="#ff637b" r="256"/></g></g></g></g></g></g></g></g></g></g></g></g></g></g></g></g><path id="XMLID_86_" d="m512 256c0-33.298-6.362-65.108-17.929-94.289l-94.577-94.577-286.992 377.732 49.203 49.203c29.182 11.568 60.995 17.931 94.295 17.931 141.385 0 256-114.615 256-256z" fill="#e03b5a"/><g id="XMLID_4134_"><g id="XMLID_1451_"><g id="XMLID_1450_"><g id="XMLID_1438_"><path id="XMLID_1439_" d="m112.502 444.866v-377.732h286.993v312.771l-64.962 64.961z" fill="#fff"/></g><g id="XMLID_1436_"><path id="XMLID_1437_" d="m399.498 67.13v312.77l-64.96 64.97h-78.54v-377.74z" fill="#fff5ca"/></g><g id="XMLID_1415_"><path id="XMLID_1434_" d="m399.495 379.905-64.962 64.961v-64.961z" fill="#ffe767"/></g></g><g id="XMLID_1412_"><g id="XMLID_3786_"><path id="XMLID_3628_" d="m287.998 403.55-32-29-32 29v-83.5h64z" fill="#4bb9ec"/><g id="XMLID_3998_"><g id="XMLID_3999_"><path id="XMLID_4015_" d="m288 320.05v83.5l-32-29v-54.5z" fill="#0095ff"/></g></g><circle id="XMLID_3505_" cx="255.998" cy="291.55" fill="#ffc56e" r="45.5"/><path id="XMLID_4016_" d="m301.5 291.55c0 12.65-5.16 24.09-13.5 32.34-8.22 8.14-19.53 13.16-32 13.16v-91c25.13 0 45.5 20.37 45.5 45.5z" fill="#f2a846"/><circle id="XMLID_3604_" cx="255.998" cy="291.55" fill="#f2a846" r="23"/><path id="XMLID_4013_" d="m279 291.55c0 12.7-10.3 23-23 23v-46c12.7 0 23 10.3 23 23z" fill="#dd8c2c"/></g></g><g id="XMLID_3845_"><path id="XMLID_3846_" d="m158.333 105.879h195.333v34.5h-195.333z" fill="#576770"/></g><g id="XMLID_3859_"><path id="XMLID_3884_" d="m158.333 174.878h195.333v34.5h-195.333z" fill="#576770"/></g></g><g id="XMLID_3970_"><path id="XMLID_3979_" d="m256 105.88h97.67v34.5h-97.67z" fill="#213949"/></g><g id="XMLID_3968_"><path id="XMLID_3978_" d="m256 174.88h97.67v34.5h-97.67z" fill="#213949"/></g></g></g></svg>