<svg id="Layer_1" enable-background="new 0 0 512 512" height="512" viewBox="0 0 512 512" width="512" xmlns="http://www.w3.org/2000/svg"><g id="XMLID_142_"><g id="XMLID_223_"><g id="XMLID_224_"><g id="XMLID_225_"><g id="XMLID_226_"><g id="XMLID_227_"><g id="XMLID_228_"><g id="XMLID_229_"><g id="XMLID_230_"><g id="XMLID_231_"><g id="XMLID_232_"><g id="XMLID_233_"><g id="XMLID_234_"><g id="XMLID_235_"><g id="XMLID_236_"><circle id="XMLID_237_" cx="256" cy="256" fill="#ffc56e" r="256"/></g></g></g></g></g></g></g></g></g></g></g></g></g></g><path id="XMLID_2491_" d="m512 256c0-39.432-8.924-76.778-24.849-110.14l-38.2-38.2-385.902 51.554 36.618 36.453 24 90.667-52.664 80.379 141.609 141.609c14.104 2.407 28.597 3.678 43.388 3.678 141.385 0 256-114.615 256-256z" fill="#f2a846"/><g id="XMLID_1414_"><g id="XMLID_1177_"><g id="XMLID_1179_"><path id="XMLID_1303_" d="m96.007 150.814h30v116.179h-30z" fill="#324a5e"/></g><g id="XMLID_1216_"><g id="XMLID_1074_"><path id="XMLID_1445_" d="m139.008 370.327h-56c-12.012 0-21.75-9.738-21.75-21.75v-69.474c0-12.012 9.738-21.75 21.75-21.75h56c12.012 0 21.75 9.738 21.75 21.75v69.474c0 12.012-9.738 21.75-21.75 21.75z" fill="#576770"/></g></g><g id="XMLID_1273_"><path id="XMLID_1302_" d="m385.993 150.814h30v116.179h-30z" fill="#213949"/></g><g id="XMLID_1214_"><g id="XMLID_1178_"><path id="XMLID_1440_" d="m428.992 404.34h-56c-12.012 0-21.75-9.738-21.75-21.75v-103.487c0-12.012 9.738-21.75 21.75-21.75h56c12.012 0 21.75 9.738 21.75 21.75v103.487c0 12.012-9.737 21.75-21.75 21.75z" fill="#324a5e"/></g></g><g id="XMLID_972_"><path id="XMLID_1301_" d="m271 266.994h-30v-35.676l-30-30v-50.504h30v38.078l30 30z" fill="#324a5e"/></g><g id="XMLID_1308_"><path id="XMLID_1320_" d="m271 218.89v48.1h-15v-63.1z" fill="#213949"/></g><g id="XMLID_1217_"><g id="XMLID_1215_"><g id="XMLID_1176_"><path id="XMLID_1433_" d="m284 370.327h-56c-12.012 0-21.75-9.738-21.75-21.75v-69.474c0-12.012 9.738-21.75 21.75-21.75h56c12.012 0 21.75 9.738 21.75 21.75v69.474c0 12.012-9.738 21.75-21.75 21.75z" fill="#576770"/></g></g></g><g id="XMLID_1305_"><g id="XMLID_1306_"><g id="XMLID_1307_"><path id="XMLID_1319_" d="m305.75 279.1v69.48c0 12.01-9.74 21.75-21.75 21.75h-28v-112.98h28c12.01 0 21.75 9.74 21.75 21.75z" fill="#324a5e"/></g></g></g></g><path id="XMLID_674_" d="m63.049 107.66h385.902v51.554h-385.902z" fill="#ff637b"/><path id="XMLID_1317_" d="m256 107.66h192.95v51.55h-192.95z" fill="#e03b5a"/></g></g></svg>