<svg id="Layer_1" enable-background="new 0 0 512 512" height="512" viewBox="0 0 512 512" width="512" xmlns="http://www.w3.org/2000/svg"><g id="XMLID_22_"><g id="XMLID_238_"><g id="XMLID_906_"><g id="XMLID_907_"><g id="XMLID_908_"><g id="XMLID_909_"><g id="XMLID_910_"><g id="XMLID_911_"><g id="XMLID_912_"><g id="XMLID_913_"><g id="XMLID_917_"><g id="XMLID_918_"><g id="XMLID_919_"><g id="XMLID_922_"><g id="XMLID_928_"><g id="XMLID_929_"><circle id="XMLID_930_" cx="256" cy="256" fill="#ff637b" r="256"/></g></g></g></g></g></g></g></g></g></g></g></g></g></g></g><path id="XMLID_1394_" d="m512 256c0-16.645-1.608-32.912-4.641-48.672l-87.53-87.529-57.076 63.07 60.497 61.298-45.237-.596-90.428-90.496-223.585 188.472 169.453 169.453c7.431.648 14.947 1 22.547 1 141.385 0 256-114.615 256-256z" fill="#e03b5a"/><g id="XMLID_473_"><g id="XMLID_59_"><path id="XMLID_17_" d="m326.75 251.667c0 87.352-73.082 125.923-73.082 125.923l-35.121-125.923 35.121-125.923s73.082 38.571 73.082 125.923z" fill="#ffc56e"/><path id="XMLID_396_" d="m326.74 253.017c-.74 86.4-73.07 124.57-73.07 124.57l-34.74-124.57z" fill="#f2a846"/><path id="XMLID_3_" d="m172.189 161.786-23.194 16.898v145.965l23.194 16.898 81.479 36.043v-251.846z" fill="#fff"/><path id="XMLID_397_" d="m253.67 253.017v124.57l-81.48-36.04-23.2-16.9v-71.63z" fill="#fff5ca"/><path id="XMLID_1448_" d="m64 161.786h108.189v179.761h-108.189z" fill="#324a5e"/><g id="XMLID_288_"><path id="XMLID_395_" d="m64 253.017h108.19v88.53h-108.19z" fill="#213949"/></g></g><g id="XMLID_163_"><path id="XMLID_159_" d="m373.749 234.417h77.751v34.5h-77.751z" fill="#fff"/><path id="XMLID_378_" d="m373.75 253.017h77.75v15.9h-77.75z" fill="#fff5ca"/><g id="XMLID_160_"><path id="XMLID_161_" d="m352.416 134.083h77.751v34.5h-77.751z" fill="#fff" transform="matrix(.914 -.406 .406 .914 -27.75 171.71)"/><path id="XMLID_162_" d="m352.416 334.75h77.751v34.5h-77.751z" fill="#fff5ca" transform="matrix(.914 .406 -.406 .914 176.397 -128.451)"/></g></g></g></g></svg>