<svg id="Layer_1" enable-background="new 0 0 512 512" height="512" viewBox="0 0 512 512" width="512" xmlns="http://www.w3.org/2000/svg"><g id="XMLID_21_"><g id="XMLID_266_"><g id="XMLID_267_"><g id="XMLID_679_"><g id="XMLID_695_"><g id="XMLID_696_"><g id="XMLID_697_"><g id="XMLID_698_"><g id="XMLID_699_"><g id="XMLID_700_"><g id="XMLID_701_"><g id="XMLID_702_"><g id="XMLID_703_"><g id="XMLID_704_"><g id="XMLID_705_"><circle id="XMLID_706_" cx="256" cy="256" fill="#7fe881" r="256"/></g></g></g></g></g></g></g></g></g></g></g></g></g></g><path id="XMLID_3411_" d="m509.352 292.83-231.833-232.28-210.879 328.621c1.257 1.713 70.772 70.791 110.802 110.53 24.756 7.975 51.15 12.299 78.558 12.299 128.877 0 235.493-95.238 253.352-219.17z" fill="#5bc980"/><g id="XMLID_527_"><g id="XMLID_2022_"><path id="XMLID_2023_" d="m424.028 398.112c-10.3 0-20.326-5.308-25.911-14.835l-168-286.647c-8.377-14.294-3.581-32.674 10.714-41.052 14.292-8.378 32.673-3.581 41.052 10.713l168 286.647c8.377 14.294 3.581 32.674-10.714 41.052-4.766 2.793-9.988 4.122-15.141 4.122z" fill="#b70433"/></g><g id="XMLID_2020_"><path id="XMLID_2021_" d="m424 398.107h-336c-16.568 0-30-13.432-30-30s13.432-30 30-30h336c16.568 0 30 13.432 30 30s-13.432 30-30 30z" fill="#ff637b"/></g><g id="XMLID_2015_"><g id="XMLID_2036_"><path id="XMLID_2037_" d="m454 368.11c0 16.57-13.43 30-30 30h-168v-60h168c16.57 0 30 13.43 30 30z" fill="#e03b5a"/></g></g><g id="XMLID_538_"><path id="XMLID_539_" d="m87.972 398.112c-5.153 0-10.374-1.329-15.141-4.122-14.295-8.378-19.091-26.757-10.714-41.052l168-286.647c8.378-14.294 26.76-19.091 41.052-10.713 14.295 8.378 19.091 26.757 10.714 41.052l-168 286.647c-5.584 9.526-15.613 14.835-25.911 14.835z" fill="#e03b5a"/></g><g id="XMLID_528_"><g id="XMLID_2046_"><g id="XMLID_2047_"><path id="XMLID_2048_" d="m281.88 96.63-25.88 44.16v-89.33c5.16-.01 10.4 1.32 15.17 4.12 14.29 8.38 19.09 26.75 10.71 41.05z" fill="#ce1b42"/></g></g></g></g></g></svg>