<svg id="Layer_1" enable-background="new 0 0 512 512" height="512" viewBox="0 0 512 512" width="512" xmlns="http://www.w3.org/2000/svg"><g id="XMLID_3504_"><g id="XMLID_300_"><g id="XMLID_2190_"><g id="XMLID_2193_"><g id="XMLID_2212_"><g id="XMLID_2213_"><g id="XMLID_2214_"><g id="XMLID_2215_"><g id="XMLID_2445_"><g id="XMLID_2446_"><g id="XMLID_2447_"><g id="XMLID_2448_"><g id="XMLID_2449_"><g id="XMLID_2450_"><g id="XMLID_2451_"><g id="XMLID_2452_"><circle id="XMLID_2453_" cx="256" cy="256" fill="#4bb9ec" r="256"/></g></g></g></g></g></g></g></g></g></g></g></g></g></g></g><path id="XMLID_3503_" d="m511.551 271.005-80.278-80.278s-217.345 263.748-217.345 263.748l57.076 57.076c129.433-7.483 233.064-111.113 240.547-240.546z" fill="#0095ff"/><g id="XMLID_2345_"><path id="XMLID_1800_" d="m437.136 287.465-149.671 149.671c-17.306 17.306-45.624 17.306-62.93 0l-149.671-149.671c-17.306-17.306-17.306-45.624 0-62.93l149.671-149.671c17.306-17.306 45.624-17.306 62.93 0l149.671 149.671c17.306 17.306 17.306 45.624 0 62.93z" fill="#ffe767"/><path id="XMLID_1799_" d="m287.47 437.14c-8.65 8.65-20.06 12.98-31.47 12.98v-388.24c11.41 0 22.82 4.33 31.47 12.98l149.67 149.67c17.3 17.31 17.3 45.63 0 62.94" fill="#ffc100"/><g id="XMLID_1795_"><path id="XMLID_1796_" d="m256 471.873c-15.236 0-30.473-5.799-42.072-17.398l-156.403-156.404c-23.198-23.198-23.198-60.944 0-84.143l156.403-156.403c23.199-23.197 60.946-23.197 84.143 0l156.403 156.403c23.198 23.198 23.198 60.944 0 84.143l-156.403 156.404c-11.598 11.599-26.835 17.398-42.071 17.398zm0-401.761c-7.555 0-15.107 2.875-20.859 8.626l-156.403 156.404c-5.537 5.537-8.586 12.944-8.586 20.858s3.049 15.321 8.586 20.858l156.403 156.403c11.502 11.5 30.214 11.5 41.717 0l156.403-156.403c5.536-5.537 8.586-12.944 8.586-20.858s-3.05-15.321-8.586-20.858l-156.403-156.404c-5.75-5.75-13.305-8.626-20.858-8.626z" fill="#324a5e"/></g><g id="XMLID_65_"><path id="XMLID_66_" d="m454.47 213.93-156.4-156.4c-12.15-12.15-28.29-17.94-44.24-17.35v30.01c.72-.05 1.45-.08 2.17-.08 7.55 0 15.11 2.88 20.86 8.63l156.4 156.4c5.54 5.54 8.59 12.95 8.59 20.86s-3.05 15.32-8.59 20.86l-156.4 156.4c-6.3 6.3-14.77 9.15-23.03 8.54v30.02c.72.04 1.45.05 2.17.05 15.24 0 30.47-5.8 42.07-17.4l156.4-156.4c23.2-23.2 23.2-60.94 0-84.14z" fill="#213949"/></g><path id="XMLID_2314_" d="m348.472 259c-6.9 0-12.947-4.651-14.676-11.331-8.963-34.608-40.386-60.169-77.796-60.169s-68.833 25.561-77.796 60.169c-1.73 6.68-7.776 11.331-14.676 11.331h-20.438v40.558h225.82v-40.558z" fill="#324a5e"/><path id="XMLID_2366_" d="m368.91 259v40.56h-115.08v-112.03c.72-.02 1.44-.03 2.17-.03 37.41 0 68.83 25.56 77.8 60.17 1.73 6.68 7.77 11.33 14.67 11.33z" fill="#213949"/></g></g></svg>