<svg width="15" height="15" viewBox="0 0 15 15" fill="none" xmlns="http://www.w3.org/2000/svg">
<path d="M9.69375 1.76855H5.30625C3.75 1.76855 3.40625 2.54355 3.20625 3.49355L2.5 6.8748H12.5L11.7938 3.49355C11.5938 2.54355 11.25 1.76855 9.69375 1.76855Z" stroke="#6371F1" stroke-width="1.2" stroke-linecap="round" stroke-linejoin="round"/>
<path d="M13.744 12.3875C13.8127 13.1187 13.2252 13.75 12.4752 13.75H11.3002C10.6252 13.75 10.5315 13.4625 10.4127 13.1062L10.2877 12.7313C10.1127 12.2188 10.0002 11.875 9.1002 11.875H5.9002C5.0002 11.875 4.86895 12.2625 4.7127 12.7313L4.5877 13.1062C4.46895 13.4625 4.3752 13.75 3.7002 13.75H2.5252C1.7752 13.75 1.1877 13.1187 1.25645 12.3875L1.60645 8.58125C1.69395 7.64375 1.8752 6.875 3.5127 6.875H11.4877C13.1252 6.875 13.3065 7.64375 13.394 8.58125L13.744 12.3875Z" stroke="#6371F1" stroke-width="1.2" stroke-linecap="round" stroke-linejoin="round"/>
<path d="M2.5 5H1.875" stroke="#6371F1" stroke-width="1.2" stroke-linecap="round" stroke-linejoin="round"/>
<path d="M13.125 5H12.5" stroke="#6371F1" stroke-width="1.2" stroke-linecap="round" stroke-linejoin="round"/>
<path d="M7.5 1.875V3.125" stroke="#6371F1" stroke-width="1.2" stroke-linecap="round" stroke-linejoin="round"/>
<path d="M6.5625 3.125H8.4375" stroke="#6371F1" stroke-width="1.2" stroke-linecap="round" stroke-linejoin="round"/>
<path d="M3.75 9.375H5.625" stroke="#6371F1" stroke-width="1.2" stroke-linecap="round" stroke-linejoin="round"/>
<path d="M9.375 9.375H11.25" stroke="#6371F1" stroke-width="1.2" stroke-linecap="round" stroke-linejoin="round"/>
</svg>
